<mxfile host="Electron" modified="2023-06-02T17:10:17.054Z" agent="Mozilla/5.0 (Windows NT 10.0; Win64; x64) AppleWebKit/537.36 (KHTML, like Gecko) draw.io/21.2.8 Chrome/112.0.5615.165 Electron/24.2.0 Safari/537.36" etag="oG1RgSbKc_aoVL9Uq-CE" version="21.2.8" type="device">
  <diagram name="Page-1" id="vrVSes-2XEKoohtNld1u">
    <mxGraphModel dx="1036" dy="774" grid="0" gridSize="10" guides="1" tooltips="1" connect="1" arrows="1" fold="1" page="0" pageScale="1" pageWidth="850" pageHeight="1100" math="0" shadow="0">
      <root>
        <mxCell id="0" />
        <mxCell id="1" parent="0" />
        <mxCell id="_1XgwbN9NE4WeG1gLeY1-1" value="VPC" style="points=[[0,0],[0.25,0],[0.5,0],[0.75,0],[1,0],[1,0.25],[1,0.5],[1,0.75],[1,1],[0.75,1],[0.5,1],[0.25,1],[0,1],[0,0.75],[0,0.5],[0,0.25]];outlineConnect=0;gradientColor=none;html=1;whiteSpace=wrap;fontSize=12;fontStyle=0;container=0;pointerEvents=0;collapsible=0;recursiveResize=0;shape=mxgraph.aws4.group;grIcon=mxgraph.aws4.group_vpc;strokeColor=#FF0000;fillColor=none;verticalAlign=top;align=left;spacingLeft=30;fontColor=#AAB7B8;dashed=0;movable=1;resizable=1;rotatable=1;deletable=1;editable=1;locked=0;connectable=1;" parent="1" vertex="1">
          <mxGeometry x="688" y="345" width="401" height="326" as="geometry" />
        </mxCell>
        <mxCell id="hsbF_BY8EtxqXJsajYjX-5" value="" style="shape=image;verticalLabelPosition=bottom;labelBackgroundColor=default;verticalAlign=top;aspect=fixed;imageAspect=0;image=https://media.trustradius.com/product-logos/up/kQ/3H4MOI9FQDLL-180x180.PNG;" vertex="1" parent="1">
          <mxGeometry x="125" y="417.99998779296874" width="180" height="180" as="geometry" />
        </mxCell>
        <mxCell id="hsbF_BY8EtxqXJsajYjX-7" value="HUAWEI CLOUD&#xa;PROVIDER" style="shape=image;verticalLabelPosition=bottom;labelBackgroundColor=default;verticalAlign=top;aspect=fixed;imageAspect=0;image=data:image/png,iVBORw0KGgoAAAANSUhEUgAAAVsAAADwCAYAAACuY8d0AAAABHNCSVQICAgIfAhkiAAAIABJREFUeF7svQmcpVdd532q7lL31tLV1Vv2kHQCJCGAkogg+CraYV9lUZZhRj5jMo7ojDq8yYwzgAtDoriNy7yJw8ioDJgooLIoaUUDCIQEwk5IurOvvdS+3fX9fv/nPlXVlW5M0p2kk9yn+6l777Oc55zznPM7//P7L2eg3W6n/vbYq4GB7uGVaYDbiyS6/vB37zOlThroDnKEzzWPWXnkYJfj7gOpZfvi2vJgNdIb4IZGq5tKlYHU8UDbNDqpXCa9bielVotkOWHCgz6DLx2Odzk2yHcL1uSaRnN76rTPT+0un50dfE5wLKXlBufZG0u5AD7QrbMmp6ZT7OVySsP1lCpDKZUGr+X4bp67k3ztSKNjryPj+fl+Fkm0e3kxT1Eo9lKFz1J8b3XaqUlZqhyzBFFGr7VcJa/hom4r6tPbuwOUr7fFI6iv7sBgFDXXcy72ykW9L3E/966+l9UrDvf9r39W//fh18BAH2wPvxIfaynkTt4DgAAEO/+BpSzAtjhadPpODzja3TZ3DaRBbiwPAkSAXWu5lcoVvoM3HQFLsAZ4BgBngajTbiYaJHfxO0AXwOsCpgKqnwMA4cLihWl6OqXpmTR3221p17e/lXbf8J20/949qbm8nMqA2VCJ/C4tAVSrg4GP6AJ4Pk/cBQ/BRnLI3gLMG61mGgJ0n3DqKenk056UTj776al87LEpbd2cUo08C/wCdLl8RapWXheoWgKoBdhBP62jkrhKqboBtkPVEsXIwkwVsO7wnPJgKT7Nh/lxdxuMgSXn0fu7AjJ1ORiD2sHBNq5f8176ABtVddRufbA9al/NI5exAFsgQ9gABqJDC7h5Kz6L/K1KZYWElgFXuVbpFfAESEv8GwSQTLkNKJaqAFTGGSQ/gFVQCgmWS1rNHWl+5so0NZWmbr4l7f7Wt9Lt39mVFvbuSYNLjTSA9DqwuJQGOy32NgKp+J0T66Z26oJ41QD6gMTY/L52q1araWF5CXDspmrVAQBgJD0HgTa/F1MltapIu+azXk2lsbE0dsy2dOKTnphOeOKT0sT2UwHhYc4Nn8cIsjNGEAGzUo20Gs3lVKkNkb75A2B5eBNAL0DVT6XdLshvHmPQsZ57+Ww7aPUGrvV5z+U48D0UQFtIwmul5QNL3v/1SNVAH2wfqZo/yp+bwTZnsid7HSjd9iQurygATUkypDUODAI4TYCmw3R5iO8dKQKk1pLTdqkFd+kAUUgpd2aum26/I9311W+kXd/4Rpq889a0ODWZmnNzqUKao0jHQFsaWFpO7fn5NDY0lEoAeZYj/eS5QQ3kzzZUhTkrgKrIYy6Rj1e0HQAXK3x0k5e3OkjWDgoAYavVCQm1BVAOINm2kV7nGBSaAurwcOrU6ml0m+D75LT97KekDU9+ckrHHHsBYHtZPLReC/DtIGEjDadBgLtNOZWkJViCQultkcfemBVMCXs8PcB2dTDz8lU2JIPtquRb0A5Z2u2D7Wr9Hi3f+mB7tLyJozQfxTT1wC6vvJu3tZxiMSWOMyUkWCRFAbis6AmQpQZcqhLo4tL+tLw0kfbsSZM33pR2fekr6ebrvpYa+6bSSCojUyJdLs2E1FoDsIYAulITqRDpF1kz9nYDyiDAUg60gzzbDq7Ub+a1W6oGWBb5Cym3N3WP7HFf8VvgRR7upaV42U4VpHCuSA351+BaB1Ob+5tQBQLwIgNAe6iaGuVKmub+1lAlbTn5pHT2Oc9ITzj77FQ55piUNm5KactmeBR5k1z0LjTKANJvC+B1cOBMSLMxblCOklxtSLjc0JNsC+Bcg89cXLyBDLL+Xksj9MHWt3x0bX2wPbrexxHLzXqO9YEmPNDJ9IGSlB23AFsnxAFc7iS6Mm2lswtuApLg0UFJVQWgQvoEKFFawb22Lk6Tk69t3XB9uvx/vTe14V6HoARqTaiG+cVU5yGjZabhAFx3EABDKi4DPnK/QTOQVpmC+exKAHjmPEOaBi7zVFwOGGDkSMGJenw92MqbKsEKeOt5U881ULANIT17ryCe0xYaLTfcLM/sALptJXjyuAw4LlNPXXhc6YdprnnyM89Nz3rZS1I6bXumHDaMcSvlk07hvoILXx2kqADyE+WlbNav28HBtndy5WMVfPOh9cPj+uv7vx/uGuiD7cNd4w/T8w4LbKEI1irviywLp4poBdAeUBQ16D3CcVBJ0L4/O6sm/vy0uHzp5DVXp2t27kx7b7wxdab2p1FvhiIYR9IbB9ScbrtXATDgJaGrz8DjVBzwU/ocQEJUIu32lE4rPKVg2gNU8+D1QSkI/708CZbF5rECmD0WnLSA3bvWYxXyFRKvz+XeFcUWfLADgJu0QAisKL8GyHdLOgKIlGpYhJ6YIR+1LZtTe2QkHXvWWelZLwZ4twO81cq1acP4uSHCOij0QN/fRV5KXXjklU1KwR8+TSi+L5CuV2KulXLXJNT/+gjWQB9sH8HKfygf/S+BrcCyVgNeAJB5KqQ2edY6wNKF0BTMoo8LTIKZ+i0kOYGo3Wqkilwsiq+ElBpIu7B4ebrlltd+eeen0jc+89mERJtGkXbrXDMOaFbgP0tYH3T47KI4iik11MOggMoz20i85YFythwgrwKZYNQGmNxWwJM8qYATgrykkO8sQw8TV6qZ0wds8qcFkJfJv2kGUHNhiWcrtXeRpuMY5SZ77L3nRHYygLeoJ6V6LQi8TrKkRXoddtNqkeeFNnullI4784z05Oc8Kx3zvB+GZhhLaWzEPrijNDq6U1m2gfnagNYNVjClqWAiJ5/cZHZQRVmndYd1Zh2t3XwXPrtj/qwNy7++wOvK3//58NZAH2wf3vp+2J72L4HtAR21J9GtgIeSZCkD2BAcamexCR0gANB7h3Inh2Vger1M5+9xsvOz54MK29Ps/IWNb387/ePlf5nuuv7bYTWwDWVSZWExVQHbMaCgvTALJ4reCPQKhRFAoUTY5piSpNYEoyUUTICoU3iBNgAIIAazGAwAFq4Jjb7goiTtTv7KcKoeFyDdAkBFHSqk20OfAEZttEL6XQXNgloow8M2lxxITIvL+OMz25qmcb0qrgDdHtgWErFga9ru5lWANBtaPsjTzmHOtsAzOxvG0t3dZnrmi1+cnvajP5LS6adp53se2sOd2J9FvhrNDro27qH+6irb2Brcr4Qtl5xzTuIxi7BsAD4HC3wtMVD0wTaq7ajZ+mB71LyKhzcja4Fi7bTa76FkAmS0JMDoCUCVRyV/zdyx0WABPChznPE3FqELpjEsRaL92tfSn/z6b6Ty5HQ6Ft6yMzebhpDARrSt5boWUm0VYMgGCXl6jtlCpgwCwjIVMUBSVcAxAwrPIC8a+fspF9sGwQTqADW2AFy+CrrmGXwOJ4q4gS04z6BGMgA7EAUQkRfvDbD0XtL1d0j85qunOAtuVyDTjI3zSvENlH0FnZAfkoF/LVcsIzIYQMjARL7Md4CxJxiAlqiju5eaadOTz0gv+/n/lNKxKNVGR6kgboB6yINDKS2jaGxQ30OVWlpCMTjCfWbZ8q6ArlYYAfZy27LKQHKBvJHB/vZI10AfbB/pN/AIPT8AhB5bSGUF+JqdDp271W3EtL7URZpsOG1FOgsjfrq3XlqiL7akOBh0l776lfSJ970vLd1ySxpeWkxbUHKVF+Bj68NpcX6ByxbT2NgI0mkXpgErAjT3Ao/KNK2+NNPqAkBKpSVMvFRmdTELC+WYQEs+CxALcARFpA1CwgUAi8EiJN242bJ5Ywbbgn9eq6FXgi4k41BGkW41pv3dANIAyd5ztUSQLxYolW4F5XDUYFPKzFsGbvM5yEjlUU3KOuBqE2JBEKyQBk+gPhnMEOOXyNjw1uPSndgOtzdtTdWTTkov+ck3p/TE068NM4WxkXNjPMHuN+pKSseZBsfEY8+tAC7l9nlhV0G+IWr6YNt7M0fLRx9sj5Y38TDno5DoDga2av0HQ1TMPTqDGt1ciQzgTdi6ptmF7uIXr02fvuIv0tSNN6QRAHWjUitghNyVygBSV9MvkCGAvQcCelY15BwVb0kPMgBwCOtWAEppLNA1gD7yhkS3kkfqKAMk4IySbEVhRjYFwOBfuceyhWRe4CD3RXmLOu6BtdfHlJwTHcA3gzv5AehrOTdBW5jnVonBBbAMAOa3hmEB8lFNUhlrHsa9gnEDczfk2dTk3naJOpWT1jxtuZ02DI2kpSWkcMtbH0uTCKQzPGJo65a0+Ywnpuf+6zek9GRAt1y6DHvki9PG8U0d6nKZaypQDVGWANv8xfcV4N6rZ9jeh7lF9R/3L9VAH2z/pRp6DJ8XLAogW1tMYW8AQNSEKkyqIj6AXl7se+7tpnv3p0/+4aVp3ze+lSYA381IvJ35GQCW8yKAJloomJpIvvKVYvTi4mKWHmu1LCHGzF5pELhTVON3WLYCWiEdIro5jQ9A1Ca2ADotADimIg2/AyRwwNh0gvvNkmwb0BEgxbGBHv0gKLrl8jIlLw9h6rsQ+ayiuGqhmBLA63Crmqy15+ahPEjA78YxoK7MU9jBBsgBruvqrxNAT14dpARB8tVhb8CLNLoMUGyarNV49vz+afRjG4PTXZSCgSJI9aG0HxO4xshwmh6ppSf9wLPTM1/zKugF3IatxM2bQPEKukcUkswa3BTk3WJY1MwuHmy5FY3729FUA32wPZrexhHMSwEuh0pyPcj6u1AQSRcIVEJXe2EJ4YoOLGVw6y3da/78z9PnPvTh9AS8qMYBp0HtYwGlDkAsAFZH6mludj74xZAmuSa4X0GX61pM0ZsAuaZVbgH48r+Ahha1Spri2BIHNP+SMAChQI9sWiVt3CLdQUC7yWdDaQ+QUcGmJj58d1GmKZEKwIOAaRdEUqFVSKKCklP5Nu66SqDGUuiQzzL5KyFlN5cX0tgwaZBXBx181ZB0SToC3eBcgfJqvE7wGr3MREsA1bz6zDyAAP4AaFhVUD65EK0dpC4azgzYRuBs20i+TY6pBKwMD6Ul3Xmpw2UGl7mBobSISVxjeCS94I1vSJt/9HnwuWPnwZXvKG3efJEDjeYWFtlHGMRHBxJF3QD7PthGPR9NWx9sj6a3cYTykoFWqKQPxjwzSzv+VgIqziuJhcTkdYCK0mtM0ysogFDcqGKKSFyT+7u3/u3H0xc//rE0f9ON6eQ6fl7zs6kMnbABUO0AQoJelUAuk3C09dGRmCrH9NqOz/MFpS4Ug1tVbb8eYT6rAEE/AVaBVka4jZTXCBADUAHHJe5vAULlkVH2kTS8eVM64bTT0ulnnZmGjz+eRPErU4rFqytiFgToUjalUyXzYlOKttxaI+gurM3uwjwPJW9y0tgG77kNr7Ybvpnuvu3mtOf2u1IZgBwjbzUQbojLdb6oaH/L/VIluid0BjPdYZn0bGsjyQ8xwOgp5vS/quTKphtw2PByb6kymObhuEfG4LahYVTgVYfKxGxgIED67VCOuxcWsF4YTcMnPyG98oILUjrzrMk0PLqJRFIHKTw7Zfj+LJcAL23jeydXYq5A3Nv87VZ8FudWpP415/+lwXo11f63+1sDfbC9vzX1MF9XdIhDPfZQnaEA0sBYOk9bvnBAaQpw4G+lIDNRfGlOoA2nYFDmhkHMkULzooWBCU3PdtPNt6dP/fH/SXd+6UtpDElvA7xjBROuEnuFTA6JjsFXApZ6TylJAmYlQFpAdfqvkCWXKO5WuKatCVMov0ppXmUboNQGPOakIQjessg1kwIZU+XxrVvTE554WjqefSMusLVjj2NavY18RsCXa9E6XQSo7gxgFSxFGnclzvVbzxohDgu21oiZ8ru703B/O8AkwjcuL12aiFSW9u5PUzfdkvay37XrRvbdaXlmOuphAxJryaAzlHWU7wbJKQHEFaVpwFRJXEpjUGlbqgKpuKYpmHgPQGrupjQbVgTmyOslWpDmlxz8KKcuvnPUxyI875k/8rz0lH/15pSOO3YgQTe0rFyei8MdfHAG3DAT8bVIt8RgZ8K5rJbMtuWlUhCa7uUreKbHe7sxFw7VxnKC/b8PtAb6YPtAa+xhuv6wwdZ+R8dpKXH1wFYZtiTYemJA6RIpCLvZRSTUIU4i0AK00AXzM124gHTXlX+f/uZ//580QUceQVIbV7rjui7Xq5DRddbpf1CFdFlNmlpqzAHbKh1d6qDDBQt4hsmjZt1XF6GM49yzhFTZRsptQ0nMIonOwG3WtmxKW089LZ31fRj+P+XslE464QpQg1CLnQkCwEiagkbN89NQ/bKu03+eSRYoUlawmY/Ald578lxsAO1a+JVWiE3U8TRnA1x6vy1UVxrBuhKIW63zQcydPGh7Wpi9Mt1xe7r+6s+lG7785TR3x52pAp0yhKVFBZqhzi11qnlpfi6ViRgm6LUYYEaGatQ/eaXclZhRaFGRFW6RB4BT6iFL94A2ICuANrC1LUMptGsjaQ/np4lA9sa3/7eUzjoDT7SN5yrdNgHuqtRMkX85btNUindWQXmCZnb2wPUOTpbXQdHPKLt15DXWX8+Sw3z1tyNTA32wPTL1eMRTORTY3l9pI7yfouMIMUqtPTChs9nhYtbJGZVfMIdQBgDC9L7ukGTgzEL66C9emMoocRpIcOOacgnCcJxVpdaQgrPUpHS0thO36cgeq5KMJl/ypx2dF7Q+wORrEa40Arl4E3zkAl5Rs5x70g88Kz37Va9M6USUQYLb8MgFXE8ELQshKmSAyNSAiJ/tSg1RmLcsiWnZENysNEJvs5w9tf0K4Aq2wbcCTlIZK5eHdOjzAC4pBqkJKx1pNWrMZJuUSx55cgqOQJESif6aa9POv/xIuuP6G9MGLinjijxiljlvuMcyn9aZ/PAA6S4xAMnjSjus5JOXkhVx2XnD7zVBjzz5Luc5v8DgNIC0fxMD3lNfeF76/p/+d5No8nYCuq9rAag6ZDDFwOKDVDXds+iQMT47NgcnyuuMxjQdfK1BxmQ2/vSkf9vIodpgTqj/94HWQB9sH2iNPUzXH6qh3x+wXX+v9xRa6+hElKHQn8zOTYJpRNbqIi3OL1w6f82X04d/8/fSpn1zaWDfJDP2LWlq/740ikJKG1EDzFQETznLXmbEO6fDAmNMi8WqkDABPqkCFD+hiwdcp1Ecdfh0f8pznp3OfN55KZ18okb816KNPzfA1BiywbnS+QVP8wsoNZlWNwHi4EVV4vkMwTIw0CeyebH3kJe19VDY2PYgJyS+QmHmbdl0KqfHE7gXZR5lLPmsCPwtBlPmQOUOFgGzUSdhc7zcOB/O99Jw7JhigNp9U/rcxz6a7vzW9amLsnAD0/oaNIO0g4pGpcmNo8PB2zYJeBODk1QKmXecCcWeswRMw8rkwYDoVSRb63CKQW+Zwa8Jbz5JvqqnnJRe/Yv/ES+07Zek0fpFywtL55dGRi9rDPC+yGrZuhFAHRSU1imXpmt65FnOoAusX66L1ykoc73XrW9H1lN/e/A10AfbB193R8WdB+sQAkoBLtltMwOsGS7AWrBtLM0R2YovRuW6d0/32x/4YPrMh/86bUEsOpZDNTX2IS1lMy7NwPQAC0lQ6S+2rBhSucO3kBw7ToUBiAaZW1YyRXE2C1otMI2e2L49fd8LX5C2nP1U4r/Cvdb0mEIa00lAabK3NXCqGGSlAyVVtfgCuUG4eXpcYQjCDJYOHwaiCegNKZBSUv7edfnjkMDhvatWClnKtU47gjtJSZOYqxAMkSx1duiJixyDaQU8ddIIytUQkj5vYf5izC4ubN5wY7rn69enqz/xd2nxttvTMVIB0/vTVhR8c/v2RAAeY/2qnFQJqE1ui+l/SLvLXTyjMUMjPaXgJucHawCykjH11QDYu9jbTjtLOXZL+v43/ng65sXPn0wbRjcZiWwBr79wEuG6qmAbEiuZpI5dmcLBySEq9t6rNOth0cBmHRysbcXJ/vagaqAPtg+q2o6emw7VIXQPdRvsSMTSIXugI3jITwKfIWWl5YX96YYbJ3b+4WXp3q98PU3QUce5pjq/nOp8n8fqoI6Z01KTaS+eTHpBhRcYD7arhkQUomU2f2pxsAE4T3N+CRJ4EeCtbp5I2wiu/YM//pqUnvq0SwDE7aHYqo3s1uxroFwLKXUZLXw1lEUZd40jq0RZRmln9sVRvbuE3ApA7LYikQEmxUDicSG42Io6Wl9XDhoF2EashGJDJFxyMOE8k3bqqodVVGnXTPQAV4wyTbHRFRk0H6sYAUwp0k27ZBF7YfGaxlWfPueqv/pI2rt7VxqmDJuolyEUZkMCNO/BwbGEJcUyYu784kKaGMUGF4sQVzGTyXDw0A9tqQ1fzgMHtYyAw52EK24TN3f/xFg640XPT095xYtTOv740xqV+u7BMuZpDgaiqXmkTIMObP5u55lAQRdYFjelbNtHUbbe4f7HEaiBPtgegUp8KJIogGM9QBTPOtRxz3uvJkl2mDbWAbp5uhUdqdpR8QMgLC6en27Yfemf/IdfSMchAY1i4tSBZ5VnHB6ugRFzKMSEGu5VEkYC1olA5Y5plUFw7VJjyssjlpG6FqAkFjHD2s9UdxFJdvs5T08//MafyIb5w9VJ7MKIqO0mVYBFAdKi5lBKa2azoDcIJKZ1U9CIHQjGMCPLBGS+XWyMYvUcM5z65jPxd62CZ21dHbLeQiLubUGHZIWacRqyDXAuswDsc7XgCE8yBiSn/2Y0K73MLwOCpKnL7Qim8s0z8LsW5u670wfe9e7UueWOVJucScfwfrYCspqKNdtcW7NewGf4cSkS0zTqmu+0Msx18AJh2UGdOVAszhB3d3xTupPnNbdtTaUnnZJe/svvwNV37AKomcuiRFqAMGopDdeqdfCXWMMBumxkLdNAmTaIcZNdwO1vR7YG+mB7ZOvziKV2uGA7qAaMzfB++tW76ZtVRuIdbCHRzs52p//xqrTzDy5LY9PzqY49Z43p+jCrzLbwdpoHkMtIjzVNluAaXRBREyVtcFUgOcUVrwex5BfMF3nODKg0jeJomunuM1/yyvS0l78Cr6eNk1jwbwrRFBBuAWSDTGXbmEDZyyump2KoJy0uIg0aoyBMmcy0xXDP4wX35HLlAgl8go+AKx9JGXvSqmn7yOLqAmSLz8K+NyiE4p5IVEiMCANgpGlAMyD1GnLRzeuVbE1H07aytq78C6cO8ui14bARijvM36g3PytI592Fxe0Di4u7IqFv3Zg+/0GiUP7z1WkzSW7gmhIzBumQiIpby/SJ9WyZwwnDMyXOhVDPdXC+m4fH0/TUYurWxlKLaGK36DBy2knpxy56WzaRU9E4OnaZViKuajysyZxZiiYhN8tfuPEVJScVbVUXVgpe1d+OTA30wfbI1OMRT+VQYBudnW0taKx/uHolV1qwQ2nTOoDCqSN4ytu1WBNrfr479XdXpo/+/v9M26ALNtLTVMS48GKwogBDM2gI6AakNwUzvZxUWpWQ1hZUChFy0TCAteENae/iclrE5rOxeTxtfdqZ6Uff8PqEcewlhAu8KJRdgn0AfjYPKyJhRTkoTgZKOr6AyzPVocvVrqyv5Z1R7FVpyysPBaReGXVwkGs853ZICTfO9igJ66tnAlVcn0GplwgfPiMkQTG4x3dGCoCb92Spl/MAptdYn2HZYH3u3dedue4r6Z/wymvfcnsq7dmXjtfzDg+21iCWH67qywOXdc/V0w2OdwaevVJ3TTTfF+Z1vGcDjbeaSLnktYHSbolZSeeYjekl7/wvmM4dn5pD9TQwvoXSsOAQoSN1Q/Z1tDQJNPO9gaxFHs23XncV8lm0wdXS9r8dTg30wfZwau8hvPdQYOsjC+lq/eOV0NzCNhTpJdgDDwkaAxxYJObs1OSld3/qn9KVf/D/pa1wglvsa4BleHiBfGWN6J2SO0U2E0pm7OMTG9Mc0u8U++iWbWmRjr7EczqA7X6+jxCT9UVveXMqfe/Tc/CU2uhlok3gj0odlV/kRYDUq0oeNqAznuVRf9HBe2UIsPK0YMc1hZH9WgBYC5grYMg9FvvwwNbnCvpsPRO6+JqrF0BaBf1iym2+1uYt4u76AkLC9Z1lk7h4HQ5gmgroPLIwf3laWnztLR/+SPryX388DU8upKEl4jJ0idvggAfnWybiWl79QnrDQOqK/VAMpNHQvhc6ZqADn14dTnPY+bZQeu7rLqWp0Vp607vflQbO/b4rCHbzusVWCYMPeGGi2VSr1K+ZD0djBxXeB/ntLUAfg0IfbOPVHbGtD7ZHrCofmYTWAk6RA9U+Hm81UKIoAbnYYhMN+czkhbd/9G/TlX/0v9NmOulxdLwSPO0yRvOjaMircKx7JqcAAkL/MT12KqmXmByfcQPU9XSgCBqYKd2D4qUFAN8Dd/iSt7wlnfiCF2aviAmCpYSEylw3MKk3zXfu6/Rb6ZbTYqp9XQsHtywVCqriG8o2sCjANqAzg63XrQKAx/MWddCTQE17LQAecM3KHff9sr4eBfniWfcFnR7YZhzNg9PavPQk8ChniMKu+sCMgQIFvrFF0BrezYC2WUiyaWmhm+6+J33oPb+bZq7/VjoeSmEDfG8Fq4QNQ6OsIDQXHHFtrM4swzCPWC7wDoaJsdDE5lYTOwe2GhHEZpF+u6Q7yaRifsux6RX/4T+m6rN+4No0sflcyCB4XwcBlaSoxyLIjnQC+euZgznw+r7vW+771lv/yP2vgT7Y3v+6OiqvXA8SRSaNVVBDeZNQcg10ls4HcC/96h/9r/SF938gHc/U8wTtOmeICQDXGZwlHU1b1nmDUwO8LQB2wE7HA4aQdpeIuepSLw1ohNuJllU68bhUPumE9PK3/WJKE+i8xjachvJrdxvJqmSQFrYeroTkGpKzkl48K3tJ5bwqQdHpAQqOckiEAgv0fFtT4z1cWwFVry62+4CtEjI3rwWLQ9XTAWms/FgDtOZopSBrMmRezZRYykf2gjbPeXBwoIoNsBW4Bw1su6ac4dgnAAAgAElEQVRAkjQlwjksES+iIuguzp1fqrIM+tx8d/4LV6dP/t4fpvJde1JlZjmNkvkJvOzm9UhDgWZMXRWgQ7wLI6LNEs9hbMOGiKymsrIkL86AucADpwhoMzs+nl78C7+YRn74hwYQbtPA6BgMhJFxlbYtBxkTrMmTg2HO99raz4f6fw+vBvpge3j195DdfShwuL/Shh1S/3w0K1jC7+t+/b3vS9dfeWUaBWA3k+ul6Zk0qo8+vb4OF2jEqWk688aNGyMq1wKS1TAdvMmSOPWR8QgDOA9QzhG7oLNlIj39pS9Mp74MMyM9qbZuQ/yl08INBmSSVgeu1tCETn/lgV07K0ufyrJ0ae7TFCncbMlmaPzt+D2MytTHwap31WZ4bR2tr69cT0ViprMKzgdL9T7nD4U1K6i/moqXhgALvRCOAvwtUXYvNZB4nPSzN5D4oeSu8K9cj5UtkcWQ+KEV8NS7eNDlhfbse+31H7wiXb/zqtS5e086jqA0Zcy+Wuya2g1Rfw0kWt2AN6AYm+Xd+b4MFemxbD2CwnN0Ik0zkN5JNLaX/sLPprEX7MgzDyiHeLgzgp7CD1sU8g5jDkmvyV1/O7I10AfbI1ufRyy19eBRJFyAbcFtFscLxZm/ZUMDE5aRXPft6+766N+ka/7sg2mCqegYElEVBY3XG9N1ABrB7xUBl44sYCxzbHhsA0LWEp6fRK7CTGgBpckc4Fx5wsnplW/7hZROYAmXLcZX5TzWCmWms8sY31dIM9brosPKCbq8TVh0ah2hJYEoELibvc1yvvVkEmwLKbLX0w8BbCtlPsj51RewHi0eINj2Eiowt0e99o6u0hqrzysA1zIIWpkSCXrXRIJ75lMums8lFJaDWC00MBPTQy0Uk1oSWD/a5+YAON2Fq69NH7300lTZvz9NkOYwCTZmp8NqxKA+SrMqzmIJHep0ibXetIv2UR0GSENIzvNrDyZ5U5tG06v/y4Wpfu45jLAbAF3Nv7SmUCGqVG7UMJR4XNs5VANcW+D+9wdUA32wfUDV9fBdbNNfD6hrn34oCdfjvFQ6LOZdk5Pdzhe+lC6/5OJ0DJLqmNwtnbuBLe0wVIFhFIdQXGWDfgC3NphmoR1GkZQWF1CVIP3MYqjfZIp6J6LOKQSz/qFfwDV0dPS0tGFsd5tzJU2JJGDZmz4TiUuetaWBP1PcwdDS0fGd+koXQCEEjXCA6JQBKK7rFVLPt2IrAG/lgF8AnQProDfA9C667z0PBGxz2qEo7AH6WrDNg8KhOM38nMKDL3O0uVSmFYGByGM2sIJewaSrCj8eUqZ1YgwJwRZpFANblnuf3pFuu/XK97/9v6by3XelCfj146q11JojGDumZ3UkXk3QnC04O6kjwWoD3MDKpKbHGmVoA54zukzjIrwPXv5Nv/JrBLF56rVpfOO5IHVw8Va8VG7oJ8NGe/WdHFDv/R8Pugb6YPugq+6hvTECqvCIsAhYgSCnqj6XXqGUaIfgb+j1+a00Fd/10W8ub5/920/u+tC7fyudAriNaSs7ux9rLDp2KKpIy2cgcW7agK0mS42rwwpNOxJTsw0/i1Q7Bx2wF0Xajrf8m3Tcy16CQejYQATvxjdficjLzaK0RQm73FgGhr1OuO1gBQybKIcYgp3P1Sa1t/5XrwrNi2WxixfgVjYEZG8T6ASt4jMOh8iYnx2fa+rI3znNuKS3PUCwJb0AzLBG8FnUbi8fJhiDml9UpK08I/+2DEU5Vt1fc3p68hX1YKCbKsRtm0GvpJOBUi8D5QD16PI3eqKVCXqjEivt39v9/B/8QbrlHz+dJuDPRwHYEV8VliDWZw6EkJ1LNO4YHqgTzY0g7ijU5lgPTm53GbG1tXEizU5sTi/9VQD3+BMuSRNbL9Ls1nZQdcljBuRlBuMq4S0PBrhR7l7lFmVcW/yoEst43xew/rLH3e8+2B6Vrzx3YAVULNeZeTMltR+oaFL0QOpx9dQG1gZlTHiiAyCxBoQSU0CHhc5Vn0l/9Vv/g44JbUBA7yrS0tgInl0ArlJtk46sUszwfSFlAdYbRkej4y5oQF8fh5+tp5nxenrZW89P5XOf4QKEp2Egvxs4CKAWaHK81Awk2SQq97JBwPKBhulb23lXO2sGuxzFbL00+1C/vAyyVA4PypLewUBk/bFDgZDprC/jweooVy3PE2wdAQFXNJS815nuXX//D+kf/vi9aePMTDqOU1WCjzN8hsfZIE4jbQbKBhTEKGCpJ5vhLevY3aronEP5uUhw8n0MnlPHHJve8ru/j+PDiWhA4doZGR0oy4Rr09IB+7IYdI3FEMMa5zlCPGTeqyMnlxxYzly24K1tomusOR7qt/RoSb8Ptkflm8ocprPKWKsAu8qugVDZUL3w1/NMM2nzRkR0+lnx/MIMsVbnd6U770wfftuFqXbvPhZiZAkXpqlKSQZNqTGV3Lt/T6ymINCOoFQxTGHLFW5NFwBehg+8F8+l9jFb0qt/7R04KBw3mcaHNy2r0II2KA0OofjJpkyZ6shgGxJgD3kG1L6bwf72gGtAEAt/Meq76qrGxkPseQSme+/pzl97dfrE//y9VL7nzrQRemiEJ0RENuq7gjuuy537GpRmpWt0zZVyUCHZRGqeh9OdJCbuvuHR9G9/+/cICHQM3Dvvi6WAFjEbqzPI0uzi/TWwanDMF2h9o2UMiP2erS7WFq0Ptmtr42Df+73hYLVyFBwTQ7OlVH5FIU0i5QRfyFzU8H9KvvJsen6BpPqPXp72TKX/80vvTN39BIDCNEhlxwIgawCXiJ5Fh9Om1iVqxlluRRtaO0+VkIeLSM37sDa4henk0PeemV79h++B2zt1ABuyy5r03q7Br6EWfKTYPkg+tK8P06benu1JTbG/PdgakHoA42JX8RUOEvpGW63btgyMPPfZV7zmHb+U7mQ5nbmtm1JzYjw1UUyW4N+XkXBrvMNBGob3GkvYiGEqwCpItINSFwyydWIVj0/Ppuv+/P8ySDPdwQ24Qzuq10ZpTjwIkO/xSoAsYSZjLqVnn2EgM7AqwRbSrVkT4N1XFZ0PtgYem/f1wfYofa/ReHuY5ZQ9s7GyfTR9pvxG37JzzGFjWQFQI4LX9PQ5n7r0j1Ll3r3YZurHMIuJEK6XKK2qdEC11LPEWzVuQgVeYhEuT5fPCi6ee2fncPMcSfvrtbTl+89JL7ro57E4wKQrtXd0xoYvaiAdK+EsANoqwA6YQ/Ks4DY5Xux9qfYwG5azCN66Eq5LoBuToiMJLn87Un9despZ1/773/8faXJ8Q7oFjn7GYEC9ZYHC3tbre+2nyIkyaawSQUyFMSTdMdrHV4i7e9vH/2oCI95rGjMzl/seA2wzlxEAm0GUl0y7cyYTsxkvsRmsKWZus73zh1n8x+LtfRrhKHyruXHTkmm98qCaUkkgOMXX+F/UU0o1hkGEgJ2FPkidHTd94M8v/dL7r0jDU5OALZYG3Bf9U4GWDjbE/S4oaIdttuH44N4qrGu1Z05vsC1pL5LwCc9+dnruW/6VPvUDiDmE/IPL0xYWS1CtSF1ptqsG3ahd9jSHa/Op9BV91Axmu1nL0d8eTA1Ix+Rl3LVSlqOvqDyjPsON2gZA0HFc/y5vf+ubr738138z1e+8N21kIBwCaOsMrssoJlVOGsjG9d7a8L4G+FnGYqTGoLsM6DqTmeMd38tg+6bfZhZz5lN5zaN5ugSmd0JMzcrUANJ4n1mqze969T1Hu/Rsbxzuv/v7vne7Sn87SmvAtq2GPjTYUAhZmZK14gasLrlqANNGDF0vT1+67tKdLMw4gi3tRhp+nZ5ZZq+QyChSbQ3liZSCCBkxYQ02AtBOLiynNvzdXdAKx3/fuem5//nC09Kpp8PhaXeLPI0HUhmIdRNyO2qtI7hMHAjpJqaTpizoBvr2m1VU2GFsKi0LMzlVVGG7jGSpq8SyMx242dZg+aLS058x8Pp3vDMtaGWgqRdWIgvYSYdXIO8qAuAwAxJoBV+VW/K4Ol1UUaBtYiTeRKziD/zqu1K67Q7Ctk2f38VFOIC9916jGKSz1pbbQ/6OnXai3sCb1l9zGFXwmLu13yuO2leKBEFH0MzKRQ2lD0Q0Lb5cNqWF3WQT4/bgaxfmz/nI7/weMWm7qa5jAc4JWvG0XTfMQDJ4FbkISjkCfy+iRIG7w+RoL6EVm/C3M3CxY2edkX7wwrdNcmJ3XjkBgC7VcUqAreOhsIDwfWij6ayxKizEnHvB2xVTVhtUX6o53EalFOvIhbMDUql7dqkeiJUyKgyUsqjl2gaW+W1tT6ecct4bfuWd6R6onv1IwUucLxHhy0hhug27lJFeYdriSi8s8TviLBDnIkEl1ecW0sj+mfRxJGTWVL/UK43b4ADqXwE0nm/b40UXJtJ5BtYTaaPImUZywC243MOticfS/X2wPVrfJp0KuI0GH3aZSpH+8Det3M5QGYZDWFzs/tXbfzl1br0zbUbCGPMCKAZdNkdHN9A5AWoBGY+lFjabdhylo3muLW/anPbQobvHH5de8e7/7vRxZ8JaIcupitOcgzKw6/rpVFYTtDD296oeZSDQ2hFVmpXZYzWIXl5zjvt/H2gNDACYXSw6pIB88cYUlqOnUYTEmmPSMsMY28jgWN2ZTj/9gn/739+Vmps2pcYo7tUxMDInwRLBd44TL04PrH+GhYLAWcLiRAlXL7RB0q7C5S/ddFNauOaLAvB2H9RhdHXAD8DlHXNjpJXj+zL5YeCNtAJ1EQb4Hi5oXmuD7W8H1EC/Ro7CBmHDbtAxDNYtwEnLNozED4iqNLEHuiYu2q7u4mf/OS19e1caw01zGEVJC/96p/llrAaWCQrjNgAShoqNTmFn6yIBLRI3da9Uwqnb06t+4zcw+xk+L42Mvq6BNOxS1y4T7qMGDGYjiNKJlFvsoBnslXbsZE5JdU3tfXJ+0Gv6YHsYLcuRFVDVntVaB+CkgMqxbjwoKhGvHRbbku+Ytcgwnr4sPfGJky//2Z9N8wSeaeBlNkdciwVmNVozdFiyHgI3KKQa7355AUUny9m72vEYrtkjAGWVlZT/9r0s7nDX7bt09a5yrEw7CLNa2p5DrKsxh0uxUywpimhgAqzWMvlw/9Uf/NX3wfbg9fKIHrXREgEqAnjnCHyY6mAfGYszYi/rkjYDSwvXELwgffC3fjdtwoj9GNw2O0wJR+BnXSNMd1ndOJU6dYYIJRudpEmnIA4YQMs6W0i2r/w1PInGx89Dc7bTpcbL3B+8nvcVrUMJVlyNWuG7f3vG6znuazZ4z+LuI1p1j5mH+7qszwN406hg32N+B+AwtABUgDayDorjE5sq3/v09ENvemOawZGhu2kitYzuxntfdGVfrjM928UQgNvlBQ8wKDcITl6nXYwhOZdYiPIbf3k5bsKz3dbs1Pld+NwSyjotWhxoGwvoCBx4bQ+9PSrd2U5uIL0W8ph5FUesIH2wPWJVeWQTWgZojTHqC4qlTLQoAEDLLrfaIP7p4vI5n/vj98U6VomlxmsAsOZgSi7aU9oRBpnaKaFqayl1sMT9KlAmAdrGFoD2595KMJnNLCE+vBPJlk6S7SiXiK/a1gqBfSXUYXSkXidfV1QhIKgF/f7hEuKz1/GObK08flILKdEaD8DN0m28AVDO99KCQVi2cUDOq58KJwQ5nm3bBra8YEf6nle/It0CX7+EpUGLgDem4SrJK0otOSlE3iEWhYwwOHjHVBnIq4sz6Rv/tDN1d91IW6teViZqXGN+drvKtRKAaxoZ85Fqe7zWgQOCsnh/O1gN9OvlYLXyCB+z75TC+oDJP9M8FWID9Cj7UkT377TP3/fpzxJ+71PpZDzBYmlszL2CIkCKKaEYkU+rIdUIvgNIP124uxZumfuRTpYINPP9r3lVqj73B5wnXqSJlx5kSjymYRQqzbxCuFoBzfsCrdJNsYXMxbWGDozA332wPaxWJI6tqd5IKzh86rVJ/WJDwm5QRK7j4lBQahIoyTs+OnAKi2xu/N6npb0qzFzJwTXjeMdSAoNQEmE1AJLbvuoArm7aZdoGDtvQCbPpg7/7uyndgXVCt7O9NlTZHWujSRcJ2BG5JkNH5Mk8xPvObbQPKtbFfbd+vdy3Th7xI74Ujck1tRo0Xqw9Su8v1cCzc13og0s/d8WH02bog+V9ewkiDa8GQBqHtozhbQOeTu5VycNlbhaxsWyiEJml0y0Rr3bbM74nnfZSgsr4oInxnfIDThGHXJARxVpZpQmnhNyCJsgX56PxPRQgq7uSk8vAEEk19vtC8yNerY+qDAR4BYD1IDfqO+wE4khmUOXuBTitDGD2oYGY5CPJ0mY2TQy86D/9fBo46aQ0j4kfsW4ibEYotJjpREwNg5ZjJoaCAEUqi6aTcA3UHtPR5e69ae+nrrK97Yq2h5mY0m1H+25nV2wB9O78LHbTCIohruhva2vAN9jfjrIakAJQ+6wxenQ6Zm6GvQszrurQabf8zcfT/O6b0whS6zBvcGluBi8wpopIwE1tY+mYdcx6jPrUpSOVsclsw9HNAqKzSMHP+7mfU/ohqMwwChRceVGsVemosQHQeUXY3GHWdppet+8BaW462VWXDkbPCw6vV5f9hvXgG1WmZHjl4QudlY3Wc5j/Aa+SS0Q7IK4ailDBVx4hwNnVinmP8rgC7gknXPBK3vW9egyObUSqhWbC9G8AiqoD8g6Q9hDXd1CyOUgrGVfYh5V2p2bS3//ZB1K6/jtQVku482YawgBGbgZEcoDVLLEw+/O49L57huK4tL/1aqDfJ47SplDRlAbgm8fKINw0WQ4ltpvu2PVPH/xLlr6mUyBX0FWQSJkqujqCc0Q7JR0hODY6q+ETDWM73+imWaSXf3PxxUqzF8AxEL2rE0FHNDwIkMVGt0zn0+FB64W1q8X66OAOV6RZwZVn2bEMToKypcInQaNCqde3Roi39aC3LktoKHlCDGVJkXcq0Brnt0JdD7kTWW0QSTNIHwC0zYs2II0zGpdFwszgsnTa9rTjX7+RuMTCXzmCjrdxhGnDxbZZIaLEy9LqpcGsyHZTxYNmBHfdzbzLMra3u6/5MpzF8gQjcF5huedRVoB7SLTkTIVpoTA7QHH2oGvgsXdjH2zvxzv97o3IKlzdDwyZJxLFMH+QLUuta6dgmffKl2r243NHCAatrWNoSqZmujd89ONpbG4ppnp0ArjZUo7yFJpm+TNDJyIE0/FKAOc0Czsuw8MaLvFZr3plShvHDZV4GaJsagHidtIweOf6CtKwbr0Cb15GPDePHO/gwCIU2ug4Kg70xF7zrIVSfzucGgi3gIMkYKQ12wXwClUkADqtd7Qc7NnPCpjRVuDoNRWUTnjCi1+GKzaxiV0cUvddnFg0JTMG8Txuv8bPLUzCpJO0lR6mfR3LdZ/8wAdTuvU2bQ93dIxzywyIcbvH0eZBNYaBddmNgTmAeN2nx3r7QQr4mD70mAXb9SC2+oIPBMdDvd0DAJaLbFCx9xp78Rl9gn3t9XlepUaeVhuiX9bOrzQ+ZRHuaXtArpPPlnws3221sYoBx1ReNOkMIXnOze5Id92ZvvyJv0vjLqoI4Jal0pjWdTXLYR6fg5bwFweGqiY/RoHChXMKYE3bn5DOeMOPo63eOtCFTujo1KD8Sv40eHeGakRTzb7CYyk6T5ZkV+tOEy+BIJt6FdNdrQ/0aCicHPK93t/fHkwN5LaleVWv/kkkFFFhD5b3UFSpOHWlDd+Ih31fviykTxl/lyaP6F1jE1e8Ce+wW2kL93DVkmBJ2zH0YouBdolZkO1Fvt4wcm2kak2+2jNT6SQk4aukE+bnrqy2G+e3WSK9S4SwoDdoexUD2yANlyJ+MYmreOOxupjL4a//zK1HADZvqwJHUa6wBz+kgPJgavPouecxC7aHW8UZYAqQtKln4S0AJnaax5pRevU8bSimfAIw1et+kE3pUydc1R2GSVQa7GgXS6cJ8xr7DNJKFffKNDN9Pi65V379Ix+Gp8UdF9OsOvcMcT6WmLGTkZmQLkBxPxcXlwHRwTRNh5gm+Myrf+5n6HT1SyD1YhkU2D3OygFarp7b7Uo+zfPB8+0lGUyjd9+nLlaS6H85rBpYGcyjjg9MKtqX0/le+1v/IN+P3mZDwd3SfjaOvy6dcnK4ZDfGN6YFLBTASNpbh3jGtWhDOi0o6bagnhx8q9h0j+IEUYXG2vXPVyeCIJuR3cbFDUKLdmXLi1HavdfmHbzFW9uzHoXFp0VYPwh73eNpO3SPetTXQiEFPNCCZDANW8Y1u5JjsWuD2saV8YCd0b5tTFBdHIO/Qm7s7VnD1cuHXJz6eqJylVBSDDIdHIyF+YzsRKNFoaXn1yKgacNn2VSkisVLFz59Vfrazk+m0uI0ug8lUMrXm7tFVHzA1l0+T16vxkoLDc1+oCG2PeXJRvEiIs2Gi1pYMOQlZ/JAUCy/46cdPDjZXsd5oDXXv/7oqAGBTVfdoBrcjHVcL5326l99R5qpV9IULbDGismq17oEIuqwNP0Qxzva7tL+Sthpu/hnwwhiSJ9b8Eb78K//FiE856805oLrn2leaHzlkAp06QV8FUnCTJEmNMjMqYTtrsv2uFfcg6JY9TQMKdaBfw3o+vWxisGPYbA9/IavxJi31WoqNK96ZTn1yZBuMyvAPYO19xUNJ1+ZJ0qRHmDciUX9SFdfctOSX+OzzJR/yIhegGk5RNSFbrrp5vSx//VHaaPh8VwmJ8LnaYrDs7jNR7tyglNH/2HYg6lPBwkGHnfr5rTj57E+2LwZ0VeNssG/vcaNbz1aZJWjtazrRKm4tr89nDUQdrAPcvPeBkshDcrb2s6wVEnjY7vTcO2S73vJi1mHbDzdwyDuAOvsyqBFTZe854sOMUX4zjqxN9oskd7F7nbu5jsAW2y8AdAhBmNnQy3aU9hV9+gAJe5MAfT6gpGL1vSLYmkdm3XB+Rdg+3hocY9ZsF15ibzYtd/vT/v1+hLDfIW9rKTIPtjbXRbE30qPKzugFd+9JsArG/a3GPjdlYTXbiE99hb4k6ttew2xaZu0wCZA3MKmsaqp1+T+a9Jdd6fLf/mXUw2/9WGO15iXeWvwugKs0ix8mf+kLOyiYfQOl6f1wWn/z3NSOvG4K5ButsvTRsCQNf04IJr74t7189X7U1n9a47KGqii3DLaWwUKaRY3bhfhTMNDF53xmtcwAB+bBqATDDYusI4ME66RKxpIwCpc2yjenNw0sVoYg+edgLetoT/4wp++X9E3DegSzmC/zCxNzleBocR9MYQzyHeNx4CWrYmlQ7NC++Z7p+dZGOAr92xTdF/bP6lJQfexCryPWbA9vB6QJb948T3Jb/1nqTfttgILgD3gmTREoJaGw7SMxhXcVTSsuANsY2E+qIJlNWWhSUZWgGdDlkhlY9TOzVycvvmtc97//74tleHLRpne1ZVk+fR5BhIfQKKQEnB34UUDzjR5yDLTwVnAtn7Syekpb34T6ZOTanm3CwLaMVpLisMZc2MKF3laxeDDEKoinf52+DVQ8P4PJqW415120GQFj/rIcGrwW4cI4iec9yM//hNplhnOMu1B5dgC9tia2WqZ0sDCZdjANmzSAa2FhVSiPY4yUF/3j/+U0i03R8xb7FZsxWBmXk1ZGiGkcbjkCAFKw7IH2NIi0DifhWVCJNw7kh/k38c+FD1mS1iMkPfVbuYpzlpFVxbo8vF4+TSh8Jxy9/vaqZDDcfxe3fwV2tVofrlKB+BjS4z+FYN7aAupqyT2i4NIxgYAcbVxXWs1w/G+No26Ksjq0TO/sD99+/oLP3zJu1N9z560jRxsEPRZvLGMtLpE/DypAgOKxzPhEiL2LflqIkEs0nHmWLL8KT/6I9iODV+Shuuvc6HGOVZiddOucm0JYvrX2z0fANzfHtU14OzIwDPaTTcAXB1kSji3QMjuHH/Wc9Myku0+LU/Gx9IssTaamv4BlFXdxGmbbcDV5c3HAOou0uw4WtxhXMXvvQ6726WFSwdp2zXAeZB23u7A73J/mxu7uozL2yoQRFuSWsiWEVon2Oa1B5eCaLvT7qTm3DN8rw76j+oXcJDMP2bB9iBlfUCHCrOtbM7UA9gCaHvWCIL0WtAqZuHaugrQSrQrOB1D+8oQHwN5DAhIBCU6hisqxPlbbuve9Vd/M/GRX35nat60O53IFC7BmQ0QEm+EgN9GVqyhsAh/eCVdQNZPo3pJQywq1aKBrj7hhHTyj71M04aLlgB7g9HowNBkmgder2qyeaT5KLhoI/tneeQBVVf/4oexBopgMod6pKBl9DY9Ad21bhFAWxrI2p5GRk57zdvehpUKdti0oyHWMfMabXZrnG8athEylqZJSgzr2mNDY22FdvjsFX+RWOHXNtkdXJy7uIYwMQpo1jSp4X8DncKittpsAm7YXAu8CguAbYguNjgP9/bO44S+esyCrZJa8Jpssc69L5aGFXhXvGx+F5xRBi6aqdOvuEkA6xH8CpDsHTgtd4VYp/16aXmdAWLcI85r7CgQaKxt509CGVN+wxs6rXMFclc6jeuROLBdRPEweQ2KsGvS9d/ufva3fydd9b/fm8pwtScRNnEQiXeUuKOjBAtpzhEaj38qxZyqGehW4KzW6Sgk2OAZrfpo2kMeXv7WfwdHV78gQB2S1wDgLTqGQUhiahd7IcLSBaIiqK8Qa3t1EBXR3462Glg7CzlU3hx8B+EGIg4CDV5LF2dFNAYsE+q70xlPSnVsr6dolgsMsJqBjeLSPc+yShWWRKrVRrgXbhZTLyXeGqA9tjifRvfsTX/3396R0mc+i05h6kJMEven+dmLB2nLrgwyyLVl1rITYMs+C2RVqu64HDsYjlMcEcY054XW4JkRJ5n+Eja+bDkUKP1nHZdVDDDrjx+q/Efj8dI73kHFPQY3MdMXs8p9ZQApgLcA44DDANgMPH4TeFsAT4mR3HNtQEspp3oAACAASURBVKrLMT2yNCI3VmygpffG8Exj5ZhHwvMLzGpBB1SQQANkgxPNnKxLiLuEVwlb2VJWgkGyNo6f/MQnjv/QJb+eBu6+N43hNjumDMCS0zoujBnbYIklbnhWBbfdJlYJDhg2VFbsTFN0kMHh0TTHFO5OnvTMH3tV2sbCjTgwvLzDMTJBdsmDDRiQdiE/sx0BTHrldlhSGh+MRu6gxAPyf37f/y3XSiTW3x7JGoiG6WaAb22wfSG0Zd5rWAx2WnedtGnjy2752tdSC6m1xvkOcW2r5RpR4kppnjaoVGEzCAUaFNSgCjTbC7zuNZ//fLrtuq+k0088kbWTas8FxOvlSnVnd25+B6E+d2vuNUAfUVlmTAajySnzdLUDJ1GtJIZQ3ikPebxYb63EPYvY9tr33A6gt7hvtT/H6UfV9phdXVcgUdNqa/FFhj2p4MHvAoQdTZ0mxVIhAE0cz9+YkqOVlQPgWJiqeJ1pCVprtsAUGlCXZw3YQIo27nFOdiFnpQoY3hm2kWKXFi5G7L0wgG9uNt368Y+nf/6bj6XlO+5MxxMCsTM1l7YyrZubnUwbiD3bXoBmgDsbxORmGAN0XRXmG0gYG1iWfGYGO8hqGhqbSPvhgu8ka6PnPC294J3/Ndw0kWCQxM1QbqQaIzBfDM102C8EL50LU0j7GqK76X0U9bW2PPnUd/27Pr3venH/5ENaA6GXYBrEZD6m8Q76rlI+oOBgwIx9e7ofeetb0/Cdd6YtSLDYc9MXUNHSLmwrBrVpuIov124klOc8dNYgUivRlNNyfRi6Cgl286a0RLt94U+8IY0985l2FGJv0PYaS9ekDWPnRiNSMFFJUQTI4aIlpGCjzC2HNEy8B/rOkuvnQUfIMze5PgSXNQD7aJZqfdGPWbAVPING6IGtXFEUuAe2gqbTasFBsHVu7ssUVLs0jiXOt7nfUXiI78qHxSqiWhkGWAay9MDXxhTHeY68p3xBq7Wd2HW7A2QXZokaMziZZqYmpr92XfrqVVelm75yHR5hODdg87iZqduQ+UEibrv6LSY3cl5NuVqUaLUIDL7E2mE00hEaPJKxPNvE6KZ019R8mqoMp8oTn5RehOE6pl7EyUMaVqpmQNH91k0FWlcXXiSUmlNMs085LHfBoznsuIXM2wfbqItH8xZxNZylYbHSYYcEixbbXZpzdd3tu9/3J7s+/yd/mo5j5jQGyOq2uwgA1qCwjG+8uDSbNhAprjE/Q5NC6qVNznJti+/zKHpb6AGA6LREW+uiTDv17KckbkhnPecH0oYnP1EFA66O9UnE400O9LZH6C1yAB7T7ozbrLW6QT1teU3afoAsaRbC0fr6L/rw+uNH++/HLNiCeAG2xcgIzPS+5+U9tAvUXCXsBwRgaIAAWyU6puddF9zj7QfIaneohOgILYADihGwYGF+B98vJnTSRXFxq3kxqt9zGLbRFNDIkRTm7rkjLbEK7uL0ZPrmtVenW77+9TTKc0d51oRG5wT93giYqvEd1AuH9IdojMvkp8n34QpTOBq/ZmElpIoSQUNm6Sh+75DHBSwUloY3pPmNm9LrLvovKf3A90OSsRKD8RJMi3zJ72YjHcuQB5khTcdsnaBsdtBwnMj1ZVGKQaQv2R7tXfjg+csmhsJYBlvFBRVRbcBNOWFQ6wNDdt5ya/f/vvVn0zHTLKm0uMA1tENlBSdjtKNKjSBG0AwbR+uYhREXQa8wlGgsox4DdxvdRIgormvH7I41PtIAoTunAOpBpOHtTzs7PXPH81J6wikp4WCTxgjtafuqD+2eWVzePjKCs4XAS9pVBI4S7TP6bQ9sLd1aibboz49GKfcxDbZrX4hgm6clKIqkDySK2JzdK/3GvMlNKVDJ1Kk/DSvA1dbhiLy8fA2q2nPC28tlxOGuWHQx3XPrren6r3417frOd9Li7ByScAkOjEao6yPJ2bAF0zrINUL6ZRfd4xlVnjkEgC/AuY66ZpSWBTzKRfyquNnO4xY5zFSr4LTmNd0iwcHhIVZPpRuhxNhrsJrNW9Pr/+vbUzrnHEYJ8js+miMzBdiSAZ4rT6tzRRjkcE3QBUq2PanXovszr7KgJJTrpw+21syjbxNsC6l2ZRBVtGDFXhWjLuRYsv3CsV77O79z5a0f+2Tahg6hixmYS90Jti1mZEN4lOlEszA9DU6O0ORxagBoF4x5y2yKs1kYofEMYN0wz/xp2faGFLtEH2pBZS1BEdyDnuF7nve89JxXEHnuhGOReEegusaD21PfMVjHSiJQOMdp8BnFZj92L4C2L9kede1ReLVZZdAIqTUAFsnOqXUojnpg65cAW0GX0Z4gLgDudhpijlIvgN1+R7r+i19M377uS2nqnrvxLqNhAn4lGiQwicaXHRA2/ihOM4AVUkQoBwBXn6XCgAbpyB0gzLNCokZiHQZY5wBcO0eNNaP8lNNy2uZUfw6ubAhaQaeEeRq5i/gtIw3vp0FObxhNP/luYtSeduoFmPVcxpQNUGVSZlslHyrrFGX05glKhbTNx2BhKVGArUgLGDfIqrf4XGurD7Y2jkfflr0BlRCdrWQrnCgF9JYS7jLtd8SFIgHRxc99oftXv/quNDE7mzYi1taUhmkEHcDSPuTMyrYoraCFt0BagbNdmoPKWu7GzMwVlWdYkTeN00ZbS6xtpgNNOc0gMAyOjKY2St5JZofLKOBqxx2XznzWs9OZL35RSscdcx4P2oG0cZEitYN9WfMzdR09vnYtuPr90bod9ZJtntLet3rvCwJCgzBRfDqFyqZdxchYAGyLRlPVPEWpVQlW5UCzCSUAwC4sXIpJS7rn6i+m/TffnG7bdVPaf++9qaHG39gEpF/HfGqA72XuHeLdl6QV5FkBZf3GZRu0VxVoOyrPADsVD0bm8pFqZ8PigV2OrIGdrY3I641DG1YC7pyvsZSN7pOLSBQ1qII5jk3T4BdGx9LM2Gh689tRhj3xdHgypAQafVtXYjJgTVhH7nLPBhkJO0fyLdDL4cUWjhF+snOtThHicB9sc7U8av86O4v3aoPLA238DnJehwLam9QUQArddfFd7//AhVf/+V+kyvQUgemZdcHusnIO7QV+33CdUGMGGFdB5grNgq5JbwREl5nN1XGaaXSW4HDRMwDQZZ4T/Q2zRVdzmIJSq0B3darD6V5AujQxgU14JT3xWc9M5zz/R9PgU840Kp32YDvSSH3nMjM3pdtQXvdA1/5cbJkmsclmYSpLFbZ3W75bPr4eJw7EE/rxSpKk3sNxP9fft/Lgw/jykIFtUQnFOLRaCQfmdm0B157xes+tGkAXlef0CPDyZXNDUSkOeF4v7jltkm9aggeq66FFhS4ClgZ4CeFWKbaxsIMfOznRTVNQAnfekXZ96cvp64Ds9K23pzHjdOoaS6OV3QwQ5VMA1L62Z54dWY61vnhIdsdVgnVUNu8F+Ju5bNidy5jLYCOyMamQKGl4TtsM5USdBfoMZUeB2kTpqmGVsMz3WfZJpn/LE+Np4ITj0yve+tOp/NSnnodad2cXzgyzxbCRbBJDUbOwnLdcH0U9r9TXarvNWer9BatXtoeiwR3wsP6Ph6QGikFW4UNvLekjX7ctIvoNP7Qhd5Y14BLny0s70tTClbd+6K/TVR/4UJogSPhm1F5DrXmMCnDfZUYVC0Lq4ksH0wssW8XmNMNah7YXEmiv0WgqGTNJjvl0+7G/6SohEKhvWEbynccBZxLgP/4ZT0vPfuVLU/2sJ0EvbLokVZF0eW6L/AVok9Sy9J2CBEBcr2Cpg6SswaWTswBIcqXeI1q+nnDR58iYhe9VgPURfYFzZjXM4Hpb4A0FWem1a86tXvXgvz3iYGvWCyAoPj1WgDMWTb3xrEABJDdfbFzDn7Dn41xv+utL1dVQhxbT6DAi+wIGmV4b2R6C9Hzm95fSwFJj1w3pC1d+Mn3js59JZUbbrYBcjRfaxc5PbtXn+DIE0XjmAS8m/zgAxKQq4rB5soHRzGxdwX/m/Otiu/KCAfIw4mYbgoedW5hHEDA0I3QECRsZbKg+FgFDZrhskYHDNcSaWzelN7zr15iCbZOj3dEequ0cVEJ2LTHAtqUSowe2kXh/e1zVQAbb3EmyS2wuvsdDIBCEpQcQGhRKSvYLgxzvne3e9tEr06c/+IFUn7wzjQ8spy0jG5BcYWLpExugAwTMJQBQix37Zm69GWztIwZjKrYuDT33D00qaZNmgA5qn2jpyahHI4A6ybkZ8rGXAeC4M89IL/nXb07lU7BkOO54wy4rXrOqSGtHqTa00xjNRHlGqHL2p917VqdEwejn1TCx0fIGIKDf6f2WqTQOBpjqIuwVAnHu3yv9mguLMlmKtf09Ej3M7SED2yJf6zMc5extuVpWwdbDB4BX77cvtDiep7d5dA5FlpvSHvwoQQcZDPGw4rPMdLyko4HmT5plzc5dzlT/tenm29Lfv++P054bdmHqAgjjFTMI9zpM4xmi9qkQXgONQYDmxShdSgno9aIEG5xRjI55qm6+AlDNo+d9gWapx4V6vmiQa8vmUuPhtSbPy8i9jLKihhWCjX8OrbA2jnp+3QMAN4dRhJHqMivjPutlL09nv+mN16ba0LkxpMu74ZoJagcXXXbhRh7ozKJ4Xq6k/t/HUw3YDn3/EY+Az2iX7KEYFX1ov8YyUHEa65wtYE+rl9fsYjfduCtdcfG7UvseAJezBkbaRFusA1zzc9MxO1QZ5gwyg5o6ixwQqaLESNoNlWPRCqNnxPMVIiIGLn1N08ZJFiodGmWNPGZ1szxDiwZXEZmjz5ZOOCm94qd+KqWnn4FXxdC1uMDtxt/8dY3l1nZCg9BXNuw2GJMKbjyEw3copDIKuBhxIVwS04h4Our47DxTNiaDnLX9V2WxSwBF3nq9VGEtFIo9BfGRbDOPKNjm15CLUwBD0TA8WjQYX17B12QwwwMFcKrIUfIZ7w8uyXW0rEgo1czDGjx53yRLf8+lL//1x9Ke679NXM7bUnvfvnQMWtKKXjFM12u8sRJAuQTwCqx1zFzmcT8UbPMSMTQahsOsZOt5lQmwvVGy4ISF2aAaOFWEKwzpdu0I03t7rp47Qh5c+0l7WUPbLXNskYDNNZResyojUJbN0yjnUU5sePKT0gve9KZUehKNb3hEn8joMOHrHg2OeuC3E6tl0hwCoFf4rCPZYvppPSpqwDaXB/kMd6FDsMkKSGwhGEDKzmF94HpktUJEtM9otrhvX/fGD30offGTO1PznnsiRocmix3tbrGcmQMoTSxzqjrISLGxc7t9dRD7Wt3SbfoFdVGYYnY1TUTIGEBQsK2K8eOAbhO9hIriDYSAvAuLnBlcLY996hnph3/ix1J6MnqJ0VF0Extp+/DGSsg49CgESfWVFLxYWUJpWu9PshGbpo8OJm5K8w4+DgJ2msgboKquJcdzzn01X70qocfNR2B7yMBWUHwg230BKb+oGGEElRhyMvczoJtqAWDaqDhSy+doN+iwuwQH1WUkvO6ru75+1WfT5/7u7+CguAd7QdjOtIHGtYzploosX0QJsHX6HXnumYA1dERgs8qLsoRUq8ToZf4tlEv8DiDmn15mjt4mk8vEC/RBjpZKyL16EZT1cBuC3hBwC0k0GiCS7hxS7iSDyDI2i89Ea3vGS16K+y20gXY47rLESLMqvaIgkVGnh/BWKsKipx35BmOq/e3oroEMtAdKtHaRANqiX9o0UJrKHoSEijTYZh+GjirZeAxGMznVXd69O139sb9Nuz/9mTS4fzKdgr5g7u670tYxYicoqepyLpCTnH1VYHWa3qShhy0Q6Ue8Ea4JgJdG683kSlBmzuB0f9dhSIsbr5uHJy6hAF6kLy/Q1ycBw2c8/7x0xutZQ++kEy/B8+HCtHETUhXUoOSx3RJ7czV6i9gJuxQQT+IfM10HAUE/yimMZAVwHojsIWvBNvd1r3soBJVHFGwtVFEJBzZfqsLWES/R+QG7F4OncioxZeBzYX4WbT0jFwb8OFTvAGSvTJMwQLfekd53yXtSeWY+7FlHfeGLc2kz/FCbQMpGKDKgTEmrAigITVqausTGtISEfS4ZyxGw8rs0fyE5Cvg90I88F4CrpGu2Yo6VpyqOD3K3NriVwccRmM32PMi0ad/0TNp83LFpCol2iTRKSOt7DepxzLb0VOwSn/7mNxpln4bFtI18DsCbmb4RnMKkzIZmknzKwRnUWTfICG2XHxXP62+PnxoowNYSR9vj07YQ7aHXVjzXEgDpZ2UdYPit5CdIiWDIjCAmwKUzz9R0N91zb/rk7/1+2nfDDanObHKIc0MIC2V5X8DMmeFavUZ0CwWM6L9snM9gC/ihHLMvSXtF3viu4OH5ip2bPmk3UdyZ9VlYLhif+R7A/YVv+cl03POfjxnExvMI1Lsz8kd7byKRV7DVxR7CThjlsOwV0lwdZBR8DgTcGCTYs3LbjHrkUQa2vroDt1yItccKsF13IT+zgsnRLoMtQzAVxwAYmKvX3zKuqzUCWYQ0OzdN5KHFicWrP58+efkVafKG3em4gaFUh4SXJ6rYytCiluGodIVVU+/UXZAVOOVGAyDlt3hijLIhiRZ8T85hSK29RuMImaftWcr1uBKmx1TY6QFWTJ+0ZsiNnWsogPpSXWmb5GFwfDzdzUAww7OHtm1OU1gjvOFnfiaNPvmpGH+jIJCPXZrfjp/57hiApBuQOipaL/AElWiuzluBQwvhP2rPxpNH8/vWbf/I46EGir5VDLgrplJFGwGkyuHRA6ZiV26bLdOf1HuEySISooP7kPEP5HPb7e3Y5O7Scudb//Cp9KkPf4SVQ5qpjjQ8xHXDpKe2RDqiosRrnIWQO4wyJ9DSedmifzjzE6htw9IB9hv6XaEsNt6ywZ+8bxg6bHIO+12cIGboY9MIRGOnnpJe9p9/SRtdYjNIK+DKztWamIkXgngF2iMGGgWnolNYGVlDSF+RUjBHnszAbB2trafI8BHcHjLJdi3Y5hf/3RU2B0phGWzleAa7EN28ICVBX5AANlgMVTOTl4M8r93zz59J1370Y4DsjYYrTFup6Ik2QCbvqaIsNPNIpCQyPFILXtSh03QNQyc4uWqC03+DyYRpF/xUcDk9oBRo413FOOjtvlzyxU8bReyesuHQyrg1NyxfoPnlU0CWM9JOsUs0/L0stNdhurQA3/zsF70gnXz22Wn4KWehENhwAQEQLgsRXopA11xiIsg1GU2/hvQrJ5w5MKMp6YLLulMMEhXceW0/dJe+ZHsEO8qjMakY4NdkPASJnszjR2sJ80LB1A7ghTSddrRRAddDfEeCrfpDYpV2y+wxJEdWfO6mm29KuzGXvOnLX0l7oRu6zNKGuGwDbbYKgOPpGzoP22wEvzFN26bdoSe0hJBCn2tJA5KursDLBCkvKd1q9UA7H2E2N4uQtExnq2/cjNdkI8zFnv6CF6SnvQaPtJPwSJsYH2jQB6pQCw3KVVJRbN87AGzJvw+PDGgWV2iCrCRrRLDNeRSzjvT2kIGt05P8FpUYLZ/d/8At4hDwTwmzytTe3+2eK60rHwiuFaRO7WW9ckhHBIGy2dwOsbNr5ppr0uc/+tF025e/lLYBTHWm3zUkynG4nwYRtaK+ApiL8csvwqeeY07Fs4eXI2pE7CINo8w3GLG1TZRPMuam0etb8kgUwKm74BbUriMw70h+qkP+9X6RA3MMd/XRJqNzeNyQ7Sb3NchLCz6pjQvk1pNPTSecflo65cyz08QZGnSPofgaVSwGXLENNlC4G5n1xYflQkjT2VyscNDIF+VGUjQWj+X6z2f7fx9/NSBfGQJMbv7Rjpy52UbdlOBc6dag4muv0delsN6yzymQxHld1wXEaN1sCgFGBGs0ruHcOWlyOrW+9Z30jc9fnW4l/kcDR6Aa6buszih9Y5wZ2uLkvjSuJxrWNnWUv8ETK5UgrSoslOGLpfNs25qJNZjlyeMqqbYA5ZHRDayoPhXgXBqDO9aT8tgt6aU/c34qYzKWtmyBmyBf0glgSpl+ZGjJFcnWsmuMTn6iHPSnItxoAbZyuG5d83WEt4ccbH3BOfe9QgQC8u56oCr0ydMYo1VPKQHOyjZCkQPoHKt7jqH9JDRhftm+3DvuPOfDv/mbae6m29IGAHNYpwBWEx0CATeowYfLNaC2YB+NJbb8/GzoTFI8S2uAJUZJn6klQBNpNq5Ek6rKSg8WlVdGQIqGSxoN7tPOUHdFOSXXdmrB/TbI7BIjuHaNQ5yrDY2GtUSTqVoHLem2U05KZ537jLTpKTSKTRM9JRd5qlQvABl3E1lmZ4xKNCADPCtTC+ghYdjefT6ZkAsrtLqR2d4QZoNa6VwxiGWQztf0/z6+aoB2T4HDVr0QZTlg8wrTJ87ZGzR7Mpj3AYCsdOvNHNfpIXqNN9gAe7M50SskUn67XHlMOzWvbLbOR/y8NDwyb705/cOf/mnaj5t7BVBu7N3D0k4IoFgYGD+3DuANqQyGk5VOUGgxJsjQ8HBaxqZX65xh7HAn8WgbRlns8xTKxhBKFonzrBAzSQcpHXNMuoX++P+88fXpSa98OUA7ckWqD7/OFYVdoqfZc8aQxTCAuYHQY8YcFMqq9UEsa6UgFv2cLWDjyALuQwy2+QWbbacwecuf/m1HDSD6M1I5EqvZlONpGDuAUamBQ0JNgLHQSyjApvZfed2f/Vm6/tNXpRKKsGGmC2O0IJVgI0w/2piOOM3vwMsswzk5TShAqADZqEOfLSXBy3D64mw9k/RwoQCv7aeFZNrFQsElPrpIo/PQES2jHCntsi/x0vwc3bYtnf60p6Yzn/G9acgAG4Kl87EKiiy1q+XStfARu2k9O2ldl8VLNDoYy9XEgzXdUhsAsOuMEbSGUmxvmpUXdqRMgin3Cr62bbdcFjuWB/y0A+QTPevJfGH/7+OsBnIDydKtIJLbRAbbDCH2P+nLsLvtnc+ztF5fBXhWz6sA8zoutgHSbMPNPQQZfisV2EAjHS1lPA/g7t8XZpf7WLfsQ+99bxoHFMtwvhtJhzA0qcLvwqJB3UkNC4e5eZTaCDedRfqnA4OUnlI0W0MXeQOO8yDpuGWlYDzJ5sGPu+ino6efnl75SxdpJoY429rRxbNSE0lyj4CE5Q99zZSyUJL7jVl2e0yArQXxJQdnGXWWwdYALE7HdRTQ/9pRUtAFAaPwHYMHAzwYv7qfv3T15y791Ac/mGZ2fScN4Yt9PMFbOnBEVRIPl1qlQT2nAEmNmgchjGIqHSJhruAAXhqI2RBoG4yUJS0U+NcKKsFsEqSDEbBRwoaXZUK0d+2opML2duv2U9IpZz0FKfXkVD/5CQzTmzhOsylVLqEwOynMdh6wmwaHlEpZ2p3tpLd7gMUXJaxaWArEIo/yUZErPvUv5tNRW6CXN3b0deARcLNknqVczbysPYtkO89N0HRIDYPDANtoikq21mOua6/ob4+vGihopADT3mY/XPXIzO2nOG/fVKK1NdpuskkU1wQY0zfYbU3RxgRcgC7oLa+0H3PI3yFMi8n0oQHcfuOH2+xMd5bVHb551VXp1muvSXVWhRiljSOzhkJtQIWYOyCtGSbzW/TCS2l80zjhShYCcNV9uBJwDb2Ls9BRaIWpfXMI0/SZCbhcctdCyfyDb3xt2vKjP4jFwth5UA47l6QoasRlIK/zcMl1+Fwc97navOX85QVbLW+vz0TnWlN5uRSH9fchk2yj00eGV4FlbU7lZDJ7Cm8id6r5liji8i8y6YpvC4sXp6mpC7/ywcvTlz/2N2kzUuhGTRIIZDzElL3KCwjlEJREnWk73iU8ItMSAlXwMTYIWkwYtfSA1pFNl9ZBgE3j/z2seDBIsO0WAKwzQxtCfj+5O+ZJT0ynnXVmOoPpP5YBkvChrAKVr4UrODcPDORVUdgwWzFQ9FqdLdvyB/45EpMXmQ1aZawAgTRgfvQhN2ZDvFeul7PWe60K9RB0gbJ6aG97Cj2biI/jMcWUJzoWe+5gucwDNMA+2K5tcY+f7xkEc3nDQ6pX9GiKdq01VdGDljgm2HqNWxnhqKfuiP4TMy1arsfst9lDsmjr6CI47hzU5q8gYJC5eDD9tTM/t31weHg34evOj1ndN785ce3HPpG+/k9XIeXiRESf2+jsFrrBGCRaQZR7FgstlNs+u6r1kGZg0AOWYJHIYiqEh7FSiBi9g7U0Q99ZBqiXNgyn73v9q9KJL3uxupBJaIVNBOZFt6IyPAtb9p2MTPZDM6sCWyV4phIeCp3HQwq2+bX1JFoKIf4UL7AwhtY0K7gfpVhftct5O21YXrwmXXfdOe97z2+nOmHatgI2LTxZtiFlamLSwvNFiVTDaKMRhRkULSakY6XdjPSxqmwAHQ3Gteyt1xjFkIA1v9pH2kNbtrDKaIewheVU27wlvfrf/7uUnoTSql6/hMR2EFke19hi2pSVYCVsZAXraFk9KVIp1cheBpUJTZm8kO1RtsRHCraWklNxm598tCOWgQrBHPrRocHNzzAT52LLFg0kplbeTyP05t6VxWdxrDBhKa7ofz5+aiCDbYbRwn40t/seR9lrNwXorgXcopacLQYsy3H2rvdI9K34ZO5EPyrW9POQcFy0P3UioUhGQKq6HA5AGa7l9u9GYzvE6y6PXfUbv5Fu/PwXYuXeMdfnM06uHaNnRbQMpVhGSe6zBNs61Jz6HYFEayBFtiZ5qRiICVlLeyWte6ZHh9L4WU9OO376p1M6bft5mF3sdKbaYgYcFkNK66QRDg/RGQVb8YHSrQUqC3aEtocMbAupK15CvKystCnwIVYeCFDS64vTugmKQkq4d97a/cz//APWqP9Kau6dTNsI49bZz1LKEOa8KLhZ/Kgh2OtMJxagDBYA3gkMn5eZtkiuOw0BZePBGZQy2DqF0ia1Id8Dt7rkC8IFsLTt2PTKn7ogpWPhXDdNXIt27dywCND+yySDyAAAIABJREFU1vi2WhDIJyO56v0SW0a8lc+uIEj2iwDdA0je2haGxwzPC7nAqRdlDNvhaKy8XOqgy4isqKoVRAVLBcfeDo1AydZGpoNFVoqJtp5TardxF92EFEFz67ao91zna2WYnO3+38dDDeS+ZkltD+vbhW0jgDMukCII7MoH/XQmOEj75bqYDdqPFGZMqRCa+Fq0Ua8vC1ymatt0pz0bapEV8kIvMoR1jbO28Jp0dijnO73/GjiCc9L+/ekvfuVdaenW29IE946ADeUObsT0uSr28mGLKxWAgNRC+g1wpG9UEI6W6WNl+sw0CvI6fXZosEpcXeKkcGwf4D7CKsIv/iVscrdtvSKNjb/OddAWyIfWTyRCcYqCK6D1gNYqCAA+sttDC7ZOP1bym4GhAAOxSrCZn51JI8RljdiIc3MXN3btuvCv/+jS1PnON1NtaiptJNhwZ5aIQ7ysMbT809jRGgPWKfkiJiQGb9EAW6sBhdo6UbHmMIKuOj6G9McUHOlWk5dlgGqJRrCIRFvZujU9+8UvSVuf+vSUzjwTznVgN4kRfFsOVxM0R0saDG0CKnXFzNAZu1N/0a5cyS+kJSVAur4r6Qq5WXnXgq8Kl1o2X6aQKAAHMrPplDAI4GYNKQo7FQtcpdTsSqROcYJd0lYxeoVCs6LtKj0T/JpgW3QaUogOZWb72+OwBnqCTa/zrYeNPBBnbJW3LABZQTY6rP2WCPhxuwKQbZa2mwf3nHYM9gJ1/AsDR67xd5aeswYhWjv/NO0CHFUwk5ozUR2LDLo/oDBDv4dMvTB97RvpY3/yZ+me73wrbUYHYaCoyjKAHTdhX45+xS0U21ggmQd3+5wzXMvRXcoWTW1+3wsmLGoitmFD+leuIn766ZMIU1AK5icPJuFKHwXP/bOQbotAUmuCmEX6qxv1EGAQvXPN8eJ7IQitnjok2BYJr7yYQ3XcAARB7cDEFc+V7FqMHFmaE1wNLwgi5iETIGPsQzIl3jCaSwKsffFL6a9///dThXW5yoxgGxmZKkuMaNjGjRFDYBpX2ybXuixME57Htedd9qXbNDI8irHmAvasJo9R9QAgzbx9mX0fz5kG0MpQBBtOPQUHghenTd//LLxS6hdgo4XzQJ5aOO3XVM1gNiWnG2xF+dfUJl+tUDOdK7a4Zm2VF3xQvi/XzYEvK0scRboHvMc4eN+Xtf559007A67H+0Bb1Ozj9fPQ7edgNVK0TaHHtnjf9nNgegf2iwzYka4AHI25kK4FpfzEwPLed89qObSMPXxNqxyfKg+wZ3/3RhRpn/3A+9MQAaOOlV7E8mgzEo+xd7VICJ0OApfyihRdDkSCRIxku4yJaBnzskYFQU7uF2uFKTBnL0D95l95Z0rf+/RJlN2bOvzu6uaruRk6E1f5VeKOGaiuv3DAbhlPcv5VJioIB3+9hl7xWMTNdZAqcFLJa10fPiTY5uTX/s0jVowea4bKVVBefRkeM/aAPteOOq5EIMGtM10Lc64goQHEMOlwCr3/XiIMfSR95v3vT6cwXRhl1NHg2RCJdUhtl/FW8nMUK0F+T1OhuvTp2dKcxWgaHldt/jKgO7x5I7wMK4CidWxAJwi03c2b0wQrz77gp/99SqeeGhrKEEMZ4ZiDUEk6Cjj16YEn352yrAdHa2M9+K7/XdRYEY/3vvV4f48crLPc33v71/Vr4JGrAftNoTOwf+Q+kvGjEEjaCkuBCc70aOsAqcq0WO58GkXawuKln3j3u9IdX7wmnch1YzgzVfEsGwTMKgDtbCx7nqN+VVjNZAgAdmVeZ39NvC11JDKo0wBo2YBamAeI72Lq+3wcILa95EVX4Jb2uqAJC9AmnzpP1QDqkMdbDAAcE2zDoy5mjxlsrdmQqHs46Ee4x4dUL/pb6AcAtgWIrAecAmxD3A6JNr/U4rqVT4Bw2QqBV5Eo15sqJFwu0GA5s9nk/rbbu594z3vSIt4nIwbPJrLQllh7K/OVcjsRp5UKFxDLjD4LjEKCrQBs0cLjhIrXfGsWzrbhyyAQ+CIUw9nPfU4658degR/1cUqyvsxLoAtYDZfK4CXIlTqaOWmy8uRcdfGrGCwjRuj+1q+Bfg08kBr4bmBbpKOc1QBglQr1El2x1RWjFMDU7O3Z00033Zze9/ZfSRME9x/B7Ivl19M4Tk6uICH4VdSHQFHIdoR9OqCrkCc2zWOzW8faqIPgNIlNfnd8Y7qH48/5idelJ7z+xycRXy9K4xsua8LfGnhfjBFoTTPywxbBxAVbBcQYRDyalf0CbrGJV8XMMx+7r7B0UMlWAC1GIG9Zfchq4gKnyho3ry+uyUe4yy8kojteeGsIzLKhkN7hDTbFcjR33pk++p7fSZ3bbgdoWR0BQB4CXOsAacvgGJEE4CdAQ3gvGuibKb/l1T7Wpb4rKLju3jeVSlRqCe+T/Ui6lWO2pO0/9Jx05g//YBo488k4F1SuhSS6DGtpKIMK6yHx4mpjjlVRuUUZnAIIuKHjpFB9sI2q6W/9GnjANbDWGmatZLuaED0bSTZc4gVXwK0k6IZ9uX0e8GgubydoyY505z2Xful970t3X3ddat17TxoGpGvihH2VWa9BmRTIlFSDg+XWEh25jofoFDSF2GFgqPqGjeleZtaz2Mx/z2t+LJ32ZoLwD5Uv6tTrOwewVDBAVATxR1gb0NRSCrSX4YwSGedCFciBVQU1F63QJ4euqkOCraKzm8F1DwTSnJgaxwy2GcG9JnOzgVbYzgKy2Io2jbwF2BqDtg2nimpLQvya9J3d51zxS29PdZRgNYyW66RXpaL1BNOiQJ9ojZlr+DlX5WDgcF1aeRhD5gUcHfShdt2tOUINVjZtTpMMM1OkfTqeXN/zguen4acS0OUkoma5vhKVqRF0SxAnc0Pl7P6nljWmBkVNBrCbfxVSxXBz6Mrrn+nXQL8GDlUDhWR38H6kVYJ9zZVJXIBVsKw58yxwxU+V5sxi6fzns+Lppbd97GPpmr/4cKrNTKYxsGEYwraD4CZFqUSrmVhNd15Cqw53c3zqlsptlM4h6mliyXp+C2DL7Si/f+SnfjId86IX4vzAYqkEsInA4jxSDrfB8g/GuhYa1gubhX6qANsYTII2COjrbfct9yHBNgyZue27gW0Ak9NwL+xp10NS5L/EtacbSJ8a6LcxQtY1L83MdJc+d3X683e9O20mdNtWKqom6c11UgxdQLqgJ/xUqhVkTV8wd7Sad+164g4sED9hCQl3H+VqYPr1E299a6o8C8XXKAFd0N7Dy0RNWTkuVGewGdMUeCso66wYpzFWZrYAiYIE+vqtoEhW6q//pV8D/Rq4nzXw3cG2cEZS1yXw+rsIKu53F5fMYRi5QOsfKMYAlptv7X7wbb+Yxoiv0N2zN504DriiUK8ZsEYAV6nO7JX11MN2f6kLN4ywpuGQeqSG9u9YP91Lp58i4t6z3/SG9P+z9x4Adh3V/f+87atVWxXL3ZKMcQDTLAMBAthGwjGQgAEJAgEMBJkQIME/sIQpoYXIlAB/WiQCOAklSAFswDTJxmAwzcKAaSZIuHdJllar7fv+38+57/t29vqtJCPLXmBHenvvnTtz5kz7zrlnZs4s/CsZ5m+fdpYkuXUs+aTfc2g7WNCi5QjFoZF8rRd65+JLvpY/gSzPADWuvmMPcKnrB4oiawi2vBqbjawhdg2U0FfEewFfAYbFYFRAMwDLUo8C4ZlcjNNbAEssBO3uqd7xjUvSt87/zzR7l0671bbbLulmqhp52DrbJEvrTcocOlgKGmBFrO+TrmbmNJ09rwXP7PIYZuWB1Am7VcA3i49Hn3FGeuAzdHTG/Hk6lbNjtSxXxCAwwH7odo1P8E4Bcupsm9bZCtBZ1hX+8Ko/IcjXBgw8wvxaFNh4BzDnrvzsd43ilmlNPU+VwB9rCVjqG78sSv2s1n+KdeOaJBc4Fk4qPH1NxiYIJq3BOhxAi+jD5DUW/wb3bBfwdn/nff9fuk3mHedo2y/2FqYpTIcEt55+4YrmfKqy/gVttsZzhE+HjEuBWTHRrnD9wo8eXbdL/XjaS1+a5p1+OmtKT0pds7aydr/CFn2BZTtgCw/ohmsCKH07hLOaI6852AIbRf8fL91OCLYuJOsnxijXwFYMxA6SGiAxeUX6YQgYPwmx7Khqw6wQa+l6dlZv/PJX0mUf/+80c1dPbLvtEMiGgWIt5epnplHiO2tIY0JME1RcqRwU1x3SqQygktC1V2nsYHPBgvnp6Rrl0jHH6DQD2YDtmrFuVIA5rIJs0UoDwBRLPxhJVh3GOlzeY9+W8osBg3q07tkFqCyiN2oEmGVwLT/XK6ABUNfLcOpmqgT+yEtgX2BL9lmbznrX2Lwj4YfNP3qKTQyVEU16q4sP63RHjM8U6CZ9rtQGlYH+K6RHXHLrl76aNq77WDpc/ba9p0cnsugrWsLd7j09qVUgyhcsxqm6tD4fLAHMWzV5FvpdAeSwsGS7sGWnJN3nvOENKZ245CxJeMztpH6BGHBQgG0Bnp7TATdYJEbfByMIV4BtsWLhboEtRHKw9X5qCLNZL3BEOlPQ3Z8AsU4/QKuIydKtNnZ3IDLu2FHdufHi9NUPfSTN1axitwKPSloFrFtraM2aXET3Qcn70ELCbdOyL8wv7ty5W8fIz0gj2uBwh3ZZ9ck60MLHPTo9YsWztK322LNUguvY+4zxYD4/+AyJ9XdyLoxi5rAYaRguaqu8Ii8UFnlkcoxFHrjCcHjcjnNlcC0/O3AjoC7TmnqeKoE/1hLI27/7SKO+4nC+jsmCfL6Dsaw0QJBjESn9WYBJYGyo9PZf0Xf5D5Zs+uh/pOq116XD1XVnSn04qLmhPdqUwdc2Jm1YxtnfVzP0hC87NfUOQMZM4+0SzO6QGvLF7/iXlI47XkJb17p+JdGinavIiqPCFYFV4NJurctl9xk2HIK3kHYt2Y6d1hu4U5v3ch03lGwDbGsTROg7x4CIaKw405IL/WCiuSYVsii4TZJpv6TYYYx4a8RoRXy87Zbq4FVXpYve9b7ULtsG8xSvU8gHiyEFK0iMbICugHZQuWOHCafZtmn9HNIp5g4HNXF2q6ThIdmCfcrKl6SZWm2Q5nVr+NGpuOKxTScfYA8GY439mnHs1AwkzpkGbKkswBW9Ctei8ln6VYDtUA1sece5SgXsBpm6KzeY8rMDToHt+HKbevrTKoEDBVvHBylYihkqAHVMtg2zDAsDOzGb1Sc7C1f+eMuF73pn6rjjtjSD49EltmlPU9io7mrSDlM2ZWp+B/VkrIjSY0W7PIcUfwi9roS3a4RB1SOOTC94x7/K6NQRZ+kU33WBsfocHsbKjrDJ62qJz6GYdbAVXyHZiq9W1oqRXE2/m9f6xGALUBJJUmIBtsWeKAMWC5Ax/juMDVlsBuhTnQMY0Zeg9GYJR9rZs33nxd/s/uJ735/mSz87RyA6Xe/6tfSqhaNdmO9TCcYqBoEtnw0URqyXk38LyzEEsjv0frs+JZqPOTo97TVnp/TA+x+bOlu3xjleKog27Bgouap0Bc1s5aUSglbN1XQtPBlkDZKeWYydY3pPgUZhxoBjAlPXqRKYKoG7UwJ1sCz1obF+N55aWTgpJuiLdfTItfRbjkpv0TFZzaAunRQQ1Rd0GtQZfTfdsOWz565OzTfckI7Q0VDD229P09mwMMC2e53YILUEW/DbtP6+f0iTbergYBYHBPQIN3bpi7hXKxVmHHdcOu2Nb5KNlHnHasJHdqhFgw0TEgzBQZITifgybsL+ibAFduKQhH2AbQHDjUoxUCl7odEF27NAGP9QPrOJgJn74owtmTvTygBWL2jFwRoWJPdd8aPuL31QqgNZVp+pDM1EgS3bBrNma42rSAGOoTcVLZZuDDGbKJxEfdDRPiPt0rKuWzXLdpven/DU09PT3vG2lB58fEVbxrb2S6eLkrsa0i86WUYsMQxd6RCijhGb9aOCSS+WeeEVL1F4F9nnET8Atk3vwyxdhJlyUyUwVQK/TwnQfxr1oeJL864UHdbx/PXpkNFHEcjUN6NzMxWk7tsHRnEY6uGHnvfsd52Xuh7x8PQbfWVj+6TSymkqmlCPOPr014Q6Gx2wRcLBlpzcu0snwbRLoOyUemCWcKr3V1enn37k37WrdTtWyRaDH5x5qCAS7DRhJqDF/Lb5tW46+GwgzYZ/zTUEWwoEqz11g7o1ICKjAVh6Do1IDDesSpBH5EjiJCdxDmgh8i23pwve8950iPYZd8nObJt0I6wsmDl7to662BnA2KI02EwGHQzFVJnBonBUiruYU5Otyp7589JfvPSF6f4veUFKh8/V8gzpZgFEgWyHVu1i3IIPfkwexvY7ScWwE5UKtVgnrF9sBan9WK4B2OpXHNtDmNpopUpET9OooYwV29TdVAlMlcA9WwK1fhr9FRQohB8QAdUgxsTjFBZe0LfVlTFp0inD/Jgm1Qqk1emIw5ad/uY3pdmPfXS6WsardoJHnTrbTxLugJaXDg33pemztMJJq6MqAl6Otpo+c1Ya0e6ymRLw5gtTumQY69rvfS/t/OYlbCFeL/sCrIBQolrDK13tCOv6lX6OD1ZRUh4eTMqSOu8aqhECbHkrN2YPs8Bl629j0S9wL8absehTYRpQ4jnHvFz1s+rHV5+tVQc70xwpQrtZ3yrzh5I/A5yZDWzFT6XFsjeMZXNeUBxtLI/dEvd7Omem4QWHpL/8+xen9kc8RCbS5kiJK/2KJOyWJm18kMK7XZ8HDAqwQR1ghq0JfS+7UmprRwJEqRmQN9xYPupejF7KcBRgPeN8GjjO1HWqBKZK4O6UgMGoDDp+Lgsz+Y6zeBdSokQ6vqZr80KF4MQrdUyMRulV34B2g0p1idlVPusr2FfYsb36ubPPSU033JTaNCE/Q3gzj5VOWjo2LNsFzcKR3VoFNU3GrUZlJYwDXTmRt62rPfVIl7uL993z0vLVr03poScUx6Vr04NO6kktOrW7VZNlhSTHmYPgRDFJBn+xrTcKykAyVmoF8pRKkWAcUon+ksKJyBQA+dZLJFtm+Fg90CLJEp1tGJIA9W7dVv38h9elBXo8VHqSLpZQqABQbCNdtjV3Sg2iZVwalfZURKFJIqyis9BiQHre3e2V1DNPpycsmJme9ubXpfaTH705HTqvggFwqV9irS0jXZfOKcLqF2u6UD+E+kaFwMGLw6HyKEZKwBXplYMYi1/x+UF26g5Jt5ZXeLG+N0bY0i+Pxn0+ko0f1SjaA/mVU5p6niqBP7wSyEE1B15/WY71kbG+5lwyb+P3bK2PTVQ46RqHZHRqaFg7xdDBatloRV+1lbbpSd4r05zDK89817tT5X4L04Amv5pmd6XtvTt1nI7s4Y5IUpWg2Akw7tGOVVmsaR1sisNfhyQ4si+gs02K0l3b03+//9/0eb0tDjIYUbw24VxrzayqzafCjrEkhFRwxBkoXRuCrcPUIyEZ2olYGLOW7KhFFVrLps0I6G4Hpd/o6a1+60MfTEPXXpvadD5Yh0YPzhZCh4o9VkYUtuB6QbO37GGTFon4TpHZpi17g0celc5c8w6ZQ3tIJU5JQCYWuLdIeuYYjCFtyxsV7RH9WDdXHNzIRlwNAuh/YyQcAzryUSixx19LZRHA6XDld1PPUyUwVQL3RQmoHwf+1IC21pdbtSsMu9asgoqNVAh66uit02etC6Fy3vzK08/V2tkjD0+363mPcKFPUjIYBP50arkXyzsR3Fh3z1LVmKgvxGUtT5W6YMf2dMna/9ASs91LsEA4KlDHDXH8lgS4Ql8rtWWNu/HS+l2h9a4+iogndtkR8pAQY0SKvCo3YhwjDW3y5H0T6yM4bL63b8sdn/9cuv2bm9L8ndvSjBroYSBcEWTsW6YWZeSbjQsYz2YibEZ7V1wHpTa4Q2qB/ulzU9cJS9IZb3xbSouPowTFCMa8ZWaxqokwpc1yszgIUoXLyQmjTIxhlELPLNcqDqajtMd+LB9hrUGxbk9RxRK/eiE1EPknllgphzFXlnz9nKf/+92PT2fqaaoE/pBKYPxXXsH5uL6iPlesyC/6abFUqrZuNT7L5Zh8V6RYKMqaVoFhgUXsCtW3sCQjzCvylc3iqVA5cPiZ7KkM81m+4Mhjn/H6N6WBBYemkTkL0g5N9ozKLgqQ1SO1ZrOk4j2jUi1oImpUEivqzTbZvu1U3JkC1/kKf/u3L097Lv425yFWWzhNRm5UQD8gaBqJZVdiM+aJJEyKVzAx1hE0cA3BlkJBV8uPeC64+nYx+TGaNIlqOyt9MYV29W/Txv/673SYKM5m0bB+hb4XIki2PsoFZlRo0n8Msf1WGxUohAEtKh48ZEF60qtehUV1WYtRgenTAPNoHI8cx8vEp0TtcwLpNSqj2GZRBr1yXuN9rYJ9HQPBcuip56kSmCqBe7sEygLO3tIHbAuxUMIgwFsD4tiYhOA1U3ZROnXI5FFHHfucc1+fbpNfv2wh7BHutHfN1HzaNO2J6I3Ts0Y0Iz6s/QHsNKtqi/80rXRq0uqEmQKp2br+7/s+KJsM16eKABdFcexEJR04YIWEMI+JvPjCl7O2o8x/Q7AlUEh+ihzKX/1ikwPIq0TI54D0tSG17u5ZiSX1T771LWkBFrt0VA1iujZwxAqE4vwi7EQGO/VP9XapC9issEszbr3aHbbnsAXpOe97Z2GpizW6yoF1NIUNBoyNF34U7JSbKoGpEvjTLYEA1wlxQMIbC2KBnI62rekB96+88A3npm1atzUsrNlx5x6tl5W5AAlzzZKEKwLbFn0hj8r+NpPu/dqdBrT1aZnYAm2iapWq4sJ3vgf82px0WsxI4JpwERUpdm+9yklAjDkA4XlDvW1DsK1LidQl3/lgeKB2AXJBG6taWOva3bP2mx/+cJotRod3SH0giRQX210VPNbdhmICx2hUjAocWbFLJIdmz02tixan50lHW9ViZClTaquGi7B5ofqeqwG4RnjqMlUCUyXwJ1oCORYUAhprY5ngF0axMJbVAyct2fDoZy5PvVqBMKQJelSXBZ7IfoIm99ulGrB93SbNkrEyarqk31uvvzYdog1Y/ddcm+748kVLhNJL9c0tHC92ooFxAYsgrIC3wCbdS0Atu4Zg60CxOQCQjaMeCheivsCuA31qf//K67/21XSTjiKeLsSfr3VoVTHOYW5wgJoB0RrwLta01mgIdEe075ijKnqkPnjKK6U6WHBEpXLEkZVhqQYYlbw1rszw1PNUCUyVwFQJ+KvXJVEWvsAg7GgH0LLEoKV9xbHPXJFmHv+A1NelE7VnaGkp5gaEYyGlihC7X3fIvnabABmMG9Jk/lyFnaE5oe49g+mitR9N6ZabN0q6XcwRBgXMSUBEp4A6lRVQQt/Yd9DANQTbuo62FmFMXC+Oj8Gob3Pv7qXp5lvXfv0Tn0jzBMpdsofQiQ5VEivQiuqBI2ZGI2EAu8jQiBQag5hHlAi/XWbPlp/zGu0KOyF0tAPKPMu7mjh4Df6ZZaz9yoWaS7wN8jXlNVUCUyXwR14CjfDBWeaEayyK4UYEJiGHzplXOeWcVWnX9K50i1Y0DcmMImuY2rTztVcHEoxiEUx4xVmGYVNXE/CC6TQii2Ks1T1U+HbZx/6DlVdbMGrOxHzhBFYIsgHchTBqPvJrQ7AlgJdAxWJ/tMjWBmiNWgtrarfv3Hih1rLN2NWf5gjRpwk8+yXdtgvuWRo2KGl4QLoQALcagFugvWA69UrDfItIPk97mdODHrCMzQqjGhnatQusHVuW6HZDAT4GuDnT5VEtfzd1P1UCUyUwVQItOl+QCfU9vVp1IEm1uUs7yViGcMjcyopVr0398+emHn1Z98ps64hWUw0LXAckNE6fPSuwj41WnJXY3yNb2sKlNoF3i47YueF7P0jp17+VQrd/TRjCCb2xIih+7EvgubaLtVwLDcG2MK5QGFgI0Vi/wtCCdl+QwODg0us2fjPdfsVP01Ey6l3RnuIhGaThiAsS54IcW+w2k+JZ4wrWCoYkpbLebaeYX/qC56e2k5awTGMTJ2o2ydBMv2xXktNmjjtnvVvNWbLOpVnfT0m45Sqdep4qgT/NEsgxAYtegOA0TYj1axdZOBS5spvbuuTEs0786ydrl6rW9Gv5qfY2pBYm7BVnQGtpmeJqRi0gwXW6/GPtLbte9dV+mJadblijify+PaswxsXSg6pAeSTUFsXhthNoEeozV3epnSFB5GisYdBOCxYEy2xh6CX69qxMv92y8bL//nQ6WmvcKho52HqLvqNfRmPiKGEMgkstgCjOagZOPWB3RuvMGWmbVhkseOSJ6YhnnaGcdBWmvqTnYP0sB7dhwDEm1lhLKzemwhjPYv4JcV9IuqQJb5FHjWTeoOENG+Y2V4M4L2XeG6lK7lIhd9OjnFZelnsrrzIvjZIth8lXiYTFthjtC5fn1X5l3ngmXvl9o7TLdMthymVrfuxvXsvxpp7/8EtgrO619V8rnZq0hAvA7BCohgSqU1q0DUzHZbWvWyxb2E1HHyVLX9NTdcZsyXbCHpaQCVQ79ZU+JAFyWKoGjG0h6TYrng59SU07dBzPTbek4Z/8QrRFnFUMwKKwD6UC7UviaX0lVd7WG0q2FDtmH2K5lgCWfsD+47TzzsXaG7f2R59dn6bpKIpOnYDbpIW+AM2gri1a+mUAYpfFIDstRAWj4u3ds9O1svg1OH9OesIb34A2+ljUB7FxQeVQGDjUZFqhPZj0NU/F0pH5hX4Huw415svAkRc4GeO50c+ZzsHq9y0I8+J0eIZPnAcEh8nTdZ7K73I+DI4O6/wSJ46VZ/t2zeX5tF8j2vbj2uh9nj73pjvRPe9zfriHT6QXhIEp98deArR1rTDgK1tSJ4CJHQPMsobBqraODU9btVqmW9vTjcIx7YMVxk2X4Ct72FIXzNSaXNbiMonWK7sLCIySOeP079lqW2vf9nZ6lSyoAAAgAElEQVRswUjBy0G0EjAUDxFjQOtyaWvlPszzBGAb2CwQle0CViMgRnP8eGvL1j3f+nbaot8cRe6WQpmTbyuSVmM3hwzADEkpTaMGrKe16XhxGW5o0tq1G6WAHjhkbnr+W96kniKa7Z1bOVY8XCwr0w8JV4XC7950+9vBc54sycZIVgMx/HA52OxPPsoVsz9x9jdMTtsgloNl+f3+lAVxDKo5gOd094c/wvNzmvsDsvtDlzDQpT5ynjwoss1zyv2xlwDbaQWuwpJhAeWw1tMyfxQOoWjGzBXp0EM3POH5z0+9OpG3KnVCX29/HKMzq0tnGGKlUJItAmEz6gZZNcTGS6eAGzME8wXC1+uYL7ALibdTWMg+qzYESG5qLm/TDcEWnQN2D1Aws3EBe46pR5YZdu6sXn7BBalbgNrK0eKyuINRB/YV224sM3/YPmOGD3m1KnXATuV4m4D4VOlp08KF2rc8T8jM+jfkcqQg0a9JNDECFT51hg/GTQ4yZfp7e+ewYTBdIIukVJxpVIAsfgbdMt2Jnl0h+wN0E9Eo++eVbFBzvvYnvb2VAfHJI4OqaZv3fPAp8+TnRqDayG+i+GX/RuVG/djfPBIv/+oo05l6/uMpAfAUN8KqqJg1EtDKkx1ffK1zKIJO4V5xzBNPSe1HHZnu0OoC7RrQsq9in8Du3btDoPBkWahFFbe/T4sANPk/U2qDyy+4UIa3bpXo2xu7hMHyAUm6E305NQRbmAzA1SwduyTSiAwwtDVtuu6Cz6U7f3N1ms5R4IwWknyLTDEpVoBMSDrKzI7tO6UwxmSZbNPKPNnsBz0kHX7aU3QwY7ds04grgFaRwWYm34rFB4WEG/cNFgUXxXfP/8074/5QJzwAS2cmv1z9SW1JLwc23vOcf25HGReF1/CTY198GEgmupaB1fxB1wNFGaRcDjmImk6ZH8d1/nnvPLpsynHKz43KfaL0ynH39UwePOiV6+nuDob7Smvq/eQrAaRa9lMBcAEn41iUL6oELT1Ns2ectfwfX572zOpKA9M746DH3dLXdml+CRu4rO5qkfA4LJUo62q7ZHdhRHYVOkZ0DJhMyF71la9hVVy2E/bEUjBO8cVIjl3ePxuCbdiWFO6NSA/bBuoO963UWWLLr/j6V3SCpVJXYpgb47O/SUYcWmQEgRUIHIWD7pIOM1M62h3aujukxcND2rjwjDe+WZxO1zIvzfqFxRxUBuhSkH6Vi9hpViuc2kaIceVzDz8Y6BqR3ds7gwGd2Z3Y4GVaBlw/58CXg4nvc9Dhfl/Sl8PnV4NpDqrlvOVp5+Fz/pynPGyZjp/zcsrzYrAmnBtbTsNlh185LxOlVfbP4/ld7udBgPTzMuH57qp5ymlPPU/+EmBHAJsVsIPCt3P8BGXF5ipO9ZW6dVBf5LNmrEuLjkrTjj063aj1taPsMFOsPgFtm9bh8lEPDrYLnEGoQa1WmKaJNs45a9nTm666+BIZ4WJ3gBw7apXeLhkgb9R/GoKti7JVa9WKTcJ71m656MJUuXNb6hLXbdIU98p6+YDWng1iPUeZGpRagYRaNUnG/uA90tFWNal2vRhgm1xhMb1r0xCnU5IhxcFmbuhnvbRM2WHHWWG9y1wc3OtEnb0R4OYFiN6P5z4MEkvK5Z7PB+4HVYnEx8/AY9Bx5ydXjdLAn3iNQMq8OkyZdz/nYOd0cgnU78v08pI2b2UeHYc8Or+5rprB1mVjPk23XB55Pia6nyiPOa+N7q3m8Due+cEzNKfcn0IJCI8kG7ZK8OTXrK9swJZTYSqSDmPQ5ct9WseGp7/u/2l1woLUI3Rt06YHjkFHJcCEWYd2oAG4sZ2XXbJx4OFwmqkVCm1anXDt5y5g8QCdVv6jOqVnuvp9gQl5+2W1Q+0TfnzhYwsmDDns6rlCW9TSd794UWqVgQaMNaBaoEN1SnHcrEkuDlyMRhz6V0nUmCLTzN4e6W2PftRJ6ZinnqYRZKZEClk5b5umRs/ESAFGhRqhABgm4tAeYLzmYLscRHLQId2JgCbnqZ9yUKft0BnzhN+2bdua66+/vrpr167FXvZG+BxsLfFasisDahnYcl7K5QEt/4iXS3JOJ8+Xw+IH6ACKuUSOv2fqqcucN/OVNxzySBuwlEieiMcPIMY1AjX8CFt2jcKWw5SfG5Wfeb3uuuuqt8sanQc+Jm/hlV+jci7Tnnr+Qy+BwkxA5CJ0CsXPk+/gTIvUnCMMvDOmrUiHHZKO03E6d0hY6pHlrzYJiu1q3zFIy2gNc0sc24VEzMd9B8KUVi207epJv/z2t7B5qwQkQEroHBXgss8g2jSYVhvbW1gdhuIXI7qImdGh5IclnKBarS6+/tLvpQ4dG4F1c6TaJs3UDbPUC1Nko8TUpgTsRCoDw5JkK7ITyUmVtyrRFc94Wkrd0wW0xXo0lMgtSo8GH+bQxCKTdxxlzhqIsnYlCusgODr805/+9KpAMtYEG7AoXID0/ve/f1qxYkU64YQT0tFHH62zLgvJFXC1Q4l+0UUXVT/4wQ/GMhHOWJPbwiD0ute9Lj3+8Y+v0MlNE3B6z3veU90hK2lve9vbKvAA6PEjjCfaPv7xj1cf8YhHkLZM9hbHBRnIoM393/7t31af+9znptNOO60CXXh58pOfrNOFtCZa0jb84Hq01bBbahwNAjEwGPw/97nPbZg9e/YKA/PSpUurvINfrvDClTjTp09Pp5xyCvQpl4oleXgmPvz89V//tZYoFqM5PAByxOVKGAMdvF1wwQXLZsyYsQm+OYCPvNioPGWPP2lzfdrTnpae+MQnpj/7sz+rQMt1ZcA2SOf1Bz//8i//kh74wAemF73oRZF/HP7OH8/wBR3ygT+OZ/tzb3CGL/IDDavKIsKUm5Ql0MSaL0wEAClSdQJ4bNaK5ax6h+ZyUF/ZAGiYpdWfR/ztc9OWb34vjdzZk3p3bk/t0S7UZ7TSAGwbFAjPkK2EYakP2tTWZ+srnmW7v/vNr/RnqwTK6dWWud2V4Vo/itNiUPoCukpPuAc3zCoXy73CXixiMsZnJEanW2/v/tYXvpRmCdGbtbEBPQhnjwmvpV9u14qwQdnV1WmWSnhIojXGwfu0Be42Ac9Dn/rkNO1hD1VjHryiohMXYqVZHAyptJgfA/FJPtyYtBODUN3f7+/5K+Dw6le/GjCNDknHB8zo+J/5zGfS+973vgDQf//3f6+q41bc2QwkZ511VoD1Oeeck04//XQZi5fNTHVKxa2+8Y1vTIsXL66uW7cuwBC6dN7jjz8+/c///E8dTEgLYKRTE/dWzW5u2LAhXXbZZUmgGx2bDg6oEI4wAM7NN9+cHvrQh9YlS3++A/KHHnpoFJal1zxfAGccvDlz5gr48iCi5/Sc5zwnPepRj4p04BVgBIR+9KMfpf/6r/9K8PWgBz0o8mTpmHTgHToA25//+Z/XQfpOGfXwYJKDmsoxgBb6vGfweeELX5ge9rCHpa4u7ehRmZDuD3/4w7R+/fr06U9/OjEYMEBR9qSHo7xpvyEg6GcANtiTT+rV70gLR3lShgbQPC70SRvahKeNcO+Bg3cG+CA25SZvCQjTANgxjAFzCvxhyVMIQgLbfi0A0Im757V1dq164orl6fuf+KQOiOmUiVjUBc2yu61BWrZu27RQt6dnd5qtXbNJX/mcGNPaNJjmC4A/99GPpmd+4P2ScHtXtsycvS4kZv2K+S8tQQywjaIC2r0iAIZqSHfbLdVrv3NZGpW4XBGozpCuFXmpR8dFtHUJlKSXbcdGJOvRaPSi0Sf0HxQIt86blx6+4pkS0bsknekTNcBdGcXyrsJXdEX5TFKhyK6J2vcW0NIh6YxHHnlkkhQZQGnJh8704Ac/OMD3wx/+cPXss89On/3sZ6OD0unohH/3d39XBTA++clPbpgzZ84KOjr+gNmZZ55ZARze9KY3pTVr1lTf8IY3hISKmzt3brrtttu0im7nGgHBaoCNdOnkAM2WLbJxoftamPWHHHJISJ8GEBqIAHk7z0cddVQFwOA9PCO9HnfcceRJ9oAKKQ6wIA6gBI/m08CEP2EBRsri2GOPDYnbYMr7Y445hq+AdOWVV1ZXrVoVg8mzn/3skHAJG41WUgDhNJhUPIDgZyAm7+aBq6VU/CVhxxfEiSeeGGlDl3KmDiT1phtvvLH6D//wD0kDWAAucQhjmgZbrtAmTeoCvswLdHlHeTHwEZ/6zHkkPuniDMAGc8J5cCKugTsCT7lJVwI+GTwX4swkWDMqgbBJW3cB3RadBiMrYauFuKvnP+JR1W3/8Qmd3C3HqitdOHKnqsMQOtXfm4Z15pnaEEeRcbBsk47X6d+9M915g4he/X8y5XjiOumupBMe+wKOjVvCPmki9PlO4qHUCMyMF2qFcfnBxk2pWzNx7WqIzdJd9Eoh3CnRGjk4zu3RyNEcYjbHP2oWTyJrr7bxnvSXf5nSMUfTutdr43HYgKBTh9M9GQZ8AVrP0hlo7w2pFjYAN0AGsPInMSBAR6Mz6VM3vexlLzsWvr/85S9X3cG+//3vV6+++upQFQCG0KIj4vhsp7MLeCovf/nL0ze/KRsSt9++HfrQecADHrAM+gL6VdAD8AkPL0h6mzZtSn//938foKx7zSwWztIeYSVldiPV4gAO6JA+V0tihCNf+NM4yJfzSJrwYLD0AEJ4nAEafuHJfg95yEMqqC5Qm+BIDzDCGYigm4MSzzjSxvHMz/zdcsstoVeFJ8JAD37Ir+8XLFhQ0aCVvv3tb6ff/e53oa7IacVD5gzmhPNgBvACuPBGOk4LPigf8ko8/AnHM1fe+wo9eHVdl9Odep4sJcCXd8CMnJCKr/ZY7eSf7tp0r/9DEg45IHa3VArxuX3YYTuW/c1z0ogOihwS7vUK4zqnae2tVKo9O2V+kb6mCTNQCzVoHNujNjNXA/fWK6+UZLunKj1C4FuxZ4x0CMimB0Rt0I0r0i38gYx9fWt6f35VGt12R2pRY5yjDtCkBtghsXo6hy6KyS6tS8Nww9CoJovUUMNyTsu01HHYEWnRkwW2qCK0cHg3Nm61soHzgkL5wTq0WEerxhxSLUs0ChdLM+DDHjX/e/pC56ZzuYO5U+WgQZr6vN768Ic/PF144YXR8QCfT8ispD6nQ4/oAcSgBGgCWvyWLFlS4ZNe+sNu0kGSkv8m6AhkQs9a8wsAEo3FP/7xj9Mzn/nMClKmgKUOBIAGYQCGSy+9ND3hCU8YJ90ZIOHZkpdBCfCy9MuVNA12DmNQBlgMugAUgGqAId6pp54aAHbNNdeIHdmzUBiuLk9LkICWJUeAMx9Y8jQ0oKloit2HpOsyNkiSH74WpJKpoGZAsjbIky60uOKgg+OZe97ZX18K6++4447tDIb4u57hm/LhmTjEhXeeSce8Og9uJ0F4yk3KEqA1FOgCewK7ANoxB7aMDAib9L8iqZN1tE2a5JeugF2yq4845dR0s76++/XVHrvHwpwiO8UkmrKTjDYCSQmZu7TWdt6s6alda3Ov+MbFoLc6oISGokkGjgXw64o1xBrq13jijTYryAbCqgs/cX5q0VrZZgHMaK8kDQElgNm7q1fr1gopoEV71Yalqx2RQmJABHeqwT7idG1eOGR+hYPXRrSDLHZrKNPNrFaoSSVFcRQFEF0EPsbK46DfAQR0JH8CW7KhIAEgrnQsrkiZDkeH/NWvfoUaIXjkPZ0SCRPABTAsERJHn9vppptuqkuX6BDvd7/7ISnXdaNO86qrrtoyT+oXOvrKlSvTt771rQAs8wptAfRK0oEG6ZIW8QFhg4SlSPJhCY6w0CU84Mk78gJNwpBXHH7cW7IjD4TB3wML5QYNnqFDeJ4Jyz30SM9XBiCXL2kQxzQMyPBvHgA/8kS6gCGOrwxNwvGVEGl5QCAczs/xIEde4Yf46NbPOOOM5dJJdz/pSU/ivkp65In0GfQ0wFVf//rX179e4M9lRzjA/ze/+U315JNPVpK1nuTEpq6TtwQMeoCunIW45g61d7wk1TImD2HfgNW406av0w7XdNSJD0/b8aMNSYUwKkycqVPAYxeZ5q7adHrDbk2UTZ+h1VU1jBy6/dbUe+VPCkkWfa/oQhVREvDHLFdwEJ1MHqFAZunWTTem0Tu2py51nI7YMVZMiLFsq10bE5qlc6XRN6P1le5jWNN7e9TRZi4+Nh36xKWBnFWJ231IOM1dYhZlMynqhehFpkN5XUgfURL3oqMz0RHp+AYJAAJHpzfg0OGuuOIK1AVRRlI7hL7Uk1D44awLBFSgZ0kJqYxJNEtTACVAunnz5rq0CR/E+e53v4sEF+kITCsA+OWXX17lPXThRXrktZQ7E1qEM++k55UKAAhhuMKr9MORPnklj8SxdGjAhn8Ai3CAienCr8PiJ4k28irdcEz8GYAticIj/nYGZHjFHx4AUwOrpWaXPc+k7wHAYEj8+fPnhz+qB9PHP//l6WopXnrWs55VXbRoUVq7di0Tnek///M/Y5Jy+fLlVZbqkT/qSGCb/u//pHOTg14OtB6QXvGKV8TgOQW29eqdvDfqlmBpLsDRaEAbPv/VjAKPOiQsFgc6SKUH6mJGoLu7svSVr0ij2pi1W+2VfkV7ZQ6HduF+xsqEIc1bYUxMK2tTtwTLn8huTOobXAOCA7OkGXZukaApLQbqwL7gBjF44IqrvnBhmsFsG1vTWCchtQEaV4KA9CNSESCx7OrdkZqZ5JGiuK/SnpY8/nGaBZpTkRmztEdxWsQ8tJsxd4ZjnYUSiqOL9VikW+B+EaD2N0T/gwvEBiMAhsL0Zz2gYslGUmysOPjnf/7nACMBTTdXAcdmwuDofNAycLuj+j30RHu7ymsO4bT6YZkmszaK7lKB5ibrKH/961+n1772tUGHNFAVIAE/9rGPjXQALiQ7aEjajskx4tIIPDh85StfSYcffri0OoXUyucvUiEghh+gqMm7WE3Az2VAHnjneJZEeW998Q033MAEVQwW8EccS7Dcs2pBeapClzzj4Mv5oZEuW7asAsBBF/CFL947f/iZrvNHO6MsPRhYZQOvOF/jofYMDb5AnvrUpybpzmMClHCk9a53vSu99a1vjcm+888/P2ifeuqpO6SL7mYy7rDDDouJOhx5IS7tgLgC6R3mpZbc1GWSlQCtgnkoXGCaPDD1Gla/hCkgS7MExKEBTWqzg1VV3VkTtAakDmjH8NaRRy7rPPLwjaO7dmuJmLbvao3XkNShzU36WlfbCNOxMlrTKdwbQE2q5a8y1piu+cnP0mP39K2SjnU1StmYqNN/2GCzVtiCiWbLgzqCxLclV266JB2mjjBNImjs6BL8I9VWpG+lIdMAMaPIbjBpNNItu3vTwKFz0qKTTy5yKIVwGzZplQoZj0zzk2TLyQ3cIlTHFjpd/T4KSr+iG8HUwXMACh2aDoUuz1If99LxxSSY1sUmdLZIcnRWdK3kX/db3YEN1nDqsiEsEilSE+mI9mp3dgHNJlQTmt3fqE4eWVWaV7AECj0wNKCplQEJHa6lP/j85S9/KR3+YQGMhAMIASPi8ozqgTwBZgYKrgAuEq5WMASIw7sB0ffkV+BP1dRVDtAhfQaCD33oQ+ihAZzg0YOLpW4msJDYXQbEAxhRnTCQsVpB64JjgCAO6boMHYcrjvwTjqvB29J2BJBzWIOtn3kHaBNfKoQoX6djCfrMM89ML3jBC9J2OU3AzZH6Zo7WRVfPPffcWHJnCRyaDGaUDZK1yn2OJXTokrbT53nKTYYS4MMdFBlzoae1pCnvITUzADfwSe+qHACpK0tYtYtBIZo2PXLZk9J3f/GbNE2g2ib9bIu27zKdxfrcWMmg+xHZRUCMRL1AG+8Q+A7/9Cep5TGPWdnU0b2uT1uAm6VyQEBtCS2CMJaJKmmNaT1pm2bVpgvdO0W5hcavmTjO8MGOQVN8+jMaFOgOcg8IWJvnzkwPPllS7fw5m9O0LvHB1tsaiNbybH0J3ck7ObjPgfXeAFnYofPRifm0fMc73hHLuAAWgJbOwz1hJAUibcoIu5Z4CMQALToxjviAASBQA9SIa39LbsRV512jMOt4DwD78540oKvP2yWPe9zj6gAIPekXK+9+97uDNzo/PH31q19NL37xiwPEoAvoUsnwBS1m7ZlMMtDm/OTgZukMIMEfYNQytvSpT32qDoSkSTrkl7S0hC2dfPLJISUykMAPzsCEVP7IRz4yNnJYNcK9l18Rjnsk3PzrwbxYtUA48+QBkPIgHO8MbmWQy5/JD/pvAzZ8QoN0obFw4cKKBoGq8tz9T//0T5E/lpn94z/+Y2L32aJFiyrWF1NfrMBAT889Dv5weZo52MfLKXcflkCxIqBgoDAADtYUeKN3DJJ6CrwRGPEvXuKQRvVFfvjDHp7a580V9g5qH0QxL8JBku1anUBb0mhfgLowEa0sS2Pv1DE6P9z0jfSYhz98barOXNepSTbtKdOaAKnulGbxtQ6oYr1mZGjlL773PQGtPjHlxyxc0YiYutNrDQMwOqqRoF0LfXf096bhGW1pm8ic8RRNjM2YcRKAjaRqqbWWhbgAuAbd3D9HXOI2DDMuwoE9kCc6GJ+ZSGvc05n5cQ+QSOJZJgl0E344/AC+mu5mOR3OABGVpx8dmfj+fLbEJvDrpqMDggABE1zoCA1EP//5z2PHGsALXQMsvP3bv/1bVSBQIV0kWG08iA0WpEd8AIB3pG3HO9LxoME78wQPVjsgFVs6Bky0NC2AG2fAZPXFD37wg6TBICRa4lviJRy8QoN8u0wseVsqdzzrdkkfHn21BIufBwXTg3fKzuVSz+RebohLGZO+B0PXD3QYRDSYpa9//evpVa96VYTjq0J5qW7dujU2upBH+PrCF74QA94znvEMkRjT5+4l+alX93EJgCHFtFTBSIGjLFgFGMHVQs4thLti+WsNiQvpDzXmIQvS4oedmG7acWnq7ZMQprYwQwrafm1oaGP7rvoCRsOFdNFXWgS2XfK7QX05aQeads5qwk07azXR1qKVDqQe3+3qRcFCuu32tTf+6peaFNPcHEJsrdACAOloQvhYW6vOwpyXhGNtYuhIM448Jum7dxnmvwbReYQbG10MsgWIIhXUJN9ItVhy5li1yAf1QiciD0xIsalBqoKK1q5WWK7FPYvzJflsohPiLOVIWooNClY/GCTo3IAQnZFyMn1ACH/0gNChk9P52YL6PQY1SXkAKD/tvjoLEDUoAwpsV2WtLmkicUHLk2PcExbnwQNgwh8HQOAMOJbGSAN6jguoaFlUmjVrVmxK0OdyhbWtCyX9HXHEERVt6oiNCtIHx3Zg0iA9pwFd80z+yaOBn2fKJneEd3z88zLzM/EJR14IyzO75qDFYJDHj0Zf44f4Dm8pFPoevHgPXfKBKgcJhXveU07PlzFppNho37W00f2edNJJAb45rx6cy+nneZ26v49KIJt4t+BGB0S9APpUhFFVfbEzcxS7zPL5IQRCjmVobt5wwsmnpJ1q6sOSdJslpcaJDNIC0IZoC8hhxRFeaqvodtVuOjibTMKPAomQJtSkWqC3NCELRTtlD68QuOcnV6YhrUJoFpLGyCCEV9Os2S6IgDEmcDpDj6Sw1mkzk+AjPeEMnSmGE+KjAy6YB62VHX7yYVbOLoC8vthYyZBBfgpwsKXa4K4mweadykDiDkgnolD50RkpXEuK3/nOd6LjE9YdnSs08KOjksbPfvaz2JkFAOEHAADcfG6z44sOzkJ94gnc18GbgYa0kLAAQsKgD120aFG8J54lT6drgIdf7g18BgmDLrpb85x/KluSMxjBMzQYEE499dT0pS99KdIsGtnYWlUGHugZ/K1mIS/QchkByIC26cMjeTHfvDdtyhZ/HH78AFvUPAxcBriJrsTXZFfEgy/yTj4MoNQn5cnuNfhBFYPUra+LCvea7IvRBN7ZaMIkJeGgw3XK/YGUAJhT29AAkrXqviVsI+jrk0l7BE3wqvar6nOcY7zCqFZ754p03P1Tj7BOPYFdPFp9oHXZMkmgZhVta5gNDCLQoa/86IdD6h+DvenazT9UusOLk3S1aAewdVvAPOUG4g72b//VjzenTr2oCJHdISGKCBxNjFk4wS3H37RKbB7R8q6kEywP/fNHi+GmTT47PcDWQCvGmAkEROk+IeID4nHVj+QNtjyEKzqan+7pK+BGx8dxT14NwHR6nvk0p9NauuWZDvm85z0vna9ZbBwAhTO45TSgj471L7WbjjI0EEOTjq9tvnzGVs8777zYjWY+CBs6ITl2ouGveZwAGvSQ8AZY+JMcACE8dD0oAAj4W7o1+EMTCdZpwT+gyjNhuMeRZ+jjoK1dbcuYJBPgxSc1+YQPwNc6XUvVzitXnMsT+lYv4B/tqjaYce/2hp9BmHvyxfuPfOQjMamVS81Ow/TyZyYzSZu8mTcPKDyzegL9N3E8CHKPFLtx48aIx85BeGAVBfxRLjnfvOM5TzcyPeXu0xKw0BZfzdLBWrDDQE1TLuTpfawCi4/tmlCoe584k7qmbV700IdoCdhQGpAwGv1KS2NpPxWMcgloOYMs2gRYJlxsUX+5/JKLtR60b4sCLpURBW3vVboBftEnFHLPnu7rfv2rNE2qgDG9KUQ0EjAaKHAQrHWMVn2O7pE1sONPeJhQR5NG7eqcoDg5DaAVgAG0NZAt4LOQCqAfp7FxrTnex4TdmNdBu6PQLOkYYPJOCZjwuW6pC6BAvwm4oALA8Vnt7b48E9+SDzRlcKbKJy92BEgLRyUBHoAAlsW0IgFbB/V1u6H7qYGmaf3N3/xNgDsz4gsXLoy4Bg/CGnz9+U48/OCHH5In4QHF/BOfMuDZ4MkSN/JIHPsBtACUQHITlr+YJPOWZNqBdcekSZwcKF0mlp7NN2EstXLvZw8I0IUHgyw8YAyIwUl65QA9XBnk8mfoS+3CqpL15B+QhyYDIO9k5CaWx2lX2h85BNAAACAASURBVHk8Uz7+akF1oy3ZkQZGg87UygVL3QbleDnlJnUJlHEksAuQKdaAAVUyMYB1WkxvocXVfUAS4q5+rLltaV73BOaiOoRtknYxvsUGBzZyQb9ZYYIOO8sEus2Sitkgu+uO21jVxafdJjU8pVDTCzMrJ7Em9Ax7brtdxmYErCz3qnFL4+YHJhcSrvRw0tPuUMO9U54nPOYxYqr1LBEuQmhZRKEKKCSbokbGJNVin3KtnvIg92LVWRqkE+VACAt0SjoiYci3wYB7OiSGXpBu3//+99Mpo9MaAAy4MlxTlRnDkMSID+DwIy2Aic7NEi42MgBY0AQUABgcYQEvwskeQUW7y2LdqAzCbAB8zB9XnAEX4CAetKBBHqDPj/uyJE5Y4hIPHSbO+mj4xsEvfLNaApWGAHo97/xlAI8GT/gxgJIezqDvez7TXabkhXCOBy+kZ8leA0z1ne98Z/V///d/00te8pK6pO58Q5P78jM02XiiNcHLxXPd/CP5ZzODDAyFhTPpp1cTlnInH6Qt3XmFcJjDZCCUgZx6WZIebYb8+uf+EZmdcpOiBDw3ZJVkeWUUEma0m+J7XTwXq63M/Ah611rfapJxJ1kE15E5Ldo7wKRzsclhiGNzZPgbTGwWOPPDpGJV+xOmKfrwNb8TpvYIRWWeVe1K32cCE1C1v2/9tRdfnLokIrcpQgu2bMMV83e2ooP+gX/g+pBQvnro3NT8oOMFth3rkMeHNHQgWld0DjuqAIDVKhGrBuo62cCJYnIMFmJijziR7sF1BiFUA5bK6Dx0JJzBg3vCAg4GD/y09ZPP+1jkrwkVtnGGxS10tJdccklM4mCpSjZgIzuAmgHS4INkS9rYrqXD0uH54UdnN1+ER+/LhgapEVYQFlr4A0rwbF0o4C7ptL7tFBqEBUgMrDxrqdkO7YqbAw3yxTt0yC4XwtsZyCTRVwA+gdBy7MUSh/DwAw/aKAD/eixGaaRmygHeyJclW0mLxyreVkuL0NDyOwAtVBSEpV6gAx8LFy4Mc5daKRFSLfGI43ohDwY8/CyNs9KEumDSi51k7BxjnfLnP//5WMMsq2yxecFxyS/lzjPmJhlMWSOMeU3eeQDgvdPE3/mtF9gEN/mAMEGQ8IbeRGGd1kTv90Y3f+f4ed55f6B095V+nu6+wu7t/d7KKPIRegE7MAVpVWVb9y6Ev1Y1VbY55KGJ1QIY0Qc6hWtd09b2dshEqgh0y1wBFsBkbSZwqhWBBNFW2BfnMMpX33dxAu8tv/1dOlImZtlJltDzDqliW9DT3batetE5r0lJhnDnSMmredeAWY4ox+Ric60DIYdzhlhfpTVt0yfnrJMfm55w9v+TnTzZQtDC3z4S5ohzGkxNMs5yPWluAU+kUgHkMnZx5dJK3uB8X26EPPM5TeeUMewq9l4BCCZcAFkMhwMcdFA6tCVKwMPSKxNVWv5VZcmRP8fpxITPpUqekfAATlZLkDaNjTDQhx5+2lQQIOsOCfDwjKQKfQMzV5aPwRPSL++0MiL4QI0AXegRjndu2ORPwLlGNgJWsYIDXh1WKyYibT8btAFa0rEUCF2shyEpE5afNmJUCUN65JF30OKq3XDL9Om+iYZDWAMt96SBy8sDf/jVl0BVIF3hs//aa6+tsgOQpXZsu5YNhDDn6PThDVoetFA5sDpES72q733ve1E1xLplypHygU/i5g4e+JmffLAeF/AeeNgX0NzdJNxeyvm5u3T+mMKDXVGdfVpVMDi49JLz3rXxVtmYPlRWD3VkrTZFsJWLDV9S1Y1yCq/ag8TnUUXs15f97RJEFzzh8emRr/2nNDK7uzLapu31/bLa1Y4Qc9311fP1mXZEb0+aKb9WRSItwJYhoQ62SLVqaH0ys3i7OsNjX/nydMjpT14mAw6b1FpTv5ZUNElxnKshJmMluMHSQQBAgwTPdKy84zTiH+BBarP0SRzAxw4gNmjgR3qE4QqQkKZ5oJNbV2uQww/JkM6NM2Byn3d2S2b4G+wMbAYEAxC0/Y7wOUDw7E5nEGOwMF8GQQM2/vCI453VFNBwWXJPOIDUkjXhTd9hCe8BhnDmi7Q8SPE+94+E5TzQcO+ygAZ1QdrWs/PegO6BFXqUK8/mgXjkh4lLdpJpjXEMDOQPx+BhtRPPLrN4OYFzW3JY1/sEwQ+qt3kwTyRW5u+gMvAHQjxkXTZ6ycRi6tuzeOB7P9yy/u1vTUfs7Elz9OU/IqPhoT7gpBoJo1hOjHVaws0Bge1Oge3uIw5Pz/rIBzBiXRltnyVctCpVFsg7ZGqMFWFsPSvGaKWnG+boUB7bYcVrlEMfpWo45H7HIj9vEgKoE9XWn/0BFCidis5M47O0BNtliYT3/hmoAAsv/DcdOjb06Lw4v7f+Ez86tAHZIEHalpB5Z37oAAAFzwZX0jVQGRyIz89SpgHdHdrhoYHLAZ80oMM7AIb8mQeAlgGFK35crQ7wAOP4zpM7MmkAeOTdUq07NHFxxLEf6cID8SyZ42egtY4XetAlv4Qzr45vQHbZuvxIz4DPPTTgg/QNnPmARFg2cfAONQJA67TxI75dDlp5W/E94fJ7nvM4dUL38k0jvu9lFg4oOfg/mOUI7rFLNnSbTc1b2x/4Z6miybAmJs3kJ5htyH8sDmCPgnbf9mkJrc5wDBBtQqBr1oJb9aKlQ9ffAIKnVtQGKIcjTrGaIPQcSEWBwPp8k8jcq47RpFMo03xNqujMMUyRIUpTAKMC3cnu6NyWBOnk7vzcWzJzhTa6kj+DFJ2fT093cjq9Qc1Sk5+hReczCEIHYIYWnRh/x+cdnZw4gJ3BjGeDJ36EyQEPGqSL40pY4huoDFJRV+KVMAAMz4RxWMCKZ4OwVR0uD9JxWoQj/7mkSZkQlvRIg7DQhp7LgLLGkb5BCT9+DGDEMej6SyHPe0SWIx3HIz3SgCd+xKeM4M1h4cN08oGL8LJHUWUdtVZAhE4XYDbAkw7O9cR7u5wHl1EOwE7bea5HvBdvcr5IFv7Ig+vEPN6LLB1QUq6PAyLSILKKBelIG7fQtwpg21rTjEPmyw6McFGrEor6Hz+QUq+0vXYOthXYdijqwHXXM7ovVQFLkNUiXX2vbvzl5isUQJIFadCg2AUWC8Nw4/VTo0LqQS30XfSgB+q4Ay1pEnEWAaN4wEAYuF/sSKtFn4QXAwidiwbnDpqDAWznlel7rgZrgxk0LAVS6KYJDSoGZ0C0npQw/szm3gAJb6SRd3J3bvNn4DCAQh8axMuB2WBAOIfhCv/wY+B1pzMQ4E8YeAKooOl852DhTso7p8U98c2zabkMDG4uJ3iDPnmyxOkBAJrcU07QgTbhXKbQwM+0CM87xzFQE8e0XE7wg6oGEOfgzo997GMhxbLiAtu5rEe2FE9Y37vM8Cs7aOPgKU/HfvhPBpfzUb4375OBz/uKB1SwowLMZoGswDLYmCWw3bP1Wlmg5asIRcP4SSlUrthQYHdam9QJEjXSNb++Oh2/5KSN2k2htQz9veu1LSL9n/bzTuN8MC1naBZijrCDDPFXiVD4tJFoJqLPOrRRdYCTHv94SbXTzhqSTYWqmCpAFlCh441n5L4qtInSpROWAcxhc9AodxiHMTBCwyNaDmz4AVZc6ejQAbR4pkPnkqA7MbQoa+gQhzS4NzDiZwAkPp2e974aqHIaBh6nQXh4MGjz3kCLHw4+SZsf8ayvtJ42p++4Blfic4+DtmniR7rQ80CBnwc782e+zKfLyWDPM+kbPAmXDxRFWx2zC5GDpQdI80/6ViNw8gaGaJDGAVkm0AhPus4399CjXKBhZ4Dl6nvyiiuHcxupR67d5OHwmqjdleNN9Gw+ynQdfm/v/W4i2r+Pf5nmRHztL+190Su/31+6eTjWzgbYCh+1m+zY7iOO3NLTfGWcp9hBe2Z5LJ/7DKySS0kz2mPgpUBX1sPuuOHGdLz82LbbIsXginTzLdVeHX/TKaIcUV7hNDNcSLdZ8qEEZgGwJAK9an3ICXz/reuXwlg2sgKMh9ktAWhPjgE8L7tx9wZCSykGOIAGcMk7BQ2jXHkGPYj6vaVMF7qBgw5KOtDlnQHagGKw5B20DKrQpmPnoMR7xyM8acAzg4dVAUhrxMmBmXCk67QMJM63QSsHVNI3aPCeuDyTT67lvMCb82ZplWs+IJkG9PyDb+5dTtClDEzDZc8z8fNByeXlyoWOBxju83wb5Mk78dwGCMdOvYULF9YHQehBxzz4mfqAH/Nk0ODqe4ct+xHHeTYv5rtMD3/8cpoOe3euZRqm5zKgHvM04I84lPOBOOenEY0yT43C3B2/Ay2jRmmBj3W6CCFDA4vnHnlEulqoOjvaoL4MhYfMZYWeFlGz1gYQOmNdrwTWQZ3mIGXtDkUQQvb3L5V17NQuJO6QaoB9wv06c6eZTq+KINKodLijtbN3CDCqjlDpYkeFQHVgaHFnB3bK1Tj1p0XqBETwybzsi6Kh0xh8qHz/LPHmfjTAsnNjhAbOHdsd2BUFeNHh6bQ4AMUAxjPpmH4ObLzjGXpunNCkk/LMO+Lx3rpUnuGHZ9IsdxjeGyjJJ6BsevhDl3huNP50dwfM0yaMwc985+BOWEux3FPe0CMNJt6I4x/0fZ+Xq8uQODjzQRiXRbyovSN9g6PzwzsDNPfwAD/4OS3SNrBCl3to8Z6w0HJeXVfQIiy8kU/z5ntoEp8yJozjG6yJn+eZ965r/KHtK2FdBi6T/L15hm/iEJa04YkrecafNMwzz+QtfyYdl43rxLQJ73pz2s4X8XA5LfPpcuaZn5+hbzrc+2f+XTZ5ebrsuTqvhPPA4ffkc2/OZbm3MCIrCZWlAXL8qVS2Hqm12UPUuYRJ7CHYldEB+ki2uF3bdoDDAKPAdnhoff+uHVpwKwMKQmJXQjDEMi5d0OHiz3Y1drqhJG6dOQupVkRat7IomG1wHMIQ+t4/AGeQNKtuDOSbd372tZylvPFTNnnjJj4VT6XzmerGjr91iGV65WdLtFzt6Ag0LHdKng0GpGGAgDeHI647AbQI7w0DfDLTmPnxzg0c3vEz8OJvGm7opAGtvKNQBuQZWqRv3rmHHnknjt8bjAEkT2CRD3dK0qXMXFfwYz/ShS7P0OHq9Jwf8g5dwpEudODReXHZuNM7n6blHXLmmfBuG3l954MdYQ1whOfe9OCL/FEO+MMb9Fw20CGs65f4EznXMe+5J+/8KBdokE5eDwZ7wnpVicuV8Lznndsq+XBY6HDvZYhuW+SBOnGalKPri3s7NstA1+m5T0HTwEh6dnkbI22/Izw0XJ4uP793+m4HE5VdzttEYSR+1dPVll12L2xNs7VWFvVj/rUPAYA19gGPuUhDUvBAv+yvDA13q9EJJUeGu3dpQkAKqjjQMRQFWUFRZOzsZbkD1nDYNwG6zz78ULZF6SW62hp4xwgASJexfhwfk+KBPLpxGjBgjIp0p3OjKDPsSncj470bGXFx0LYfnYtnGicNdV8jL/GhTSPFWS1A44InOqU7qUGHNPB3A3QjhVenS9o4BgDi4egsNFbXOWnxzp/2Tsdl4bIBIPCDNmG4d6OnY/nzHVrc88PBHw6+CE9Z0ImtusGPNKCPgz5+LkuuxCU980IapOm8cuWZuAYw/Jym048EGjiHZTDCwTNpuN5Im7LEj7D4G8x4x72XiMG7wZOw1AthyJ9XV/DM8j/T2xtYQAOXlzfxKBfzQRjqz+m5TN0O2OhB+sSjDLk6DPHg1+VN3Zg+ZYrzoAfPrqd4UXvH1eVA2WFjhLySPnFch3lfI45puT2SLo58lfMCXQ9ybi/OR0Q6QIedAxSjIzVVKnpYKfPjtN1hjmuQK9QHheALpxyVU3fobBWnXyfY6AjyIrxykXq2bZcaQZ2lpmsYkQa4Kc4MQ5YuwCNfbzskoD+c9bVtredBBeUwRmrCqYBY3FtG+trbSXUxkFC5BgcDhzucG3fOOIXoEZ0GhMslCXdK6PKeRkADBjzzkXpvhUEDopHCjwcFA5KBxPQtLZtXwrM2FT5xbsT4wxu0CWsQ8XvS4h15w497+M9BDXo8w4sBx37uHObHncpAQHji5eDr8nOZOQ/4c28a5AU/fgYG3hPPNOGD8B7c/Ay/7ojm2WVDGDvoES7/ER6gcBm4Lri6HOGHZyRGGfNZQ9nDl0HD+Ycv3vHMO9cBcVn+5zRycM75y+/hkTwQ1vXEewMhaTivTp/3Mpy0XtbQtAC0GMjyuueesK4T1wV5IS3KAbDE8QzPrg/CmBZ+DNquB7cz6BGHuPCMc5lzZXCDDjw4f+V2AF2+zCxYuI1QhtD1oGveI5Hfw5kv8BFwHaGfq190aKAqNuqWxdvxiSBztgg0h/tY7cUgBb7K7dSe+w6BasgeLF9gxNMxDizqVVoxKYbJsWEqV7qHISV8zPH3V221rGbnRKgQ6Ne6coBOiLp/AI6KvPjii6vYK6VwWe7zF3/xF8F9XlmNOiYNQsZRwsYsdLTVNZ155plxfI4bAA1H9gy2a499t8H5LW95y36VDh2FNGSDIIyo0JC15TS2n7qTc3WndkM3CH7605+uXqOTcAlDY+foFwyC0yihzRVeiecZeZlQDIMvDArMzsv8YGxTJX/uANxTHu7Myl8V848s/ldHCv7giTIgrH+UKR0FsJGdgzCCzplkL33pS+u2aQkjAzFV26HNQYQ2abqkD32XNVeADj+2S3OqBXkiHPkk/zIKVP3FL34RfjLmE9ue99ZE4Zs0iY+Db+4t8XvA0zH1Vez8YkqTcoAX8bkK3mV4PbZus92X+od/g43bCPWFP4bhP/CBDwSIkIasq43jr1EbNCC5rZI25coPXskD9cvWZU7bwMIcfrwTYFW1FTqdeuqpcbIwNoIN9uQXmqRJWzHv+OuwzCp+SLyvec1rFKTQxZI2zgOFJXvekx/qQG1fZHXcluqG/HHvOiYv8I0BJ+oJh5/zBB3u8QOUVaZh+F95qBikeU9a0DlQx/E3CJ3NUiEMa86qif0IQtCZc7rT4LXXS9wuPuKrEyyPBRMLs4oC0D0yhwD4IpbukGWjZq0oaFUAFXFsToi9vjVHoaAqVheqIXxr6jrqiFAtVDRJFiFpGiKIBByjViZRH2jGD0Z8eKRSMMPHoYrkkSNo3FDzCnPDy/nAb8uWLZjqiwZA56PT4NzwaNhKZ9Nll1223H6kS1x+e3M0LuhyiKJ5VRpr1LBWG2CdnsGTOOb/i1/8YhyhTufFn452+umn15MkrgEFT/gBqDT4xD0NHluvpu2GDy3iutFj7MX519Kp6ste9rK6zQHoArAGc66yOVDFVqxBhbTgmSv5pDwFYPVOC4+kB0D4Slj8XY4uS/jg/tWvfnX9SwUeiItdBE7GIC2sl+WOPOF85d58+Z5BBEcahAOAAA8Gandw+OMdz7QH7OnK2A15rWKaUnZy9boAJ9ed6QHmPt4e2vty5N91Q55Ij3RdNqTD6c0vetGLNjIIQNNpu41gHpRz52Tbg0NNqwgCTtvtFXoeWIh3+eWXR7oMrtAjnMNQzvzyejE/xL3iiiviHWVp4KQcqHfXrexuRBqEIx3SIK9uB4Sj7bidKr0q1tsQRAiL1GvVx77KcKL3MbclWoVZmVqosJIl9em8+enWwmJWPXoEz4gFFLKLTGCo5bWaJdsdqwdET7rB7Zogw+K4AnC0L6bC3HChQSY4DmJUaF/VLBi7xdQz9UKgyuoDUjO4onng37hxOeNkktxS+e6wjLr83HjcAdw4uZadG6PLh2d+bjg0FBqGrnFWGTS5OnyZXvkZWqQLDX61zrWKKw0aWm7c0MZxJV+ybBXSJmoIOgo/WfmqgzYN2fzTcIkHvzJJGMZpSAOQ1OL+lTw7LfNIeDolEhPvoM/aVJ88TDj4yPOMhAXNb3zjG85LnFpMuvACPe5dbu5k+EOHMPCFP3SoL8qFvHB1fRJe79bgj3OH5dn1SPjcGRxyP8KSN37cw4NtF0NTIFalw7t+SN+6Z8rDPBMWozYYv5GxIn0sFhI6dWcAJA3CUdbQI755cj7GMVwrX8oDx9Vti3KCBraWJbFutDoJ2uSD+gaQCEc6SNrUDUD4ile8oqqvmsW8o3zJk3nED178BUU+uHc98R4/nHk28DrPvCOO685x8zZNGNcrbQpgJhzxoEs+cLQByow8XHrppVEfv/3tb6vWs0egA3HKu9sLQmWoaZubNnfPnVPP397IA7RNwlN25PbLeA3H+VKCwfhsoSWLdIEDwNKbElgCRqIKGMf/Mkk2ooLVKoSQZIH0aNfBTK2w5XlXeNoba/fdOzcoOKAy3Wlzjho1eMLxo2z8nsp3A6Px1WjtUJhuwtCoaEjuGHvLtcMRlnjQEs0NNFzSNJ80XEuOpE/n4NQHOj7qAD4Vb9ZxMphnBBylHqh/0sKjeeYed8IJJ4QUTBqytbv2r/7qr9YZOCylkgaN/IYbbogrHRhw5wvBnQ6eyTNhXcaE1eGJkX/eS9Lb4XSdX555zzN2ZDl2HRqkAXDkn4zwxQ9aXIkHj9ioJT604AF/rs6rwQk//1z/rhPiwDfOebF0K8k5VDTQp+wXLVqUVE7wGlbTSEe8Lv3Upz618Wtf+1rwDX9YhtM5d1VUGPCHo70QnvS4wg953R9HHIAcKRM61mXKzGf1X//1X8OPdAEonTSBFTNOB6kwCKN7xdgO6g++0EhXYJVkMnSLpPBlnL/nMuDqNmC+DJQ8u1y5Usek57Kj7gBKDyTQMoBDA7qEJX23acobJ7vC6cEPfnCUMeXleqNdM/BhzhRJmLxQHzpNJIzMqz72Cj+kVQfSBgUdgqKAUjrBeAvPGAuXEe+Tps2YXvVhCLzjUAUmxopzzASHMcYzQOsiQZZDb4d279HWXY48l/KWDtskEJWQqhUJ6tS60VxlnDM2Oshi3EIcHpbxxx1ag9s2QzYROA4HowzC19DXhu4CsA7RtviR7iR17qR0GFekO7wbwf6wTtgc/Ijjjs+9Krab91Qw/g7P894cFUzDLTcKNxSnSUN0A+edALCK6UYaOKfLciQPUi0gxMGR6GLhw44GDi3KgTDorfmUp8PTCXkPLzg6Cc4dGHUA8dzZCCsD51XZiq0DOh2eTgKPxPf5Z9CQJD3HvJuuwZo0UWuI/wAw8uZOa965GrQIz8/LtXgHXzkQ+553efmXy9i8wK9NRBKe+NJ9VjkeyO0HW8TWw8O7eRypjm76h1e+oiK1CrZxq565X7VqVdjTBfDMh8GFZ/reCKdcl5zr3XFcJwCtwYpyojwxJ8l78q+BBwCNk4NdD5QZAwenBcvOb9hjhifSQMKVveGNAq4KeaEMckAENMELnNuzy9Vg6LLlmbSgQf7hybTcJ1yupuW2yXvOfcOGMmH8Hhq8gy7+mPZ897vfHQMN/mvWrEHvH+3S4YjjdLiav3IZ58+spY0uijFwzUO1g3eDu1dOnzM7DQhcOWQGSROwjXSaFU7+Bdiq7YGfLTq8VUTuvO22pCNKFwuyi1GlKDyN5CA6mWOiS39jyYMcJhZBaRbTNskQrlQIm0N8lV8wxZlltcSM7hFxkjpLoB6BudIoqBga2b4cDYmfGwLxoMEP2gfbuYMCkE6PjqBTCKLyuecznQkQN0R0YXkjpDMCqs4DwM1pDXRE6CIRQ5s8eSAy+CKtYYibsqJDU3ZItx/96EfrcSgDaBuAOLSSToMfIIWDvmlzD7i5cxDW+jfuXcbukHR65we+8EfyxZ8yIHzZ7U9HM9/wBT3okA7SFBOI7rAYdD/33HMDxHgP0Hnw6ZSxafMgY+vxlcEzYbHfW+br7j6TV/ijHqBJGfMs+7tV6pu6JD2+cjB+Thi3TcLxjvqnrABW5isIQ14ZRHlHXgjreiJN0nHbu7s8353wLmPXF/za4Wf+dBx9hfKlHePHQKiBIyZg3WbcDvAjbqN2UeYN+y+FhFr7SmdVluZfFDt2jRU6ACRZ4SEYqNBjS78EtCrHwFBpC4b7NUE2MrpUyKJPGMRTps8EmEyEhdwjpmDMmeTKD51uJ+eNpcrWMoNFtMmvr4VPd1gajkHW+dmfxuSR1ZVKw+RHmZl2o/K5p/ycBp0KHug0dATAjk5Pg+KsNIFnBd0XjiNeUCUQl8bpRkd+8ePHOV84gA+wJT+UjxsqbQBAlKqhSjo0cFY6LFy4MIBRhroDqKFFeeCIAx0mI7lCm1MqDLL4QR9nQDA4QB8/nolnwLVfRJIzaPuZcG6zbsOkg/PVYRtdiQMN8kF+iMPKC8qY/FN+mpnfQZ4JC5i6HUV+9Q/eoXHUUUdVnqJzrMgv9UQ5HKijPChfBgPS4UqZ8GlN+kyOnnzyyQy4IRk6D/DjT3rCkQ9oSV8b/MMfeWGVjsvY5UW4/Sm7A82b45NWnp7bEXVCu+dKG1RbqqBuohxw6NLJZx7fbWB/eQNqVTxFG8KcIm2nSRsbMgce8wvzCPL3utsAaT1EH5XGoF8mDHA1sGXmrQDT8BSjOJiNDEIpc6Gkrghsg5siscL8YpH4+NCT8ykKQo4OQAeiYfmeRkW+9/ajoVNOvhp89weo74kSgV9LUdCj06BC2Lp1a9zT+aQfDGMqLO2hcZJPTqiFR+eZK/XsPOskgzArCG30YPlnOWH4QVv6vmhMfOpLNXEWy3Bo+OgQDTK8hz5ASFmiQqDM8OPEBDunTTx4d1kaXLni4NMAAD38SdN5IAxxoZG7cqcd93KCB3iCf37QI43PfOYzkQ/KBn0yahDSg2++BkjHAx2g1Yb901qn55OYuDyzKuJAHWm6nEmLe/olAyrpMMC+8pWvPI98GGC5p/wcL39m6RcDLfGQjNHlEg5aOOJBh2fu7w1XBlqniX8+UJPvs88+O9RNDBjonuGd/LnNENf8u+/vLQ/OtzIcNArgJP+SbbUcLEBWBAoU8RcU17GvKeLU6TQ3bVLL104bALj2YVON/bmMyzVXW+bgBss1Gn+1urjMM1sBNQAAIABJREFUbBmUy+8n0zMdxh2WSqBiqCg3wDy/je5pcHQsl0deqdwfbEcd5OlQsUzG4OBLp9BGpwAYdTpvBT/yp9Nm+dxfTJ555gcdGi8OfzqcO6XAdg33hMPRsaFFpyZNwkr/uO6Rj3xklCc/Tq41gBq0iAfI8AzvSLbUASBGHNcHVwOWGysdh/jwCX/88MNBCzB0PZhmXmcR8G46ly30SI8OzXlmqEpIj0EG/pwf7olDOPhHjbBH9qHhEx45JkkrBCpak1vROuMNd5OduwSHpsuWFQWkrYG2Sjm5XuS/Oi831zF1aTCCV2iRRyb5GFx5RjLGQZf6cVoGubswdBA8DFRuV3XgUlpuA9QFeWGw4wf/hJOgEJ3Qce8ue0Am6lAjIXpbJRoSLmkDspZs3dutr410iauwvGtSm9fDYhSNEk4R18dGq2HpGYqMFSg9okgQD11FrYEF8/IPJ5QfBy/jDlsrgky2vzQaVwyFAqBwpVG5geWVXL4nXBR6TfrJK9Ud9WDmGf7hmY7hzsIqAniCF53zFfnwDLWXWbE8S3HXwD+NNBpErR6JB7gsX768DjCaPInlZqTHj/wCKByrTlpIqMQX2MY5akyEoMqIZlHrpC7PH/3oR3UaTKKVy4fw8AQPpOOO7XySHvf4E4YrtLnifKU8cleuj6Jtl1Mf/0w6TsPAjh/AxpVNLDjuGTAISzp8rvMVQTeb1lkYlIcv0oQvJsY0QK3Ye+r7fku6lIfrBABlbTV1xTs2VHBPnbgsoYofjvDwavUD/EvttIH38E/fgLbL1O2ENPndW8515fTdz3Ie3C6YEHadcdKGsYr3xPeAuF/8I7lq/sptl2WxuCh3EFMLAgrhspBti/KwZEsfLMoZLG3B+PjoyEq1agFMoGUBuEHAW3TphLUu4UzDcCvLFpBsQW/oB3wXeio81K7Gg++9VTN3Ix1LLFzJG40PfaNmY+PwQTeyiUhS6ExOEB/pwR0KWu54E8W9J/zpFKRFp4B3rRxgnWE8M0PN0eg0FEZ7wIKTZQ3G55xzzvLzzz+/PrAAAu5Y1O8pp5yyQfrI5TrJFwkh8gkdQIXO+aEPfSjW11IGLLehvPhJbRETFCwJY0uoPkvnEI7yAPQNjBzhDs/uDOQDHt0JCG8Q47DGvDzJtzsAVz1vVtwl0GJZk/kiT7z/fZ3TifYuWugxyb/bBqfzml+uBlnyEl8RKg8k264a4MKL8wUN6B6Igz/qjHKk/UETFRJ0qSN4JQzlCE/wyI/3lDXhrVriPWFVxyuU19BL81OerhCtk+DT4E4eDpT3/c03fPErO7cXeLEjbwws5IM+wDLE5z3vefW24rZGeOLvT9uIMLSxKDcKQVNemuOiLHCoTvmFVgAgzGwjFG0UCVg75li9JbWrkKaQhCI2GxeigbIiQaNB5LN2VYKReb0uTnIYWQIjRTzFoEJDRoY//b1rGRVhJ8lfgykNlYZFo9VnXmLrJZ3LBToRu65UwlLpXPGzFJQ3hIloHIg/jYcODgiSF3Rs+JEPlvO4A8EPfElaXabdQhupG7bDatVCFUDmPXEMLvCkSbUVAuwq9JmBp2NSToTBjyNjoIOUxpIi7ilDVAlIFORdwN/NOknuSQPVAvzxzGSRyzyXnOgwlCNp0XEYHDia3RIzeQIgAD4vxhdPSwwoWlZV5eh4d1Jff99yNrjSeXW/kvxyTx609Xlzngf48oARYEonQ8JV2ZBHyo4r+XOd/L58EQ+6/Mg7tMkrE2+kTR2RjgHGYbji5wGDeISDDjxZyrWf+F1CWh5UzO+9AbaBIZnLn8krPDKoeeCCf/ypG/LBLkScBwnuyYfLbRzxRg9Knnw2xXrYAvdiAYEmuzjKvNDWFjx6giwAF9AUSJJOBQFUZdyOOdrW5nVq3fock6jbzCgRYmoBqjDGTrIRJejKJHMdOm9soE/r7CpNMohbLEhW0IiHBfO80zbKw2Txc8V4RARw6EjkkXcU9N5+hKUzUbmEt2Tohuq4Ko/6RgTClRvuROVBfHcY7omrhlPfjUY506hwvOcTnfDkQwAVAJg3SukYNyF50jiRVFkiZqCFdwAO3sgPcdkMQXz8CY8fafIefR5Ag7RsMCVt1vASjnJhWZhpQZdZcudHmxnqnZx3dAj4Nhi4TAENeEAqdj3BqzcOEJ70AGPiwCt+LpO8Y0GH3/464kITR5kp/U0GLXhR/pfAswcLwrluqY/o/PyrtSXekX/Kjev+uJznnHfu4cXl6Xf2g3d4MP/cmz/iwLNpu53m/n7vOG5L5MG0uLruuDpMHpZ7DzLQorzIP34H4qALj9SL06MNkAfXP20hL3uXma/7Sp89DK1tY8cvcQyOtpEt7r1zVxjswlln62myOk29aG7SoMoaXQVliy9xA2wh1K+F1IHQbMdVZvjZcU91RQVJ7TAk27cK0M2aWwqO5q1F3PU4ecOoE5lkN/BogORKh0ZyYeLDayLdIBtdmbkFmC3x0bChQ2Vz7wFKfsspPzdIN+RyGZeLh/CEJRyNCrriYwfP0AfsafCEwbEBgfujjz46GrU7tBsd/GATgPjcM7NOOAOaJTM6A/RZbwt93ovuGhozAHKNJh5IB8ADbB0eftHDki7S8Je//OWIb4CCD/yJR9nl7Qv+/ewraVEf0Ic30melAwOM8+RlV9CFJ/jmZ9DLy3Rf5d2o/HMQ0f1WeII+7YG85dIU9Anvts9KhFH1Cfin/qgvD26OV07Tz6aR85yXF/fwAQ/UpQGNeJQNaVI2Xl+NP3GoC37m1XVDutCCJg7+XHfQIj5+OPLoMjBd6Lkt8o6wBj3Xi/wW01/g1bSC4ATOZTDB6+DB/cP1DR/uj45HevBGGH7w1ah9lNMBW/lMb5HhrdFR5Z05Ldn+3qUJUu7VAhTAv/GxAVjSrGhjBIfjNk+XUKTVCC2pI27SsFAYozI4zh+TV9250t34BtQBkWpxqodwhNl/uaFO+j67cYHTEQAdnvlk1Sd42AegsPbmACF23rAEio6EAxCI58ZHgzD40mi9a4iw+2pMhIGWpQFo4mJwU4OxVIvf6tWrqwAYgwTbG4lHwyZP8ISDx0c/+tEJy1J0RAzNWJXgTgNQIsWSJhNf8A8dfc6v0uLx1ZTL+vXrC52kwrCO1xIpE2N82rPEiR1oLPNC38oaU9LXzrJIF6frPpsK+UUtYetQPJNnyt0DA7TocPBgR2eDzwN1BiXoUD4q08XcU7b8PJhyxQEgucQ6glQjnv0e3g0y5bp33U7Ec6P35BvaeVujfdEGXE6UN+HMlwHaEiDxXZ6Ew8Gbwyv+MpctV7crq0cMYE6DMiOMwdj5wV80t8IrtPNymijP+DfKd+7vvBtAyQvCEoOyluXVBxV4cpkTxzi2t7QBMybIKgLbEdVt6GVHqktuv/mWWL3FPBdq01CrCpXVKoJcVRNjAbYaaDnVZogrBy1ouZh6o4wFg+CthaGKIkZN56BY9AoYrDMpkO3rFbgAtmLGNhTqowWZEb18GcReM3UfvaQCaPz+0UhpJDQkHJWztx/AQiMj3+7cVLo7AdcaEGyGHg0MIHBDN21n32XsqxutP7t4VtwVbtDQhh78a0dSgBu0ZXlrAzxxD1+WMuiAPmcLmoAvuld3MktE6IBxLBKnPPjJPGHQoTGzuwj6dGTN/lbwo9N6lp5DEw1I2EHAUbZMPsI7+WYCbyKXAxFp46gT+IdXS9jwQLq8M+hw5T0DxIE6aMELPHAvsNlqfqDNEjreu76cnjsy/i2SbIhL2VEmvPOXAO9xXPM82y/nv/ze79wnKVd+BhjSIh0714fbJFdoEoc8+WqpEJ5r+VhMGh4k3CaJz3sP6NAgHPFyNRx03d7dlohrenkeJ7p3OZX7i2nDBwMB6UCb9kgbYGUC/OZlwP1EZVlOn9px2iHBQqupsnnH7bfJMgErEvRIoBLQhcqWTRAAscAWyVadJQRaWkMaZFmDkHeESgCpFSiW2yoiE18kGoVJEhQ+x58rnqhFhqrVomGStvhQRaD/LRpTOROT5dmdFX5oCFQClUY+qbS8Y03EMw2LsEUZjEkx0HAjU6NfYqAlTRqJwWGsMosU8oZAWAMZaQA2orVRYeJTHQctTUhVvVIAfx3HvVz+MsxW6AfdcTyxgwSMvhaQkqGZtGLFisiDBxnnHxusSj9WHWCeEHrsPoMejo0SOOKZT96pwx8r7y2UH7Pj5ElSr8gW6hBs2DZy5U5AuvDlrwzeu5O7YxnIKAc6GFfqgnu3WdIql3Oj9Bv5OR5X8mmpGV5+rtOosakKTzy7TqADD6jjhjSRgp0D+DH/tDHi4PAr5zvn22Hwy8NxT97hB9rQpH5liznMNJo+agQGRYCXMMRzuzZN6BCX91pDHJOihGMLtt6tgwfyBkAS1ioR88nVbdVfiTm/8AJtBlzuqSPCH6iDBjzBG+UNbfJBXukrmF0kH/AC3/gThx9++3KRBxZdSUnKrlnNiiFcLhno3Z0QxzBpUKw+KPoDeOmNXaGOFSaqFeggG2Gh8g+xANv2adryqf27KHQ1ty7iGqlkpSaYIqKYBoXNPCfw6gRIkpSfwEmicgCzM0H4/cjQvjJ8MN9TUXnhU2E0XjeOfFRsxAfvaUSWpNzRKSN3DCpZjWGHGnC3QUAS6GIB3taJ6Dsu7/VJH8vQaETwqo4SJ2O4M/GOT3aeLWWw8J4OAz/uaNQLjZIrdKHFe0AU2killAfvuRKP8N7cQBhtVV3jSTXiL1q0qL6G10ANH+SNJWPMjDNJRlgkY5cTNnLhNQcnl6/z7jKMBq/ytDRoECUdQIMrdAwGhOXe0o3pNaq/fflRPi4P6JAen6jQxlEWbj+uD8qWOid8s2ax+bXJOh5lykAluwURh/KSCoqPxrs4593XcgD8XY/wxD3p0xZOPfXUyjvf+c4wM8hsvMM6H9DCz4ADr/BMePLLShyutXYb7cKOeISlj9DuKQfy4XJyfZpv03G7tCAD7VydVs5fo2f4z/lwu+Dqfkf6LDnkSnthICQtx4UvO/eBRmmV/aDfhKUtpMjt22SYS20OOJQ/X/Yh3ZYcaRZnMaquu1SGEmTBUX2LaWH6YYfKHo0is0ZW8ivMBHO1hbxjjKqjirg2Tet4B52PpUqm4uzc+ByvzMRkeqZS4Je80hnII5WT52dv/FKgbsR5J4MOFeSfJprmEA6goIFKItri9EzftLhCyz8Zbok4gB90BWJhOpD3dDR9yq6/8MILg2caMGGhTcOm8xkEeA9gkj+uzjuSj7bvhuV9/KBJWvgT94wzzqhvsdVSrlUsL3MH13bV2B4JTcJacoAWelvekR9JWlWkQNQchGXzA2m5E+RlXPaDVxx5MTAYeEmTMqEzk6brDn+D/97qb1/vKDPyShpccZzwQDr8rtH6YwMvYagTXHROxR3WvEevjrGGH8JjZ4INJQxw5JMw7leuf+Ljx7u8TQThmnMZcYUv8s7PbYCyokzgDfuu0MOP9wZESPFsXg1YqH0oO96xjpi4lLfbN/H4iuI9aSg/ATXkEV7wdzk4Hmnjh41lh8lB3Pma6Jq3CZeX06Sdwwd0mX9gdx9thvkGtp0T3uXo8naeJ0qv7s+yLWTG2g5aEUo7rrtWMqcEUg2isckhNoJhkmZM5TjKsi/FYwMYEujM2dLXNrfIYDiSbUvbjvkLDu++rfKLVJUymJBDQ1qKo3tKsiKpNTKpHRMQEAupRYU3vO2O1HLogjWVzq7VzSRMEORuEsNEXG2ybZ+Zuo8CUOjkyx3KFcmVxkPl7M3x3o2LOPxcka5kaDPhxG4jJogIj2V/Jqq4pyG4ceb3pEtD+v73vx906UzQgC/8caQlIFtOByINOsezn/3s6FDuHAZA+IA+8QF9ttoibdKxWDKWvwcYAErSRJIz+LLcC6CgcbM7CTrwYJDjyjPpo2JgNxPpaWtq0IKOJSjClsEk71Tck2/rj6GDH/HyQYRnnOuKOOSd9MhT7nL6415M8JDXJUEALw0+m2V+cAm0mGAU4FbRW+d81NuV2n/LNK0YUJkQnmNp4I3ywcKW69/lYDbIQ6O25zIhnMvCOlaXK/lmgvQnP/lJSKDnnXceaqU6gJtPwhkE3Y45Egna1C9tjLXahHf/cJrYwKDNUJ+YY2QAIk9WaRDHUq/VGMRdu3ZtPczedPYTVMddvOGbdkHeAdjXvva1kU9o11QgUd7+OR88c+9+dxfCNQ80BzFBBtiCb8PDS3cwOYaN2tCmFsIp8mroaWubGhBGR7S5YUTagWERaZkufW2T1DEKpOGoY9PMWXOX38wBj5hI5DSGQYGp0BPxGdOKI1r6EAs/WjU66rnaszvddPWv0tFaV8nJka2dmoiJc3rU4aoaCWXbMfS78buryxvOXd/eOz4GSI/KFL4b/n5VRg0EXemm4yu5oOHSKLGopHOxgv5Pf/pTdJiLBWSxlIhG7w5KQ3V8ZlTZZAF9QPP5z39+HUgJQ1j0cwAtoHnmmWey8yvOQCNd3hOXfOLKnVqgH/o5pC1JBEslGW+i08ALjnv0qwZUbIRCA5B91ateVQezvNGSJmEExhXlr4rBciRAQJMOwfpawsNXnlfSc2c1yBGOe+eVZ+fFQEU83gMOvLNOlfIy8BokCIsfNMtAzLuyI4xXZvCOZ21kOEkduUqZkSZH3QCidHhoky4O/oZ0bzD41Kc+VWWwMn8yeRjl5DjQcl0xi71j5531Z7dT11/+TF2QBs51ozYQu/ioWzavYCBcNg9iZx3tjXql7N3m8IMmdnapI/J53HHHAdqx4cVlBX0cAwVrpqEHmGuVSl0nTXho+yuOtk86ALnUKNFOSQMgx+V5MX8uB9dT3k7gAQCnPXEPb4Qjj0zA4k++tUMyygX60MOp+cgRh3kZ7o1NnkQbm0wDPIcEqhGfcMOaoxoa3Nh/y82pTerTUezJYO9WVDibEZu2QRHNQkx2CTPl36vb+fPnFUnpHeLr4s4ZswNcOWOMBkPlV+uzbEJyxORQTuhejUFdMt0oKUei7FYywOFnGD1mFA8xWmFheCJHJu5rl3deKsaNj8rd16gH7zQsKpKfG1j+iQsNgwDSDzPFODqdDEpv8eoBgwFXQBLHMqqVK1fGtkkaFGlgwYv3TpMyBIzRq5IWki80cvBxB3VHycudNbJ0fjqEpI6NdELeky/nH74J4w5H+jxz2kNOm3vi5D/4IR70+byjI/hz1h2LcoMe8a3TpUNaIqf8XC/OG8/Ed5qmhT/0cdD1gOMO6frmmTT35ShHeDY4mc6b3/zmKCfeoyN8+ctfjrH2pfBDuvBs0AGEAVpsReAPfwAth4rCH/k0zwZqaKPzzsuUvMF/7sc9wOK6cZ2ddtppldxGAFbeUBWRX8KQLnHdjtTWlspQUQyMVkVhGwO6bi+kY9DTapM6cMO7zGvGzkDu3YbIi4GVAzExZk7+KTPahex2hGU58uXBIoBN9YofP8IDzG6PHhTyrx3qUUJMlTwSn2eM6SxatKh+Dh7+/u2rzuN9bcstYAo8BlJJT6v7zdulp28FhDlCTHRDxcBSL3aZeUNYbQnYqATPYf3mHX0UOtt17NTVPtOmFTPnzdkSStwRAU0V1EbPMqbvgDCAiziNAXFpO9PN11wn0W1obepsEiGlKXBnzowTHypIyVG9k9vR6NzwyKMbNH5uaBPlgIblDkhDoIHRSHBuOB64CIvF/re//e0BpCzC16d2laNK+PxHkqChYduAH2t3DSrwxBEnNHYatIHo/PPPrwK0gDYNUJ9PoQs1qECPez/nDY78IZGwHZZZYpaOCdxXShpd50kP8gR9dzoGCYAT1QL+OOjkLn9GVXLppZcGfVZA0KnYcOHBzIDpTuh0PMCQf74COM2VuIQn/9zzIz/k13UIH84rp74C3tDiPfGcDmGIty8HfUDGYSkPaLI9+bnPfW6VTSGAKSsuOOuLlQAYROczm8EFQz3oqpHocNQTukqdlhwDGLQsSZI33sEr78gfh0kSb2/tkHxBg3rBiDn38MQnNe2NMqQMNmzYkHToaBUevQ4bHTJHyjDB6nhIjXxB8YVEXOqK9K0y8kACfU3ERVrkj7ZMfbNDUdJ/xCPvTJJyYCl5d7viqwg65NX0ScPtnXZgYMeKncox7OpSF24zDBj0I1RzOJ7hhSOdOFmZLxLKJHc0VZdlqdmOC1fMWyFHyltxmiJi3C++4/qbUicrwORlS4nF5ga9RjjNbCNwfBjC66L7HVsTSoW52rO7dfr8OWkILFUAMsoSMGbTDD5ksllLGTjaHFDliF4ypBynNEvGpuXH2t0WATZLJRgPsBQmEpPWWSKgAsgnecT9/+29CZhd11Xnu6vuULOqSpJlO7ZjR8YZjDPZJoMJGe2QAA00dAwdIDHd4MDrAT4m+z0ISTdfvxeTJtDQ/YEhPPKAQCcOZOjO7IQpZJQTk8E4g5U4sZ3I1lTzreHWfb/fOmeXjq5uqSTZwjK5W7p1pn32sM7e/7322mut7XUGhK0Kn8HMd30vN6gMAOZhHDvFVVdd5RYpHfZIisbhOy5I2PA8z2Bjo/Ke6flz9Z6GvMEJZEBVLmcjNm18eQbg2lksgx02p9Fdh9zgns/K9ete97pYHLNzM+W8Gc7m9z3PZbGc6tvSUaPDGRQteN98c1rdeXgN8NxGB7jCTiDgCiZsuRMWcJnm0jkPSNW2lr+BohQ7qzTxvdzZLWOequYpvHnImdkx3T7c59LKuL6bOaM8SPYqc/c9adk9WJnWddddJxh1BDHrYJqClptZSrv8LfLg6D1dSgK08X3yQGDZDX43v5lldDAT/KT58UIul/RThi6Ncvu76KKLBnQWJBfuIqv5y4Ur8lCmaV7ek1bSNPo85w7+r3jFKzZk0Pmb5O/ltXWVe9adozvz5u+r/nV28Wm9M71tKw624sUrX/nKcGaeB8Hc58w7g611zucyAw64xjNvy5nLnduptLJtKaLSAMa8/fmdcijOTwaMBDRVY+mDJoPpbTpw3/QKSgGTPBiS620XFnXR1/nXjXUaM6xD42G+DYW/GkjEny0wXdu1M83xoQXcUC6DVY7NH30BYJVdLkQRgi4CZhOHiG6pY6Yd41EoATeUzY7U83jt5WF9lj947pD5A0s8n20VjJO5HhujjcB7GTirjSeDExyAvkw3OEMbiWn4jo0zg6Rp+QyuTs9FMSXKAGi65pN9D/hM4LS8NrIMRLn8GbStVxXQvKbTxDuWT6DIHc80DIKCcTKo2qF//ud/Pjp1r2A8y+MP2eaVcrLWKYMO97YbJ3eU3CFzfrlTee2z/C2se+aCjGN6XmewliZZPpjzNw1/0tfnuQzmb5m2CtLKYDnyuXTyXLq4lYyLPi7GGMdOL10EH8/zYGe+ziIYZAfwN7HhhtLnlss6WnbLZVmDiSHk72V+vX7W03YgOFsu383f2u+kCIi952IHA8truQTa3EZzXN91puI+XtlaL38P8831zyCXywaHOoD6Wog88jf1aH2duVke03YAlC5sJ3QL5uLBMZuW8YxvHvnaZ/leTqvax6SJ5TGe9LNOqnj5Hdh7LGib6ZbL6XURApzKcw/d15VHnPpadCq0Svy1PvPZ1HRdij0Zm2Ck2gimLfaZ1nq4XCxUwTpg5ip1G2Un3uQCWQJsWVUb6MwdTunwwc4bfuy6dPbhmTSFV5uxUq1BD2DrqjkIJiSq0dgawDuPY+R9EOuHXvdbKV2K1ycqPYDgeXnZRu0iCQXc8Bp2dCXOlCsbqx+NlfmOncOOC0dyE6PwjZ7nDrZZeSU0U7HY70n62KBcGMrpZkDx/ZxebpQ+U4FcbQN/+jUwP0UKTsdUnVJ1xfLlTpSnnt6zw5i3R0GZBj1gwzPv3Fgtn+f+ikZRNDqvjec9uUHT8dx0zNNGbFlM28Yr9yyNvGdZ9BTm8UgjPnqqa/oGn6OadpCON218OxcdMzqEIa9UWx/pY/BcE1/f9dw8q3Q0Ha9znTw3XY/G99yOaz4CmOlYVzs9XPJBpp6xy7H13EwUEgUh+F4GnQw0+dtWaWjaqkC5v5viGMVAOvG56KKLQn7ITOCQOzqYr+/lgTcP1vm+9JDO5pnLbTk8zyHXu3rf+HLSbkMvfXIbyPTzns7ime7fZfnkwP3Gfm83AxWs3FYmA3qmZ7WOub2Yr4OB7+b2aH1Uu7Id6xzeRTnL4yCEB7agg8BvegKl3zp/E4/+vGd5PTcty2I+ue37rj9pJj3saz7jG19MWcIM2Hf9TpYnMya96BfT8AhV4O2+Ng5lsykvMfjNzh/8xK+/bvrrzLK2U65JZKn6Syj2HHPZC84bMFXkoKbWIrLa+4dG07n4Ivm2G38RLmj44jQxtXeg00JfFuX5j/7a/5P2Yb65a4kOHJyqEgfBtShcQ00HOwGJzjeH0v0oa1/x0h9Oj3nZj92SpnCGXMcNH2A73CwWyqJhFP2uqNsZ9tcP6gcy2GBzI/Cj5497vCLnBui7ucHYGEzHRpVBxed+/CwXy/lJSxtM1ibI73nPBuNz3/NnWTMomZdpeW2jj2/CufEyZ+w963C8YDo5vvHM00bsPcuQO0AeKCyDwXwM+TouegSf57Jn0DJd7+e65Q7usbsT5rjeN2QuONNNWgsaOZiG+XjPuL6fjzmu7+Z0cj281ysYL3PDpmUaXueyeE8O0u/cDSRZpFHNN4Oo5cv0yPSxDHlwy/T3mfdz+arf03u57WbxQQZxy9ddLtPK7cej+VvuPOB5ne/5vmXxnZxH/k4+836V9pnGxjHtTHfj5m+X22fuC/nad3w/95/8fcyj2nZyWczXOH4H3/U90/IofaRBnlFk2lW/71Z9wjLnoHOuARehlhZSeuBg5y/+48+l4bu/ls4FG2utuTSAZtYG2NLVVDAw1OkmS4hT74X5ed71P5l2/svvvwViX5uaMEM4RVB0cMsTUOlow50OuIpWOtFQfOAvJAOVRqlt8AiV+wgbq1EzsVrRAAAgAElEQVTDlyjI7ah/FnuaFxzK8YC2mtZG7f6JT6ofKnd0P0b+eFsVx49tyA3FcxuaDcrGYDrGyY1GztPGkhtcjmvjyI0yNzafZS7Nzmce3jNNf6Yl0JpWbnQZ4E2j12BRvWcc08kN0zQEWo/mY36eZ8D13dzgLY/55vSqxyrN8jc2rmmaV66faRly2X1meQye53Ll+mZa5zLkcpq25TF47nvSONMq0956ZJD13OdbBdPKndf8cgfP389jlpGadi6bZc6yY9Pw3Qxe+ZvnuJZBmkjvLJrx6HPvV3+m43U+mqfXxrcsls/y+tx7fhdB1zwzt2d865/pnReRvO89g2W1PLl/mHZu46aZy+v9nF4GTPOqDhaml9uOR9PJx/xObgs5bQcB7+V+mNtCLqPXvmswjvXxXe/luJYtt8uI2BVMa6sAu8nHsU2KpCyAa5Rj3xs+0lZNw7TiRzS+UIhTYbnSEmXaef6jAQg0EWowGbxbV5+sMTJy7eTuSzorjlok3uRFrSTWkEGYQGSYhcVc17hf15x3ngUyTNjS5ERab0Akdt3VIGJQAD+O4FZCPNzBD2/IjcZGarlsMPnDb1XG/NEyUPhe/uC5jrlxesydPzc043QDWs7T+BlUPFre3AmrjSnnYzq5DqbR3aCq11X65/L5riHX3et8r1q/zN11p99Nq1yeKnAYJwNQrpP1Mq0qHbzO9Mplyunk75Zp57VpZdpmIDU906jSx3p4LwNId5mr18YzrUzTTItqeTPtPGYamUb+PvleblM+833vW66ctu/n9HMZMjBVv1WmRT5mOmUa5LrntPIAkWnue76Tj1XAy3SRbtW2lMtZzTOXLZc1x880y/Xrzs/rKkjn+udvleuR0622u5yW5cltwfMcJ7/rvWo63fTL9ajWJ9PEuJmmsUgl7qFhcOAfboe5pD1wOYuodQIRVauNX5RyBjXIgtmSM58mhj6g7RrYuaQmwWMfJ8F3A7ggsaJYZRiqfbFiOEf6Hf3bogKmuaHZrVt4j/xChmER4GxrgG2D4+zeu9I2VqgHw1dCHqkttJG75SLF+2fC32rn6S5Pd8Pvfr7Vde483R86N4RMp5xOdzzv505tWfIvv5+BZatyPJjnuQNUy5obY6/ynmxeOY1Ma6/zvY0Gv0mi1c7RXZZM+160zXnkemyS/AndzkBRLbf3qmXvzq9a7u5MetWjO85DeZ3bV7X81fMTySvXp1fcXt8o1/F47/X6br3SP9l4x0uj+qwoo4wX6LeKH4zZmc5tf/3BtK62B6KDAVwkLrOupfFCg73FjO9sQJZWC9s1rhc5XvD4S/XSdAjOE+uxoj8PalERGgjj29LAJI42wEhhMzsDHwQ0dRVW/Aq0VSSsJVkdS4qvYbaIELGD6RJIXwinS/HFidbvYY1X7RDdDf5EClZ93/jdQJGvuxtf93vdeWUOwE4h8Hk0VIG3+53uvLqfn8x1N12qtDmRzrJVXtXBxPRMv1rHah75vJu25tErXvV+9Xmu01ZlO9Xn3d80X1uGDMSmnevenU/3+93PH8rrbrpl2lbvHy+/XvG620g1zV7xj5f+Zs9ymtXnJ/ddZQALJvDoMhWLYnydgK/Qr22vXZ3mFtKXP/2ZVENEM8hgWgNww22BMxTkt1mkMYzSQBtLsmVFqnC+3/r0ZyTkfduZHpEaKdqHo9CKJkZHr7n0GU+PyC241KgA+ZlxVJCT0J31Ve7X1lithrP96qc/i8Y24gRltnLGxpUlPsNDtSNUG8XJfbhjK5nTskN1p1XN59g3izvVxpQbQ3cnrMapptOd32Z5nMj9DA7d3NqJvHuicaqds/udap1zvOq9DMy+lwegnIbPTpX+3eXY7Drn77eo5m8ZHRxzmfM3rKbjvV51P5H2sVl5TvV+r7ZkfU419PpWOa1Mp1406c6v1/fvjuN1lY69aNrrHe8drwwhQUDuy+LV1e3PfymNL7M/G0i5vlbsw9cpjRf0digu2hZ0w+jmC657LfH9L3wirgwEWuW1JR4OrmF6pl4YG93f+rSrX5CW2XdnVaAoExgErbX97YSzRtUbBFVkiMidRsjp0N4vp3TPvejyzL95EE0FObK2OmKPgJAJXm1wx/sIm1Wp10fOjSW/U+1Ix8sjv6eowHNlUtI0d4AMJFulsVlZT/R+lSbVOpzo+1vFy+XPoOh1tY7dnaja+XLam9Hd572eeb9XvbYq62bPe+WRy1kFY/Osln+zb5fL1h2/+m4+36xMJ3o/0706KPUaoE40vWo8y5jb6ekoe/6O1eNm946U6whHW9zrvq7UIMAWDnR5+Ybbb/1gmiLquGtZMpL0R1VidUfrPmPKxe2frcXCx/cKCgaL+rA951yAFsx0xh+yX0EZ01q3flA5t37hBWlwBOcWAG3Y+xI005WTzQ1EyNWoYYg4NcQIw+zy+NU9n5SzvRrhRRoqN5A8k+W11isvlnieG4bn1rO62OG9Uwndnbq70W2VZrVDdnfUDErdeeQ0jf9gQ6ZJdwfcLM+TzW+jPZVlraZr+avX+bzXPePmRZ3qe1X6VcuWaXmy5e2Onzl+71eBxXyrnGG1HN31qqbZXd7uOndfd5fnZK9zftV0cxrdZTnZtI3fXd5uOpxMmluVJ+d1MmkeN65ga7vcfyjd/Q+fScNL6AcjIh1EO2EVpzSZEcptwPZn8HqF9a/deF5jD3sTsXHgASxEuohvAWFPluSHuTh392OKh04lHJF5aNc9qgNzr6F2AioRU7DNd3x8D26blqbxjBOFfCg6+3GJ8RA8rJax+2OdbPm7G9LxOtWJFj0PBnbkqsw2lzWDRq+ybtU4T7QMOV7O43h5nmqap1rW6nvd3+9U0zyZOhyP7tXy5MHKtHO5er1bpW2v5ydTthOJm8u42fFE0jhenO50jxe317Pq+72eV2nU/f1PhX4b+cnwgnsuat390Y+lwTl8T3BRw23sAEoDYcIAtmYNjKzWFxxum5eajfTcF78IQ4bmNev0Xde/FC8oGAiZrepaw+iPpdGRgQuf+CRECSPsS1ao36i4q4wiNwYtw0KmAZetQ5rUmk+z992T0tfvIzVSRB1Cbljs9lfIfTcXKxwVz3T/iULuBBK5Kkuynj57KMJmHz13ul55ZDpXue0sSsgqNY6sm4XuhrdZvK3u51G7ml4VELZ6/2SeZ3pkenVf90orf6Pu72fc432/h4o+3e2ne6ZUrYP1yvnm+73qdLrou1Ve3W1us3bbK53N7uX2W23H/5T1s1yBPSWmxJoT3dpjPCt/nhfqrQVG8aVi/SkttV7zSXxPNxERjICutRIDh1FrXWsBvKDoMOquuugSZM1mFa52dQTz3MuvuCU1h2+V8TTVAGePBaeLFYeqW4gUzn/2C9PhoQkEvZhVooWwjJNG/P/zUiE7bJDB2jrmdbzYRGRQW8edWqeV/vbP/gxLtEV0H9CztXHxQwWfyvorVSlIxcqX632OEdwpfrnyFi970pEQpytUO0NuEN2d/cHkfbwGe7xnVTDoVUbLVJ2mdpcxN+ju+yd73auMJwIYJ5uP8XuVuVf+1bSroNX9/okA2qmUs/pOHoxy3hl8jWP+ufyZZjne8ep1uuh7onWttr0TfWezeNW65O9xuurX/f0tU8aRwB4wZZV1KfnS2ICRow4P3enWtak1ZvHuGTcwAGItszuIxgz333/DOlsLTYCSnU5hmisPJsiODuDXYQWbhEUtN7EIBNQWsbhdHmqkS5727aI6vhBkiApfMq5x8V8NB83donTALxHw4nXOEy7DFyMu6mSf1SVD0Ds8DoqT8QKmop6sg+ZN4g+7u8PifPrGnbg7wyemzsRrihJocMEBG5R/BIdcNMRojI465WMP/4RMbSXX/mmfAn0KfLNQQIzZmGPDFOJMIrYuajSwCuOfONhggSs9sK/zwf/6G6kNntXBx6XWQuG+QBgD+1wYq8Phjo+MpzV83Q6NjKYWGDmDmOHSq65CXjuxPdwjEo5w17CV8qyxz4NHDxOjA5deeXlaROi7yC3NcJVVzMwdIgaLaEOF3XIT3rg1v5SW2dZ8FF8JDUQRC3fcWazAsXA2ABgXW0UUDHRwsYJtibDB4Zq1R346O88Ow/rA+83S/Pv17FPg9FBAb4X+DGpqNeFekZwGxAUGlaK4Jj5d2spiubeG4QL2xszQF9JX8NO7DU61yYMmcRUZuIy1gAOaBdjQNWb8i6sLKAQ002FVXwHe7RddlIYuupC0q2zkkfoNKp6QtS7tv0I37NGXfms4UxjEe88goDqK0FfWujZUet9BwVe5xhBxx0fZW4rCrOIw+ZY/fD3s9z7tIUNFrBAXmJnaDrwbS3JHFyTLVBxxXLXLYHykiP2zPgX6FOhT4MQpEPLZ8hdvlQydTmICb9xVwSOg10abyhm660x1Z+mIQr906wfSTsQDw0gT1th1vAbLu0485bMgb8JQF0tbBKuIDsLfBU9myPQpL3h+StvwURzyhgLoq6UeLPwfIF+Fky1VaVM6/9y07eLd6RCAubDYgoN1R1ZlGngnQgWiSYY15Lt6K28v4/SYvdR34fyiNj+bVr98VzGUBHtqpfxR0MzpWlf3OXO4CeXgIzLaPtBWP03/vE+BPgVOnQIwePJ1/tQuQC82fHLnBIEeRaF5sXm1jSbVyjKgdzh9+C/flhpgWh2s0x+CjGWbRTG5YF0brJGIuzI2husYmM2n8emz0v0oBpzzlMsTDoYDkwNLuwJy/VBmAIjxUCRrrZ+E6amBF7785WnFPZgwPQsPVGSwtrIUgGsIc1L4atloHdcMwn6Pk+Gtt7wZr+b74W4Lr0RRYXIehKtVZGDQEi2LDbzO3G3xtP+3T4E+BfoUePAUUIwZvl8y8IE/G1gj6jLdHwC8VlZb+Dxgtr6ysue+D9yahtmRYZzHE3gYGwITfWeooXvNwo3jAO+1cUQjw9gCA2f5fcvTMM999IUhksUEqecMHSGBJgpymE7hAVpZYLzX+OLKtsl0SJEBbPa6AmVGAl2g6YKxhiaCIghFA/q6rWO+OwaIHvz8F9IaPw0c3JQstvyVgw109YfRABzzKvfWFNqqUhGylMzhOiJtjD8PnuL9FPoU6FPgm44CeNgKTlZmT9gRcDvijaec66FgAOnozOLC1WpVhdPN++6b/ug7/nfahahzRA0CMK3Vwq0MuNZQtssuDWKgOzXUiaNUII1PpFmkAs9/ybU682LKLhi6TnVsCDsx2Wn1y1RnkesMXvucswaeyp5EK8hkF9UsQDG3DhC3V4qtj4NNBsUtiL4ahwRI98Biwexv3vIXCpoPDmLkIIiGk91SNcH4YVNsvpXyBIvvzX7oU6BPgT4FHgQFes2U8+J8gG8JwGh+pcnRsVvX0KYCrzof+rM/T0MLc2ko/CLoqLxwTK4BA1vOhdx2nIWy2G0XplFZ7Swo1ti1Kw1+yyWxuLaODBd+uTdnK9hrnCDgotRQKISX5mdPeMFz2ZUB8QIewdYQVNQ7xV5QiyTqhmYywuq4aQLcQWwwjtrENgp63ydvT+nzX5gOZw7INlQdW+6w+yx6bPp+HMI5g1hd8K9CLmlR8Uykwg/Dg6B2/9U+BfoU+KamwLqL8SGrDSEpYBPmCrFwJirJ7YpHq+y60GivXZ9mF9IX//pDaWipxYK/joxKjpi4seAG3oWDoRX2oAMH63C66FylRRz5P+cHfxDl2/FbUPliti8jeUTPuvoRBhUDIJWIHXM1RgilazUGRrHtPfuc257wHc9K+zFVayH/GGCLc8Adb4zsEoAKxAriBLnhAE241ybvKuvYTprv/D00ExaX2Zt56WqZ9jVW01ZgXSUCdUR+q8LvEYCNJPyjnKVLY6Fa4P55nwJ9CvQpsBUFcPoSgDnojDtwplAF0z2iOrVLMH968RoRa5ZXbn7Hjb+SJpfYEp2EF9iX0Q0cwz8tGKd1YJtr17dqpCeGt2CLWwBu85xHpennPw8thLFrCxVaUbpgHrvLSJnceUEuU71YZav+SFzZw/jIlVeyad0BMmhMbU8LoPpSS8Ew5XfFjP8bFjFqHSi/hcWeaK2m2c/9Yzr4zneBs+3rV5bnr66hBIzhGUBKPsYjm5qCkzJEmt2l61/3KdCnQJ8CJ0mB4EQVX4oocriwsaHz788pPv9c1B/zkrWo1t9/LC1+4a60HTwaZvGrOcYeZ4Cw1mUCbIgdZBjhEoVqxQ+LCHyXmmPpqS96oR4Tb0KToeBqwc166cSru9jqc23c80yZqkmG1y80DdLjH3fLpc9+TjpEgdvDo+iXsZGeC2TuJineyg2H5a84retFNpNDfPAYVME+fMtbEhvXv4Rd3Hez5leKDRT18qIssry8nGwJtKG5QOjLbgs69P/2KdCnwKlRICbzpRihECcAslz7T/ffIwJxa+n69OWvdN77//5ROgssGkFOO3Ngf6xFKaPVWkzVsHA6A1O6hq1uqH3p2RDR6gq/Rz/r2e7IcGNibUvH4qrFruAZTHjuDsA2Ny2EBRM4SXiQX02wFYjZQ+eZ1/5Q+hqyjOUhRAvKcE0IUPUnwIaKBfGDzebdIQrWPnQgre+7L33p3e9nq/T5m4dIvq2KReRDMWKUIQTQFoDrCOKjEnO7y9q/7lOgT4E+BU6IAjFbF2K0jg1OU6OqwDNm1WDWipZiSzd/7b3vS80DiA0OH0zDvHDWzh3FJqKoWrkg5gTfECqvJNNC8XaBtalDKAy86MeuS+nc85FX6AcB3wjLS2kFQ4dwWdsDxNj1BsUrAZDgaNAm0WDD3RcdDhZdryvThRceuuzZz00HlN1mKFRli5KEVRjB7XNKFIXbZYdP2NMxtBH+4V3vSenOu1I6NH9wvFSZWEGjobAkU3jBKAI9FFwbqgtlxZ3+3z4F+hToU+DEKRDOZ0RJsalcdReelLcOgTcNIWtx5TXpjn9MH8GAoTY7k3ZOjAOumOLOzqVRdGqHWZ+qAc4dNlcIHVfwTLntIr8ZsHV+eChNu/WNarJwv4otmpj3ml+xa+Ox5S38JZKQCrrKJfynmCCCIwLsMbC+96of/dFUm94eYgQZ5ELOWy6oBXuKRALEVARhOo3mYNpGIUZnl9K7Xvc/kDqvTqe51u42jmoawxTKUUdpgkBbChgUH2SwLWl0bIn7d/oU6FOgT4EtKBBMIIC7DsqG8+4yfqjauhP60vIN73nDn6ZhLGTHANMVXMWqNbXexkUsIgUNeOsd9w0rtjhSDazFoloLpF4ZHUo/8X/e6FZi5AFGalWG6FSlAUFtqY2PhR4Br18FZyqnmd3Eeazj2UYJQ0ujhumpK9MF56XJS3anFki+QAXWKIR6ZtmfQQClGfBMkcIinnLqCJTHEByv33d/+sIb32RB9tY0jpCHFtxLSYKHEGCXoBtijTBsKCMcVfDi3YJ8Ui6TsQ/UR5Gpf9GnwD8DCnQzX3Ko1V93FWOCDW4oCg3rWFSeYuYMPq1rI6DXwvmF6/fc/Pp08M7PpwlAdHyYbe+JM8ji2PAQHrxwSKNT8HVFAkoglOHy/jKRVoZwJb5jZxq4jD3GpqZD5YFoWNmOgmGsTOFydqjmLg3HBrOIwhVLbrxLgrHnGCUcxG/jkM5wNUrYPjLwvBt/Lh2EfZ6FxW6PTrFXWSO1cVKzzGgw5IIZLHeDe2uMFBZ8DUGxqhQ7YOs/9ZdvTen2T+P4cX4PrsKohKCJzJcRYQCPYaF6Rr4thNQaJMciooMTZTtC3BKkKY9gfZR/hRLsBe3id2xl+3f6FOhT4JFBgWJTRa1KCyYuM2Mqmuo4awUUxj51AxvEsBBJAhaKQw2LOJGJBFTbqq2muvIDxQv/eMfNX/zAB9J25LaN9WX8v8yCOZ20BGPoC03ECB3SH2QGjnVAGGE1mtvSYHMKu4Ox9NJX/2esIcYG1vGAqFvcwHeY2noH895BfN1G7seGY1jHYvrOutkqFS3Zb60iXMXTQcIzvvf7Umd6R/o6bsXqo+OhCjYyxmhAwdcxz3U0UYk4fD6SepORoT0/k8Z5/rbf+K8p3XvPFUiSr1+Zm0H/FjkHGg96zglNY0C6iYqYK4EG8w9iC6TFrbh/lLaC4Bp3Bebjj3pltP6hT4E+BR6BFBADir4vCBcizCPz2gKY9d7l1F8jrVH9zK4tgQsg4SrAOz97fbrnns4fv/KVaRz/B2PM2od56v6MGVNUZQ3nNMz0V3VEE169BtMc6T0AJj72KpyDX/iYi0HutAq2xex8A4DMuShBwcQeTeRjwLZ4jLXEkBwlerWw08pUB5Tdnn3uwCUveF6q7ZhOU+ecnQ7NzKBiNsTWY4wQ6KahpBbsd3DHym+xaXCUGUJwPEhlV/bvS594yy1oJ8ze3GQ331VZdTJcRn93DTbWVTyVkfVsDrmog4JufwXYyvkOYL2Rf4PrnlMFfnK/VnwVjtlfMZ14BLaofpH7FOhTAAoITXKrBPs4oQBb/NICGjKp4kPMugNFCqyInb+Vf8ayE3iBPFU/troaSDMzN//Vb/xmml5YTtMwdmNgTh3RwjDpNwCMIZxxacDQgsPVwZbQOXdoNjXwVTuLSlfz0Y9K3/ayH0W2uniX8gXfMcQB4AWaijwRg1aZw4gUT3oGAAs1LcvXQEzg+tq8W/UqwDjv/Guu+aFr0wO4VhzEyixktqRxGJtiHTPU2dkhtsVhJBhyD3XkH3XY+Enub6PSd/7N36TP/SW+Ew7OdIahSY0KN1lMi61eTEgTX0sFEQNsN365uMVHKD5AFhkUR2Nk0vesVv9mnwJ9CjxiKFCIEI+IES34kZkuDBmdfWNRPZ5xQwCQA4YjXZifT6POfGdm96S5xTff9v/9cbr/U7enHawbTRARd+CIMN0SDMMu8ErcCv8wWoyBQ87Rp3bsYluwgXQ/cb/nFf+2sKydRlZLXBfbXPKSyVsTbM06bsQQcUzYBGwFWfcZ0ySXnzVATptqGDk0m7eOXH5FOu/JT0zL4yO4GCscywwBvIoRFnHqUAinNQKOrR9jpKkD3vW5mbQN8P30O9+d0jf2FYRRTqL4gPxUQdM8rlggq8hlC/oV8hnO86Jc1MZ6UbyC+5U8/dCnQJ8Cj3gKlNxsAJg/mbpyul4wYAXwukmBcthC+8BaCwYsvgOYY4g3UfGCaRy+8vC73veSL7z31rTTWTOaBx3Wk5w111lrqpkwACwODcIJN5nFL7dAPWTDD8zNo1OL/u3lT0mNJz0JZYHpi92rMQoT60bFApwYr+GDOORGCb3CptgUK3H8a+rtCwhr6FIRmUXSr+Pk+C3f/jP/Pi3i63aGOIPIRtyuV+np2PgoAue5AgPJU1+46wItOmw7ECfIvk+wPfDv/ORPp7T3K500N/+aAUaR1aWFWFSrI5RW9SyPDYVgvCBskLLkpEOdwzpV6rUhbuhV0/69PgX6FHiEUMCZ6pGiBtByGRpMAXBHnmmooNiyZCs38KCDjj9ApIrX9enDH+u87Td/O00tLqUhZuR1FuZdoG9HempWweGCX8prs0bWEIC7ilx2ZWIizbDz+Pf8yi8LtDehCrtXeW3sxABzaHnCyItfWKjxEwd7hQFZ5mODowOsNO+sUrPaABztCtXVlaIrcGtU4uD+zuJHP5ze8drfAjzn0nYeD8vBRq1ZLeRcoG1jVbGMT8gd05Nphsp3cN4wz+JZa9v2tLrr7PQ9r35VShdhhYGYYVW5NM/XygLn/ckK5EXUILvujxshICenJsWvLpi1IaJVz47Kj61b/06fAn0KnNkUKMGzLKTgGoxVybV6FgDr9F+44RiMJmApZjknj/n93MLu9LFP3vV2Nm8c2v9AmoYDZgMvZuCFiLRwL2DCheWr3gZdY1oFu1YBm2VcDsxMTqTv/Hc/ncaf/ayUdu0aWFxawY6B7cLkqFlf0id34E1ZptDjJb1Cm8LzI+E4nG0UIdhz5b4NHTQgJC5AmwJOjF88+oxnpnO/7cq0MjmNvTDASgVD1uGwRMqqXigHGR8eYSFwLo3gWrEJu76Nx6OsBq7d/ZX0kd/9XXazZGeH1sL1DVj6JXa7rIVymwSXoOWRdwoW3cFBkhQ/rTr00BOjX3yQeLMf+hToU+ARTAG7cnTnOCk5R/s4l/KO3vFY6PoX1+JPcMRqM8HFpn+4/a63//Zvp7HZ+bTDd+bnWMxfhjFtIF1QREp8Z97YBZjOMtywG9yabmN6Kh1EpHDBVU8HaL9DJ+FqqKJ5hcdDVFwVMYg9iknR0g3wDUdeFrfEobiohE1wCUZYwKPMQxwHkMXqCUwrijDjVcm31tyLr8WB5/zsz6aDWFLcz2iwxi67+kZwk7RROFVXAGO0oJCNOoq+5WhUx6fCNsQUE8h3D3/20+ljv/PfYqWQZcA0znuaCS+z50/YNVhw8RVvYp52UNeQe5b5V9POqUCMLvkXH8KfVO+HPgX6FHgkUkDG1J/rOIJowUgJZgVkDQAOet9qo8GkCtYA/gp8ErPcBYB2aanzpte+No3CvLVnD8c+idvYVcHNHVtgyxB4hD4BmYBXAKxrWsOIRd2Bpj4xmu5mwT+dd0562k/9JIzl2EAHbHPrsFU0rIZdXxL4LVfAfgGy0jl8vwD2VTFIpv8mYMvjULFiwYl3Y8WPrXv1iRguFQHgGh7AEtoGaXLyph9/9a+mWQB3HlnGApzrMOz3gQMHED4Xq3tif5vSrTpqQKQaJVlHXewsVMWa+I78wl//Tfrb3wJwDx5EhruwuwmUjo1AFNTj3P0yeHQVdhFJDAvigL4qHoWgPHuodDCgko5W/iR6P/Qp0KfAI5AC9G3BLBZhADJ+eVEsRIv071VwocZsu4VoUznrGrLY4Cy1ELv7a503/NjLUufrX08tnGFNoVE1AIMns7gIxzuCQy21pUbro2kd4G0AuPpCcHPbBTDqfrjf1vS2dO2rXymXyA/sYYcGF74aGFy1WsXmkRK2nIMX4LsJR5s/QO1Vr3pVj4/h9N0xRE85Rby7yoQAACAASURBVGX1QxvqDsRmGStY7WX46vrE2K0DY2Mjnfn5Z33j7rvTIJWp8c4o7HlsAQy4+nOHBkHadFawEhvQjA4Otg3rftb27ener96Thkhvx2VPfBms7U1trdPEdfVui60gCsJD3GDdeaZ4wzKGGnEMDGoj+K/wWenAkH9WMsB4Mx6/BxX6t/oU6FPg4aGA/d75a8xQAZ28fqPmQLFGw6yZ+/qc7bD54jAgiYwgpc99vvO+m38P46m70/l4KGxwbwywHNY1LCDqzHsZD4axU+4yDrNAkXob7lYrVjZFWBxtpP0jw+mFP/kTaRwRadq5fWAdpnKVNasm6bRarkUJsTKhzqGL4EKb+KjzGhHS//GrhE0523h3gzssHNXopCb0yIK/JxVUwdBSk82+8fJ//cNp5OLdaXXHjrSgo3A40MPzCygv6JIRgIUYK7plRD5SY6SpYwzRoPBDFLgNF7wDTYfb3vaOdMcf/tF0mp/v1BFXUG8qiBkdqhruhBkjjNYdOn/AnHhAk2IqFwMglI/6xXm17EdXeMMXxNG3+1d9CvQpcAZRQIgpZLUZtwA2O7bMHz1dKGBezZY2K+GHVufd6Qtf7Lzn934v7duzJ02h/bR88IG0jpaTs+BF5LVO8bUIc+G+AfNXA+TGG4gTwJAGbgkOA7j3EvfRVz0jnf2857L7wrZwHraCt0MNs+RoR0YA9xJfZPKOwZrjMHObg20mPDFiNZBr2egMtprzKrtYwotXiBPO2jnwXb/0C+nwtm1pbnKSjdAYgQDUBZSG5Wizr1uTVZdWK425BbYMRlVsHEH0MPq304w4n/lfb0+fcmR64BuddPjg9WmJhbXRGtOGJThkQF/tCbjeGNbaAC/bPwz4iwGAn89Jv1qxKsD2Odv8YfvHPgXOXAooqy3UqOjuWQYqAMPxBhrp0GppMTVCPrtyNXr7nTf+yq+kA5/8RHo01q8NQHYbTN1OFrQGAMthGEDTWwOEY09ERJLOmA8jxlwFIOcA3Fl2Dt/x1MvTs37+51TzusZdxQdwvFXH38EqQDw0AmfrDrsAfQC/5YmgZlSBOCHLlSvv4mqNtQnYurJWgqxAS2EE2iJysfI3iFdyjb1GwkoMR7z6Nzj/URf/0I2/mPaPjaR9cLGNyam0ABjLuhsacLXrDhUWz1EFT+erPG8DvMMA5BTEmEQ97K5bb023/vpN7lZ5Mw9fg3nc1TW3pJDbRlCtmS++HgPEC0UPZMIhrjDhSL4cHIoPVtwp8szn/WOfAn0KnJkUCObOfqxYEFzd2KtQAA5WkufLyGbdi7y1+ub0qc++/09/6t+lHfilvaCJ8GHmgVBDrcF4rSGHXUG0OYz5rWBbB4BXmTUPsNd5ZwgxBXr9ncnRtI81qdqjL0gv/g//kZWy0ZswGLh1YQlG0c0dAV1dKMrH1VwcU9VM0pVYY5EKazbNi0sc6kHaTfRslUcUFc56ZA3lE3KT0oAEQ+0CFQi9fYUnHeQmCEOu5q2r733Pu2/4+OvfkEb3H0ijsN4TFHZ5djaNaPqr4QK6uhZePwqy9C12620itJZ71mvPPHKYBYB64tLHpuf89E+ktPtCRBUTA2tyyAMjMY4EZlNGzeTiw0TAO48LZ5ZdUTOA3ouT9V5fnJBp1j/2KXBmUaCYSSMWVO3UjuzCF6irq0T17OV0Gzqumlu6/sC73nfz+17/+nQWnOrQ/H78HOCfFiOE5WVUUMGr9mI7bZ+ahoOdS20Wtzr82mhCjQ0Np4OHZzHIGkdOO5buBqN+En3cdPlTQudfN7GuDtUBl2W45wYMZDidIXRgJJVqGsSaIoiJ+mYpIsUC/sazMm5vo4YiESu9Umjppqb1FaQEWu7rwFxADmKYsdtMqDGg/GRpac99b7rlig++/o/S+Yw+IxR2CDeMk5j3zi/N42dhjsFjPLx7NRFiyzMvsorYRJwwqk4unO4hnq2dtT3N75xM/+pXsd5AHpy2TQ20V8mswV5oZCvIhulu1M+a6WW3sJn2oXrCxbSjqGxwxvLngcYWWnivhkJf1zvZci0/9d3u0E3M7uf96z4FHrkU6O4b1qREm7JS1T6xVV/wea8+dDR9zLPIYx2GS0UEfRZEP9VyjP7t+QCigHRornPHX7wjfeYtb0ujBw+mHXCr48x+awMraQ5Vr4lt03C/nTSC/v/8/CIM3lBg2SBAvAp4zML8jZ11VpoB0w4iPvjXzqQvefwrOo3m76PSipYDTsQxy60hNqhpX0CxWogu1KSKmToz8SokiBenDLaZCJlA3cS06t7zV5KnfAXCaGd8YLbz2T/50/TZW96azkY3djtESOzRLgs/jjXZEioX2hjjaxeMZiThpE0Fm6iDrSH0buCk9xCc7+zESLoPEP63v/m6lB51HlYcZyOeJUcE25mjXUF+PBjzDbdWR/VMmS5KeJrgqawbenqUTllKll+HnjTB9U5D9p+pXNi7+vQtQjG4bNb0ukG5fKlML18VdDpydexZN323bpjHptG/06dApkB3ezoZyoSvaFU9c6AxBrAIKKH8XpwfmVGKAZmTU02LECI+gusoXvIrzgrQVQ1LHypqJLnfoc/t98WmBeq9Fr5SaqX+bAdsGMTlIXLHq9OB/e+/5Zd/ObW++MW0CxWwKdJoAIrqSOmTdnycLW6Q04pDwoIuE5dYOxpmPekgzmnaGldtm0z3wxgeQPx53X/5tZSe8Fiw5ayBZTDCrWmbqrdS4PCbYNk5+NuMrt7PcaK+ubLxdhGOHqoqD/JpBtTuR6EWJnJROLf91Qqj+AF0Lpgx7b/sR16anvjdL06HcL+4H4KsyLli/uao0oYj1lxOcYIfRJmK6S27MwRhCcE1PsXSFMYMF6wNpD/5uV9Kd/w57hm/vg+xDR8U4fga8t11pgsjKDbrhR1FD8iEShogLbAaOrLAXSFU97gXPxrQkTpKjuI9XzlyViRwogDYg87dRehf9ylwZlOgbOzuPrDRT+wTNO6eDEYpYjzyDMBW1ldyNcf2CfosNwdhiFbhVF00VzbqO+JAnT4dBlKobqkjO4ioUc9dac/t73/rL/xSqn/5y+lRYMcUTFoN3yvttVb0+bHRbejcsr4DtpjOCgZZq6RpWs6kNa6qEecby6tpFhHCD/7Mz6b0lCffJF6JSRouNPllTNgKQPNHzNiwGV4ab1OZ7YNpCaGALHVZEUyHDnQ++YY3pH9869vTY1QuRoit6EHxgRuwrUMYv4fe0Nv8ZNl1SLPSWUami8oFntEX1OyAMIeZAlzwrGemZ6Bmli75Fr6IWgnk415pyGAWAN9RrD8ck6kYxFagLuC6OlgMDo5WmuQpEgn5g++XqCozmze/1AQvh0xwYbs6OuXRy2Mmdj520y/H7b6fr7ufb5bOZu/37/cp8FBS4Ejb7s2PRZ8oM/Q8MybFe3LGTvlzBNPI6RxJD0lBAOAgWgHOPfUYOMyUXk53FSRed+Fc/XwZsMOHO/vf8770d298Y2ogNphghuymsm243WEWzU2njRXUBH4LtGAdpKOHfj7vL+Eedgh8mMOvQQPxwv3ktX+smb733/9Umnzxd96EqsENaWo7eNJkx5wWvmYUUx5ZyH+o6HrKYHv8BaaCa9X4Yu3+fZ064PZXr/n1dN+HP5x2woHuAnRX5hBOA66qZGga3GKkETSbqIstQ8BBVgobsP+dBUe8kbSMyOEbEHEVOe7C9m3ppb/AiPT4x+FkYRyK8tWabr7GqWIIUDEGWrz7GCxrGD7YJDgvdgQupzkV+LTxZD5YxrhUqS7S8NXcoky6bGn5WAVkX+huot1gGolWQvfzPth2U6h//U9HAVpvbt9kutE2M7pW+kLcKvvFkTbs2kfxK8p8LNCGdSq3VamSKYrdEQjRB5neaxhlXw2g/fJXOu/6zd9MK3u/nMbwqbKNZ2MAaRuOeJ4Z7ig747q79yJ6/RNwrvbbQTyML6vmBefsVgRKFbDHTTNwuIfZsPF5r7gu7Xwh6/lT29h4bASvg25EO05dBgBnnc3AyMk0ZrljUZEH9fe0gK2EduFqkFU/J/aMSnsQ0l7x1lf9aqrtvTs19+9PZwlmK+4RVFYIFQsX3/QyFhWE4N7pYLkxxILYIHKWAVw5fmUGM+Bzd6avsfPD45/3nHTVz/wHAfemNDJ+I5sEkR66v8hra4C1AhsbgDq4oT9huoxYTjEc8QpErsBibkyQNNqPDaYkbzf49QJH42yAta9X0ntQX+kUXu4u7ykk0X/lEUyBB9P27C32X4PpBN9iP+qiR7HO4dNyJms8fjZ7219OI4sSfL2w/qL7Mat1Y0U5WRdfVOeM7bEMiv60BltuXb34/g+8/8//22+nXTBsTfTyJ0m9qYluOVNdRZSgqEM/LDJTetFuIzZYG5B5o9cjglzXfeLoRDoANtwLJvww9gDDz3mmzrTAfJgu/R6AVFqJ6WJAsXQ7ZM1nCNgWVOn9N0CHr+NuD6OaxbmiKLDOzHQ+hHrF1z/6sTSBOOFst8vBia/WHcNNRiTAchHRwYiVBxRVz1hhCwunCArOtUAbGB9O86w6zqInt8AINXD2rnTNj/xI2vbky9mU8mxNQXSiqyO1kOG4ehgND+KFInJ8TECcZzaqInAsH2000mhZBXT2Aq7uxmycPtiW5OwfHnYKdLfPkylQMD1l1wgrfV7Ox+zZKrsQzH2jyK9Y//Be4TYKUPVtGaroX3K7RUnc38vp/wqcq/sQxmr3Elysi9rzc3vSvnuu+OB//+9p32fuYMNY+CmBGZBdB0fcimuRa8G5qRkuDqxq9GmvTdetxduAZgt2dgRudZap7mE45wOodF33n1+VBp7xtGswIbsVKwWyRS4MNmj077CiZZr6tCVonBmc7VYfzylCh8o6XVD2ojUZQ1lKs4c6e/7g99Nd7/8AfnBncSaOZYbyVXfnRVSwyjuhskVQLQ3D3tixV4fidVTL5lfwiYuFiDpzs3C/7fGxdJA3vu27/kW69Lu/t9BYmMaemQ+0jtpHTVD1XOG3MuHKtEAoDZ3baACF6kZeYS1MN46tZW7EG8eyAdmWikGmeEcdvwfT4I/N+eTu9BogTi6FfuxvZgpkq/+sZZC1do4wIMV6CL2qQqYSoWn7a/SrQjX0yIq+EaOPqDMrtq7OI3fFGZV98tDcm3mwNx2aveHOt/5l2vPOv0znIoecu/veNAku7MTxlbJYF+MH2UZLPNBvi14J5WYVRayBB4vslqvj7wU1lNBoWoIjXkRM8ACM2Y+/6pUpPfky3CWyMy5pDuJcZmWBhXWeiRG67JarjbV10/f6TBcjWMhBBczKYUpVkXX3+nF6oD4ugPulN2H48fZ3pJEH9qcLUNVowd12kOeOytXyjiOj7hl1ZiNyhqkdYgk3olR9TDUv9eUG4YgPANCLIxNpATHDd7785encZzJFOPs8lJOZoriIpjiCv+HYho8TAEt6G4DJiY2gAMuy8Uj9Mng/x7U5bbznx6hwvxlwfa3niu1Giqf/pA+2p5/G/5xziDkdHKmWUR5LdXv6SNEvNvpLEKHsMzAsYQwl46LoTrlsYEH53D4mE2Z/IsE1uFQ5yfTAAf0optU9t6U3/s7vpnE2GxjHH0odN4fjQOlkYwzvXGxTA7i2YbhcTNcLVWgaIX5oIgrQd8EauNBC+0Amq8VmsC2wYZH1ofVdO9MP6MHrokff1mnWb0yj227VObgr6ap4CQ4W0bKtlCpvDZI+Y8D2eA0tCllyfMuuKkIkOUpHIYQoymJidfHQh/4+feB3X48M90DaBds/zpdZg9Cqf+mBR7kJDhVZcdQ9ml+NaxbAFpYXMIBgNPMWaaoXx6dJSwBrixGwhT7dS3/xhpSehEpHffBGnFcCznwk3llHp1d15A46eEMOBhQnFsNIbFUVE+KouSCnG9oRpL/MR6wzAHiubXUhH3LqUXwQh8X4WBWiqNKSFxHzMY+SGeyPR8MH+6wPtg+Wgv+8389tsXuhO99niZv2rCtTQY01EEG3ZFzpLGV/LEBVvsq+UFO/naD/EvuT8RQL6FFrnQbpxq5qg60gAhhiSp8WZnanuZm70gP3pzf8XzemYRiuswDH5Qf2sYg+jGwW2Eae0UEM4I7adlQZprUw3WfWC1Krm6sxlIYLI2gR6IlwBa51aWgbYsaxtHbezvSS1/06cghm1qh3uZfiArt5N0k/RCOBVUWItaYYVcg3XMyWDx6iwykvkG2dfyGfkUON7ScQDWT5aS3coSFbAfA67A/01t/6rVTf9420g9oNd4RO5b1wwq4kokdbZ+QaZ0NJVx5XIe6wGgc8r/Mx2xB3EG64o7yXZNdQKZtj8WsGrnb8ggvS8//V96eJK56qMDxWHm0YOgLWLFguV4ILljayUBXjXJDVJeQa4FvzGA1PcKWR0ZCaLNbFoBGynhgDNgwspItJhvP1hzH0wfZhJP4jIOsqA1AF3g0GITpG0bYDdDbkrrRvGQu4i6LPFDNF+0IHA4MALv+IqjA4K/TZphsv0qtX5/ACGAwOz2ZnOq3PfDb9/dv+Iu373GfT2ArPEBHWib9jlBkpazVyrINuyaWBg6xsiAQdAuj7iBHFAmW09RHWaGBL9Zk9NDqV7kcFbIEFscc+/3npyf/mR1jLmTiUpie366elUUe1jHUkxYyGspocZWUFWoHcCjqy5NGliPtg/54WsPVj5JXIECdEKKcWgq6gpVqGK45LS69J93z1hvei2nH4zjtwRsNoOj+btgOI7i+m5oCyWy1CYrVS5rgER7exaCDkFrsH/TCA4EKLBTU+6DLTjVWmFvMA9o7HXpye+X3/Ig0/hUW06Sk0F0ZvZPtgXiqE4w4FDUdNdfVY3XRKYvBjDtBg/C5+hgBbG5EjvVc8yOICP0vECa64aJBx8jCFPtg+TIQ/Q7I9Ga6sm8u17diWPRYMqu2+bNe0/bifuVtQK9Qquc7AFS/b79VzlSnxMD93daSwuvrmhY/umf7E2/9X2v+Pd6YxnFjV9dAFA9XBMGF0bBg1rMU0oPqVjmbQfQ0nU2QaukEdncPAmeo4hgQXVA1D9roEx7rOYthBVEgH2dvwGddem875vu8+hCrolWl8ZG/ozyNeWMfBgspIA6Vzg8Bc0qkpovSB8aw72HBkAT1uPehwWsE2xAdOxQUpKxAfDB7X1TP+h8NetArSzOHr3Rbn7/7H76TPs2vD+QjGx5kW1PSqzrRCXVyF41qB+JElvALyBlMBXTwKwgrqdWyjKomym7WYEiBekPucwDQPeXBnx/b0A9e/Io08FtM8TIbTJDp2gq4/y0h5BzQdZrQUZClxcKxqQTDeYWDBiEvQc5nlKKYhpQVa/hQl2Mod50Z8TGMuB4v8yuk49sH2dFD1kZPmVmC7AZZUqZeYyz5WDVnsWkBRgUn6XDGWux6EI23XZwRZNIpihwOX9fXOtTAv25tmbr89vf/P/2ea+9Jd+K/GOhRsm6SfrdPPXYhbo1+pG6t/FNRkI6geq9jP/hfiDPsecfF2WMyY0Z2dI+4CRk8zcK3LuFT84RsQIT72Mbh93RGuUKIcihjhqMUM4ccNYAxFNQucin3E1JyyVkRy04OHMpwWsI0CusiFPbPEr0PQWOt3CsCUIHvUiZk2z2uAY41VxDQ31/n6u9+X3nnzH6RdjFBuez4kB4yMZ5zpvEReBFx1PC6E63VsBCG4IOvH0P2Zq5HKdTXx0wLNOI2hUXzXTKSDmPytIMc5SLZPfsFz05OvezlTjKnbQOcr0tSUjGsxpAu0zjM8FuMDD1ygU51MF2s0LPX6iJI529y4Xdwz6KOhCrZ+1I0pWg+w7QbHrTpLZNIPfQqcIgVyW+z1um0vawQFl0QIsLUN+xNTZWKIqGiQ6SAqnDENJVLRz5livhnkfIniwk/++Z+lD70NHyn0nW3MFidMn73BmvQD+5CuV5fp75N4+puFyTK4F9g6i10yLeadtxiXNwsel5muGgUzgOMyjmNmWKdpXHRh+oH/9Go3M7gGkeGtLTjkYWa+gENRLlRCF/EONggDp5MZAb7E9DiP/hzcLWiljq51fgjDaQNbVYz9IPCX4C6A6hDDh1mHcsXYpO0z3r4AUzlXlLtSZ+bwa8LK7zN33PA/f+O1afCBB/C4vpaaeASbdhh190s+0AgewxaYftSYOqwin8nihVVMfPFCA8iyVTF5u6+QHtkX8WlpOxiE611FrDCvDp6OzREXjJx/fvr27/rutPMpynUnFDPAIq/tZmqytxgCGTAUK2BGLEcbStAAqorTxbSp6luBRxuy2vwZi6+11Yfrft4H24ewlfeTOoYCWRQnQ1CdeQUI03cKAyCRtgd3p2zTVWU1iwDa8PYnR7u4eBCGadpdE+7++J706Q99KB380pdR6zpMP8bVITBZEwB5FZFrgLWL0i6ihS49YsA11miabEsTmgdww/aLmCyWrguLPocPFbJbghlam5hK+xEbvuDfvDzt+s4X4hkQi1Lep8ez1uOWN5Q1uiIyY7fjoi+vq2XhfNvqVYLXGV991N0nj4598lenBWyj0A5/lDy2Gi/NZmVkVeMShGvIYmaZPjTYKNJ7NWWyYQcNuM3NHkwLs9N73vjH6e6PfSy1vvIVnAI30yjA3ID/X0Mu22T6sOb0hXR0YqFpbgOH5qtrC9FQ6jX08lyZFMwRuKsuFs4u+DAu2ukbd4F8V5lWdJh6rI6Np3Mf9/j01O/49jTMMe0461DaNrk9XEb6tWJ7H2THgO0Aq59+vCp30K3qFZx8JWz14bqfdzeEk/+0/Te+mSmwVfvJANuLRrEqH2Iw1SPDyL3oz6XTqABWM6BvMXW8Hv35m9kpIR2843Ppc5+8LX39i3emuXvuTufQpxqs/A/CEE3RT6Pvwvi4l5ecqmCqk5gw1SVPZ6jmptjRTRjtdxonrPPTSUxM/Z0xIy5YcBGcdZ3Jyy5NL7zuZSld+rhbUC+6EU5sr1twuWAeC2rOjnUJYB9mIIlZKekFE57rVRJBGa1cdHDSxN+KhuVrJ3w4fWAbJaZS0AyYA6bkbiFiCbZWTMBdZqoQI5AcrV9V7+iOnOrSYnG2/vk70v/+g9enxbu+mLbBze504QwQbSODbSDwFvD8aG4ciewA0YzTm0G8hq2hu4wHIO45WTD/OmDs6qjWauFtjFXJDh9uBtHEOjKfZaYuBwHyge1TafqxT0hPffaz0/kXPwZRg/LdST5m49rQHVbo48BggR34AykzB+Ag48jP0cU0gx+ZKEeJFbgXbcfHRayuv0V6fvAY3fvHPh1OsB3khmTbMvRqX7FRopwjCOZ03RCiMWdu4pwcZ250tlIdjthnVlZ3u8iFg6kr2EI73fvpT6fPfPTD6f677kp110x4x+NOfAu0cBgzxOxSw4V1XCCqXVBn+u4aSLFg5QK1/bhQk2zD2DQBRkUEqprZX9bx/rVGuVqgI6ZRGDPBOLFf2AHSevq//P50yQ9+H4zRtAr5qQ1DtKZKJ+qf4ssy5040VdlsY80qM2cdV+HI63omJGwwSYoOrKbdlmMv59/xwoMIpwVsq+Wx4A4iKmwYQl+PkC1PvBRWHNHySBIw44sAKlOT18Dp3vDxN/xh+hLTktqB/elsFsTqcsV8FFT3kMXzNkQVUFdpQKZdXx8KDlcVssLRRQFe6zSYcLemvIgPq7pIC9luhw/RQDBvKWcZsTssqq0wPZpjtbPFoHHh4x6Xnv6C56aJJyNuQAeYuc4hPvCtIPi1sNkFuNooo34CqU4wyDNWEbjP/3jiNI0QDYl7Gyu4xeMjf1mJtcH0QbY/2JzsYFs0orKj2YBse7Y7B/iy/anho1esMFPNHc+m6bTbBSW51zXEaWvt67m+nuvphFjvGx/5SPok/fBemKBJ+uEIIFjT5BbGYoy2rkc/3Z1mDtWsI/mS77BsmsqH7wGZMX6xgC7TJMhyW4+Ag9wvNohtpCWer8IYrWK0dB9APr77ovQD//d/cb3lGvYlv7VD/1d/NujkGEG/00otY495Fr0/VzWjzpGqR7l4358hk6S4emj+njawzYXOxaxOub131BS8XMHPcR1tAny94YaR6uQuzh/s3PG56ff88Z9gL/3pdD4cZh1h+jAC922A5NLCTFiYjQGEBw7PpMkxPLUzsqn5oABe0JWbdWRTxhsfMufLhy6MFpQzrwPYuHuD2utMd9oAM7nji5fRF1lQG/3dFrKl6fPOS+OomDxq97ek83ZfnIYf9ahC5tto3haGFOvtq5Fl/D4tGtmvX7Fo7HGMFmjLkBC51uXR67jv1MqjYE3j6B/7dDjRdlBOmYsVnxI9bF4bbbC9m5nZ3gDVFbjUNgtZGWjdT5AF6X1f/Hw6eM+96RuI8A4jIlidmQFU4Qj1K8vilkvUIyRdhytWb74ueJOIYBmADfOSm3YxqyvEAjIQBvtZnulFv+SfmkQaDC2SR4u+PIw89gBuUzssbs+rzomu/Iuv+/E0dc0LboPDupbVr73IJKKPxqIWaer0P5QiSrCNzHqE0wGmPbI56tZpA9utMu4G32r8GIwdCQHEDqyfMpbQ11teuh5h+833fvCv0t/92ZvTJPLd+uHDyHLbaZQo6zi1kZl0iuDIWbhvK/VhAbeansOIsKQTC6Yc7gwxQPp+YKcNHRuOeXOtIw4dD6uDW0M1jJJgZ42MiSa1Dlgr83VXzlWdXjBNGmCls4mmw8TktjTEyug5F16E1sRIGkUmPYxBRvjv5b3YBkiZL/GPC7YSpA+2/UHmVAdZAUi4c3WdqbpitzV/iswAxlVkp06nl2bn0yzT/cOHDqW5g4fTAnt1rbIgPayIgZX7BlzTkIwBs78BONhhGBcXtO0vMkLOHvXgZX/WKlMA1XChDROkXmyobMFsKNoL3kamknfdLKAdm8GinUV/azHNN/4g7yq5beNWVU72IBz20rbR9OQXXZMu/T58n+zadUvMJulbgeYhJ2DRizTl1sNQib7bzexVxBXpWgAAD1NJREFU8SW6Vh4Juh+cxuvTBrYS/3hC+F512phiQ4gA2NCPg7PEhFdVKrZs5wEcH7LcdHg+fewPES38/UdSc3YufOROMZou0HBsCMM4Gg8n4cR35PQjRJm49qPkXTY1UnAWEmCO+ECOWjNAuVHbqXGjIcVHdNkL7pfpUoefengqXOthbEVwl3Pg/gANaY6NLpXv5p2Fs56g9Y7pDi0vjpt+dPPsRaX+vT4FtqZAnrkpgo1ZIu0tRFb2AfuXi8W0XbnRAEn6Stwnrv1H96h14g7Rp4L5YZ1ENS/mk1wXoBrgphCgXDCOfsa1ayPBKAG1/j0yNS8szMxbnwS5b+kgQdms8LzEO8uY/a4P70jfAOAvvPJJ6Xn/xyvwdbIDC1BcqdabN7boa8MYMMhMWYNiFwYtv4QH5cCa2R+/82ze77am7anGOK1ga6F6AW6+14u7Le6x8shoHFYpypRoCHKXjmTrWJuowsX25motdNK996a/veXN6fMf/Ju0A7O1HcxZRgVQrFFCoB/sYUpjLIAtLCyEQUQDta81QZRH6zHvKZydq6hmYxNU5QDqjOCaCkeZ+MCWWy7YwVmxhO+746dDdl7FdBQX4PWPGet8lW/uokC1zpvJbHVPWci4zakf+hQ4eQoMIeMUUIJRyD/bYrloG7sYuGovR0GwXTfghp3eK37L/UaADiaFowtZ+o5dhiMW4Ow5EZS9Eif00AVm+uyw2gARvAcoywlj/VV4raa/qH3ErK9FGeaYQa7Rp1sA7pJMjBsujm5PL/1Pv8biF4vTOvIeab4ibRv7feGenkeaahog33U0IThLFWjdI22FhbYGxkl2ze7wcIBsLsNpA9vuSlavjwe2xgtfmSVIdRi96pri4UndzdzG2MNMbz+a0jaVhXJE9eTN6Oa+5FNvf2fa+5FPpDUcWZy/bSwNsT+R3O0ycp8xFrEUwA8xlY9pi7InPo6uHTUtlvMMbtOGBQoOAZg2xNzQcoMVaotVW+W7LskJjMWgEiozXCnwH1ynEfC+C3EG38ncrGl5ffwgR9AH2+PTqP+0FwVCXUu5KaFofkUbLKbzzqjKdi3y0Nbzvl+K1PTUZfus13A/GKBbtO2s/m8bliOVTc79oJi1HeEqzLO+Tj8jbnDO8rcAqhZarhcLzlpzrQLYS/SzFkA7p4UXYH7J5Zenp7/4xWngKVcAsEiFFbf5kjNNDuwLELPT6EP0M7lzRQhqVDgAWE73NGtS/l7hmw5sexGhes/GoF6so+wozsA77lOmnbTERlWljla0TcmdOTu4YhtSPqWPhbn5G9JXvpo+8773p9vf957UhAuexglGHQ53RC4Tta9xZUJar6h7J7gKtMqcSHzdqQfTGxurfhnCUY6jMqDsTqByoo6goavnJpMlV+DgWgC18W3YNINo30XDzYNLPvokv1utdz7P4N3rWf9enwInQgHVnQzF/ntHD9q6SbT9FfJSxWrIdAVQ+p0+pcOtKZPCWMQq2756t+HaUAbHdBU7OPMU/Ow38kceCYKgXSPmgJ4E0wDAG43OskL6C/alsbE0i7x1EVWtCy9/arrqRd+VGt/6pNvQMLgSTjZAVtesbfJyt+3gakxE730BusVg4ow0O5GS3Y1yuMB8hoWHhbPdigYBgPyzwfid2jgCdgrDLT4AGAihY6JDo2nwtWOKokOK1WV0AFVVYQM35Lj/8Cd/ku7Y84m0euhAGlOtZGE+ncsH7uBnYUzxALq50ciiWRSAq08EpyCrC3iGR3Rhg9ReO5S8eSYnnHfsDWClgH5cwVVZlquiXoc8ioYpl5vFBZnrtf5V4O2mh7LgArR5IjFMvH/s0+FE24HNxml22XQKgBTwihCzta52XMy88vSc3lCKzQQ8DQps/55n+agaPgKueBpzNOKHDFcAhhEZ1NyWfEIsIW/Lu6Evy3uLrsOw+NVCjPAEfE9fiQVnunA3C18YJdSbewXTtWGYG+JqeeqwEQyXLhzt/LpBFWj5FWbD9DPPXfC23GoOUS7rfyaFMxJsJVCMgkdRKj5pMZJCbwfYwDoBTp3ACPnL80AdXadB+x/oLO7dm97w2tfiYWgxTQK6I4DsMHKnERsdgnxdWDbLxSwbjMm5oJblrbnRRIO0kZajugWIkV0s5D3FYLHvPY1L0YRHn+WjdXLUt0FugGlZ8mMPRWfpq3zx3R1xT3VV/pvxvbIxObiHxabtrhRj5X4SXKtMQsmNel8O8QhC27+KfhVtPsQNtHfiO3W3b7meYXtW9ms6ArHc7xL+SZawu++48AXj4mat6/gnOUwah4m/7YKL0ot/lK2sLvtWnMWwG6FGFYoLNIvHeGJNBgpAzkxKwchETtEO7E8CAH8jeF+Gq5ALF/dOh2+DMrtTPpyxYGuNqoCbRykJL+zqnaeAXxuF8s0CnNw2w2CDmMcmewIthbCGWVjspLvuSl/e89H0kXe/O9VmZ3Fys4wn+IE04YornPGa3odcKUU9q45sN+S6BPVyzUMgdpyNBmqe/BzhY0t2p2Xep72uqTJGOaqNOTdq40WjLZpOpN8rFA7Mez3p3+tTYGsKVEE0x7bd5fZXdzGpbMN54I/FXWeTuWMJa74jrAFyAm1wjnTGANyyT8iMuFC84oI0XG19YjTN4Zd6QU6E6f9BTHZr0zvTM1/03Wn3dzwXo6ApfJBsvwXT2mvlVtiTEdEgfYz8FQ26nLHB0GxUdaNQ3HEWeiTY48MfrTc9GkgkM0uVqA/r6RkLttmMrrqxnA4kcgjAKil+xC+BX4kGQSTNEGv6rFQhwXlIawHU5GT28EFEDtMHMIy48+MfBXxvS212ipgivUk+0DAiizZ6uK6cyqnGIgApmpegakNTE2EYQLZxRYMN7HUUsLEiA0NJWAsY3xGg8/TKkd+0jievfVhbQz/zfx4UyAtgcnsl95pVoeRQDZmzDVXFMo6g6qwuAFbGwrZfcsS05o33dBpjHHXVl+F+l2noNUQCHmdwAq5Z7Tp+EUZ27EyPuexJ6bKrvj3VH/s4VLd2XsMmi7eGDJD4BruN/dMJyApiAPtSU3Gd+VN+ATgYLSIE81Wex8tlsGTOTqNmGYXtk5U4+TQzbT0enfZbZyTY5mlD1N6Gw0GLkKKdFNeZMjYCQU3ADX+5RHL0Da9FfgU+QpspT03dP0dgNBoChN2ax4W1Vus17ds/dcPH3/3e9NVPfzYNoh7WRMOhgSZDU18LpKmJL04c8FTEwpmNk6mOeaqtEA2SdKKB+oH9ldMvdYUFZ7UWbFQhewoAxswYwwsXKnze+2haTo1sZP1jnw4n1w5ctA0GgL7g0T5lUNsgjnJ+ymJLSAoZbxElwDd8RGd5q/3GGRtwpsHQIIyG58vcn6OvrCKfXWFBa5lllalHnZ0ueeK3psue9uyUHv8EbW8PUYZpN1kMfyL2FRa7V1ErML8hPYbRZ1bJQAtQRRZhXh/gWQwWAZAl2FrEzQC3wI0CdHNdyiptHPpg20WRIJpMrBQrmNUNsK0SMThOohg/Gkv8uHCpEhFByJHwZ9nRP4KNB8AcVJKeA3bWkZFihpXl6zGpuTntw3vRXZ9Pf/2WN6XFffeGpc0YDm9GBG/dOSLzHSafYXVpSVc1XZXAg3stOQk53PBERl41/fc6lNNY3JNeHVxHgDUccxwfRAXb44HxZiDdv9+nm1Nz2pyirOgb5dpCdCeHfEG36Csu4WbuNkBZMQK3dO7UAkjdJXcA1ax1QHYRQIztZ1g41lXpnLM2FroueeqT09OueX4aveQxKLSjcrUNN6XsHoiDaTJXtMAl/3Xy4jZTqzA/OoVx4Vv9Xqf89hf1ZIHXjT3/BFsXmPNAIeYaxABBM4Ou5xuDCc8y6JbRex4eDtA9gznbkkYlUYO4JZE3GhB3BFw/QgHCBZDKWYbSNiH2KtOJxRJK1FqVKVYo8TY+kOeM4PrK3fhirYXrefHmdAg34/wW7v16uutzn0tf+dydaRY78UG0GepYt6hSpinjMI0kvATRGJ2uReO2Edl0aJzhVUm85U8h8qCRhdcha1TEO/Zo6fuhT4GTp4B9RS7R6VdeY4iZWIkwihJsn8GX2K+478KWhj7e13H3CmI0rbrarHm428k8bb2Gv+eLLnlCuuCSx6XHPP7SNMgefyF/VVNoHIN5jIXsYAKnRj1ysjUNEsijhUaPfLQzOv1CN7QgC4szo+konBmrWjj0n9B8KEOVoYr+VN4v+rugW3TmI28UPWkrwP1nBbZ5pDn5plKMWvrBrQJokV4pMjBRRQWClRwnR4kXytpeeR5ReE68BhoCCtwFuJjuxyJV8dnERDlgn8udOtKGA3ATkfOlkfDg6nAss7Z2Q8KGvI3RxIF770kz++7HScd96fD992Nfvj8tY1e+roNiNR5scHDMeoSvu2jgiiygW0gY5KYpoFy10zqODhvWY2MksI790KfAKVJgyPUJNRFo5yEO8EeTVqfcvffsH/Id4SuWqX2AFe20CRfbRD1yx65z0xB+PqbOOSedddGj09QF52HNtRPOdfwQPgy3h4plcwhHSzANcq7KLeyLdtRy9ijoakikaKChhz1y1aRX/7VRHoDZdYzYM4G+av+IRTj42XVmhPbL4F43QtFLAkgF3oy4PA9mrBJXpuZ4GNQH25KosaV7AJDBBSq/4RGgLYgthX1QxBJoswQqj9b6yTW0+YhhacIHjkUuP6IcccmFauUlyArEjvo1pl8FWpN8xkD9eQresgM6FPfYWtzDcTdtYy9CqCuwB2YBbi4lNqxcZXvmw/c/kB6AEz6MsxxNhVfwlWseKo1blq1CVI9W0Z8W98UpJ9MORJnBchGr4BiL6bvbwTQRqw2iYuVGqRPsw7fzvHPTOeednwan4VDHcO6iKbxOXtzVtl6/iW6ylz62G+9aNxbOk+gncqSCbICrwmGZHBeKOXdBi3arUZJcsto6Amn0K4DdbaoEY2efefYXGgi8pJjNEAyJRkye86uCaDBYDCLFcFFGsLuWXTaD6DcV2AalHkToNfJUR6ruUauIn4HXjIvpRS5Cd/xq0Xy3eO77xXsByJGcljY2KE7hfAuA51ywrUx34lpZsT8bxErrauJfH2Dsb2Bgb+S5zn5nrjacSLDt2dJsif1jnw4n2g6CGymAa6OZ2cgHBw5FO/RRAwMCzwe9LkBSoIxnvhudwvvldaRn27Z1F2KIMNyx3RNCa6FkboKRMC1Cr363ed/O/aLad4uFwUiskl53ur3SzO+cKcf/H1FJ1Bw7dpEDAAAAAElFTkSuQmCC;fontStyle=1" vertex="1" parent="1">
          <mxGeometry x="397" y="448" width="135.91" height="94" as="geometry" />
        </mxCell>
        <mxCell id="_1XgwbN9NE4WeG1gLeY1-2" value="Private subnet" style="points=[[0,0],[0.25,0],[0.5,0],[0.75,0],[1,0],[1,0.25],[1,0.5],[1,0.75],[1,1],[0.75,1],[0.5,1],[0.25,1],[0,1],[0,0.75],[0,0.5],[0,0.25]];outlineConnect=0;html=1;whiteSpace=wrap;fontSize=12;fontStyle=0;container=1;pointerEvents=0;collapsible=0;recursiveResize=0;shape=mxgraph.aws4.group;grIcon=mxgraph.aws4.group_security_group;grStroke=0;strokeColor=#ae4132;fillColor=#fad9d5;verticalAlign=top;align=left;spacingLeft=30;dashed=0;" parent="1" vertex="1">
          <mxGeometry x="714" y="381" width="341" height="258" as="geometry" />
        </mxCell>
        <mxCell id="_1XgwbN9NE4WeG1gLeY1-3" value="Security Group" style="fontStyle=0;verticalAlign=top;align=center;spacingTop=-2;fillColor=none;rounded=0;whiteSpace=wrap;html=1;strokeColor=#FF0000;strokeWidth=2;dashed=1;container=1;collapsible=0;expand=0;recursiveResize=0;" parent="_1XgwbN9NE4WeG1gLeY1-2" vertex="1">
          <mxGeometry x="29" y="35" width="287" height="200" as="geometry" />
        </mxCell>
        <mxCell id="hsbF_BY8EtxqXJsajYjX-1" value="s3.medium.4" style="shape=image;verticalLabelPosition=bottom;verticalAlign=top;imageAspect=0;aspect=fixed;image=data:image/svg+xml,PHN2ZyB4bWxuczp4bGluaz0iaHR0cDovL3d3dy53My5vcmcvMTk5OS94bGluayIgeG1sbnM9Imh0dHA6Ly93d3cudzMub3JnLzIwMDAvc3ZnIiB4bWw6c3BhY2U9InByZXNlcnZlIiBzdHlsZT0iZW5hYmxlLWJhY2tncm91bmQ6bmV3IDAgMCA0OCA0ODsiIHZpZXdCb3g9IjAgMCA0OCA0OCIgeT0iMHB4IiB4PSIwcHgiIGlkPSLlm77lsYJfMSIgdmVyc2lvbj0iMS4xIj4mI3hhOzxwYXRoIGQ9Ik0zNS4zLDE2LjFDMzMuNywxMS40LDI5LjMsOCwyNCw4cy05LjcsMy40LTExLjMsOC4xQzYuNywxNi43LDIsMjEuOCwyLDI4YzAsNi42LDUuNCwxMiwxMiwxMmgyMGM2LjYsMCwxMi01LjQsMTItMTImIzEwOyYjOTtDNDYsMjEuOCw0MS4zLDE2LjcsMzUuMywxNi4xeiBNMzQsMzhIMTRDOC41LDM4LDQsMzMuNSw0LDI4YzAtNS4xLDMuOC05LjQsOC45LTkuOWMwLjgtMC4xLDEuNC0wLjYsMS43LTEuM2MxLjQtNCw1LjItNi43LDkuNC02LjcmIzEwOyYjOTtzOCwyLjcsOS40LDYuN2MwLjMsMC43LDAuOSwxLjIsMS43LDEuM2M1LjEsMC42LDguOSw0LjgsOC45LDkuOUM0NCwzMy41LDM5LjUsMzgsMzQsMzh6IE0zMS41LDI4aC0xNWMtMC4zLDAtMC41LDAuMi0wLjUsMC41JiMxMDsmIzk7czAuMiwwLjUsMC41LDAuNWgxNWMwLjMsMCwwLjUtMC4yLDAuNS0wLjVTMzEuOCwyOCwzMS41LDI4eiBNMzQuOCwyM0gxNC4yQzEzLDIzLDEyLDI0LDEyLDI1LjJ2Ni42YzAsMS4yLDEsMi4yLDIuMiwyLjJoMjAuNyYjMTA7JiM5O2MxLjIsMCwyLjItMSwyLjItMi4ydi02LjZDMzcsMjQsMzYsMjMsMzQuOCwyM3ogTTM2LDMxLjhjMCwwLjctMC41LDEuMi0xLjIsMS4ySDE0LjJjLTAuNiwwLTEuMi0wLjUtMS4yLTEuMnYtNi42JiMxMDsmIzk7YzAtMC43LDAuNS0xLjIsMS4yLTEuMmgyMC43YzAuNiwwLDEuMiwwLjUsMS4yLDEuMlYzMS44eiIvPiYjeGE7PC9zdmc+" vertex="1" parent="_1XgwbN9NE4WeG1gLeY1-3">
          <mxGeometry x="38" y="40" width="98" height="98" as="geometry" />
        </mxCell>
        <mxCell id="hsbF_BY8EtxqXJsajYjX-9" value="" style="html=1;shadow=0;dashed=0;align=center;verticalAlign=middle;shape=mxgraph.arrows2.arrow;dy=0.6;dx=40;notch=0;fillColor=#e51400;fontColor=#ffffff;strokeColor=#B20000;" vertex="1" parent="1">
          <mxGeometry x="310" y="474" width="58" height="42" as="geometry" />
        </mxCell>
        <mxCell id="hsbF_BY8EtxqXJsajYjX-10" value="&lt;div style=&quot;&quot;&gt;&lt;span style=&quot;background-color: initial;&quot;&gt;&amp;nbsp; &amp;nbsp; &amp;nbsp; AK&lt;/span&gt;&lt;/div&gt;&lt;div style=&quot;&quot;&gt;&lt;span style=&quot;background-color: initial;&quot;&gt;&amp;nbsp; &amp;nbsp; &amp;nbsp;&amp;nbsp;&lt;/span&gt;&lt;/div&gt;&lt;div style=&quot;&quot;&gt;&lt;span style=&quot;background-color: initial;&quot;&gt;&amp;nbsp; &amp;nbsp; &amp;nbsp; SK&lt;/span&gt;&lt;/div&gt;" style="html=1;shadow=0;dashed=0;align=center;verticalAlign=middle;shape=mxgraph.arrows2.arrow;dy=0;dx=30;notch=30;fillColor=#e51400;fontColor=#ffffff;strokeColor=#B20000;fontStyle=1" vertex="1" parent="1">
          <mxGeometry x="569" y="394.5" width="71" height="201" as="geometry" />
        </mxCell>
        <mxCell id="hsbF_BY8EtxqXJsajYjX-11" value="1" style="ellipse;whiteSpace=wrap;html=1;aspect=fixed;fillColor=#e51400;fontColor=#ffffff;strokeColor=#B20000;fontStyle=1;fontSize=17;" vertex="1" parent="1">
          <mxGeometry x="132" y="487" width="27" height="27" as="geometry" />
        </mxCell>
        <mxCell id="hsbF_BY8EtxqXJsajYjX-12" value="2" style="ellipse;whiteSpace=wrap;html=1;aspect=fixed;fillColor=#e51400;fontColor=#ffffff;strokeColor=#B20000;fontStyle=1;fontSize=17;" vertex="1" parent="1">
          <mxGeometry x="401" y="437" width="27" height="27" as="geometry" />
        </mxCell>
        <mxCell id="hsbF_BY8EtxqXJsajYjX-14" value="3" style="ellipse;whiteSpace=wrap;html=1;aspect=fixed;fillColor=#e51400;fontColor=#ffffff;strokeColor=#B20000;fontStyle=1;fontSize=17;" vertex="1" parent="1">
          <mxGeometry x="557" y="481.5" width="27" height="27" as="geometry" />
        </mxCell>
        <mxCell id="hsbF_BY8EtxqXJsajYjX-16" value="4" style="ellipse;whiteSpace=wrap;html=1;aspect=fixed;fillColor=#e51400;fontColor=#ffffff;strokeColor=#B20000;fontStyle=1;fontSize=17;" vertex="1" parent="1">
          <mxGeometry x="1051" y="329" width="27" height="27" as="geometry" />
        </mxCell>
      </root>
    </mxGraphModel>
  </diagram>
</mxfile>
